<?xml version="1.0" standalone="no"?>
<!DOCTYPE svg PUBLIC "-//W3C//DTD SVG 1.1//EN" "http://www.w3.org/Graphics/SVG/1.1/DTD/svg11.dtd" >
<svg>
<metadata>
Created by FontForge 20090914 at Tue Jul 13 23:47:26 2021
 By www-data
Copyright (c) 2013 by Asen Baramov. All rights reserved. |DCNT
</metadata>
<defs>
<font id="Mart-ExtraBold" horiz-adv-x="437" >
  <font-face 
    font-family="Mart ExtraBold"
    font-weight="800"
    font-stretch="normal"
    units-per-em="1000"
    panose-1="2 0 5 3 8 0 0 2 0 4"
    ascent="778"
    descent="-222"
    x-height="509.999"
    cap-height="700"
    bbox="-84.001 -375.003 1348 970"
    underline-thickness="50"
    underline-position="-150"
    unicode-range="U+0020-U+FB04"
  />
<missing-glyph horiz-adv-x="335" 
 />
    <glyph glyph-name="f_f" unicode="ff" horiz-adv-x="716" 
d="M698 510l-0.000976562 -75h-109v-435h-145v435h-207v-435h-145v435h-67v75h67v4c0 58.667 20.5 102.5 61.5 131.5s104.167 43.5 189.5 43.5h38v-64h-33c-39.333 0 -67.666 -8 -84.999 -24s-26 -41 -26 -75v-16h207v4c0 128 73 192 219 192h27v-63h-27
c-25.333 0 -44 -8.83301 -56 -26.5s-18 -46.167 -18 -85.5v-21h109z" />
    <glyph glyph-name="f_f_i" unicode="ffi" horiz-adv-x="1011" 
d="M695 651c-36.667 0 -63.165 -9.49902 -79.498 -28.499s-24.5 -49.5 -24.5 -91.5v-21h347v-510h-145v333c0 39.333 -5.33301 66.166 -16 80.499s-28 21.5 -52 21.5h-134v-435h-145v435h-209v-435h-145v435h-67v75h67v4c0 116.667 81 175 243 175
c4 0 8.5 -0.166992 13.5 -0.5s10 -0.833008 15 -1.5s9.66699 -1.16699 14 -1.5s7.83301 -0.833008 10.5 -1.5h4v-64h-4c-2.66699 0.666992 -5.83398 1.16699 -9.50098 1.5s-7.66699 0.833008 -12 1.5s-9 1.16699 -14 1.5s-9.16699 0.5 -12.5 0.5
c-35.333 0 -61.333 -8 -78 -24s-25 -41 -25 -75v-16h209v4c0 64 22.667 112.667 68 146s112.666 50 201.999 50c130 0 201.667 -28.667 215 -86c4 -11.333 3.33301 -23.333 -2 -36c-12 -24 -37 -36 -75 -36c-55.333 0 -83 17 -83 51c0 14 -6.83301 25.5 -20.5 34.5
s-32.167 13.5 -55.5 13.5z" />
    <glyph glyph-name="f_f_l" unicode="ffl" horiz-adv-x="1007" 
d="M941 0h-144.999v544c0 65.333 -23 98.333 -69 99h-53c-30.667 0 -52.5 -8.5 -65.5 -25.5s-19.5 -45.833 -19.5 -86.5v-21h109v-75h-109v-435h-145v435h-207v-435h-145v435h-67v75h67v4c0 116.667 81 175 243 175c4 0 8.5 -0.166992 13.5 -0.5s10 -0.833008 15 -1.5
s9.66699 -1.16699 14 -1.5s7.83301 -0.833008 10.5 -1.5h4v-64h-4c-2.66699 0.666992 -5.83398 1.16699 -9.50098 1.5s-7.66699 0.833008 -12 1.5s-9 1.16699 -14 1.5s-9.16699 0.5 -12.5 0.5c-35.333 0 -61.333 -8 -78 -24s-25 -41 -25 -75v-16h207v4c0 64 19 112 57 144
s97.333 48 178 48h36h226v-706z" />
    <glyph glyph-name="t_t" unicode="tt" horiz-adv-x="727" 
d="M587 716l-0.00195312 -206.004h113v-75h-113v-256c0 -39.333 6.33301 -68.166 19 -86.499s33.334 -27.5 62.001 -27.5h33v-65h-48c-74 0 -127.667 15.833 -161 47.5s-50 80.834 -50 147.501v240h-205v-256c0 -39.333 6.33301 -68.166 19 -86.499
s33.334 -27.5 62.001 -27.5h33v-65h-48c-74 0 -127.667 15.833 -161 47.5s-50 80.834 -50 147.501v240h-73v75h73v80l145 41v-121h205v165z" />
    <glyph glyph-name="f_i" unicode="fi" horiz-adv-x="655" 
d="M341 651c-36.667 0 -63.166 -9.49902 -79.499 -28.499s-24.5 -49.5 -24.5 -91.5v-21h347v-510h-145v333c0 39.333 -5.33301 66.166 -16 80.499s-28 21.5 -52 21.5h-134v-435h-145v435h-67v75h67v4c0 64 22.667 112.667 68 146s112.666 50 201.999 50
c75.333 0 130.833 -9.33301 166.5 -28s53.5 -43.667 53.5 -75c0 -16.667 -7.16699 -30 -21.5 -40s-34.5 -15 -60.5 -15c-55.333 0 -83 17 -83 51c0 14 -6.83301 25.5 -20.5 34.5s-32.167 13.5 -55.5 13.5z" />
    <glyph glyph-name="f_j" unicode="fj" horiz-adv-x="655" 
d="M439 58v275.002c0 39.333 -5.33301 66.166 -16 80.499s-28 21.5 -52 21.5h-134v-435h-145v435h-67v75h67v4c0 64 22.667 112.667 68 146s112.666 50 201.999 50c75.333 0 130.833 -9.33301 166.5 -28s53.5 -43.667 53.5 -75c0 -16.667 -7.16699 -30 -21.5 -40
s-34.5 -15 -60.5 -15c-55.333 0 -83 17 -83 51c0 14 -6.83301 25.5 -20.5 34.5s-32.167 13.5 -55.5 13.5c-36.667 0 -63.167 -9.5 -79.5 -28.5s-24.5 -49.5 -24.5 -91.5v-21h347v-429c0 -52.667 -14.333 -99.334 -43 -140.001c-28.667 -42 -81.667 -89.333 -159 -142l-19 25
c32.667 35.333 53.334 68.333 62.001 99c9.33301 32 14 77 14 135z" />
    <glyph glyph-name="f_l" unicode="fl" horiz-adv-x="669" 
d="M596 0l-145 -0.000976562v544c0 34.667 -5.66699 59.834 -17 75.501s-29 23.5 -53 23.5h-59c-56.667 0 -85 -37.333 -85 -112v-21h109v-75h-109v-435h-145v435h-67v75h67v4c0 128 78.667 192 236 192h268v-706z" />
    <glyph glyph-name="f_f_j" unicode="ffj" horiz-adv-x="1011" 
d="M793 58l0.000976562 275.002c0 39.333 -5.33301 66.166 -16 80.499s-28 21.5 -52 21.5h-134v-435h-145v435h-209v-435h-145v435h-67v75h67v4c0 116.667 81 175 243 175c4 0 8.5 -0.166992 13.5 -0.5s10 -0.833008 15 -1.5s9.66699 -1.16699 14 -1.5
s7.83301 -0.833008 10.5 -1.5h4v-64h-4c-2.66699 0.666992 -5.83398 1.16699 -9.50098 1.5s-7.66699 0.833008 -12 1.5s-9 1.16699 -14 1.5s-9.16699 0.5 -12.5 0.5c-35.333 0 -61.333 -8 -78 -24s-25 -41 -25 -75v-16h209v4c0 64 22.667 112.667 68 146
s112.666 50 201.999 50c130 0 201.667 -28.667 215 -86c4 -11.333 3.33301 -23.333 -2 -36c-12 -24 -37 -36 -75 -36c-55.333 0 -83 17 -83 51c0 14 -6.83301 25.5 -20.5 34.5s-32.167 13.5 -55.5 13.5c-36.667 0 -63.167 -9.5 -79.5 -28.5s-24.5 -49.5 -24.5 -91.5v-21h347
v-429c0 -52.667 -14.333 -99.334 -43 -140.001c-28.667 -42 -81.667 -89.333 -159 -142l-19 25c32.667 35.333 53.334 68.333 62.001 99c9.33301 32 14 77 14 135z" />
    <glyph glyph-name=".notdef" horiz-adv-x="335" 
 />
    <glyph glyph-name="space" unicode=" " horiz-adv-x="220" 
 />
    <glyph glyph-name="exclam" unicode="!" horiz-adv-x="291" 
d="M92 700h114l-19 -515h-76zM82 57c0 18 6.33301 33.5 19 46.5s28.334 19.5 47.001 19.5s34.5 -6.5 47.5 -19.5s19.5 -28.5 19.5 -46.5c0 -18.667 -6.5 -34.334 -19.5 -47.001s-28.833 -19 -47.5 -19s-34.334 6.33301 -47.001 19s-19 28.334 -19 47.001z" />
    <glyph glyph-name="quotedbl" unicode="&#x22;" horiz-adv-x="359" 
d="M56 718h95l-11 -207h-73zM213 718h95l-11 -207h-73z" />
    <glyph glyph-name="numbersign" unicode="#" horiz-adv-x="573" 
d="M170 404h-91l18 75h92l28 116h83l-27 -116h75l28 116h84l-28 -116h94l-19 -75h-93l-18 -72h93l-19 -76h-92l-31 -123h-84l31 123h-75l-31 -123h-84l31 123h-93l18 76h93zM330 404h-76l-17 -72h75z" />
    <glyph glyph-name="dollar" unicode="$" horiz-adv-x="633" 
d="M356 -11l-0.00195312 -85.002h-87v83c-34.667 0.666992 -68.167 4.33398 -100.5 11.001s-54.5 13.334 -66.5 20.001v72c50.667 -20 106.334 -30 167.001 -30v241c-78.667 32 -134.334 63.333 -167.001 94c-30 28.667 -45 72 -45 130c0 50.667 18.167 92.167 54.5 124.5
s88.833 52.5 157.5 60.5v66h87v-63c50 -0.666992 99.667 -8.66699 149 -24v-167h-2c-20.667 70 -69.667 108.667 -147 116v-212c74 -29.333 127.833 -60.5 161.5 -93.5s51.834 -71.5 54.501 -115.5c0.666992 -5.33301 0.333984 -19.666 -0.999023 -42.999
c-4.66699 -52.667 -25.5 -94.834 -62.5 -126.501s-87.833 -51.167 -152.5 -58.5zM177.998 556.998c0 -20 7.16699 -37.832 21.5 -53.499s37.5 -30.834 69.5 -45.501v177c-28.667 -4.66699 -51 -14 -67 -28s-24 -30.667 -24 -50zM437.998 167.999
c0 40 -27.333 73.002 -82 99.002v-200c24.667 7.33301 44.5 20.166 59.5 38.499s22.5 39.166 22.5 62.499z" />
    <glyph glyph-name="percent" unicode="%" horiz-adv-x="1020" 
d="M558 700h76l-182 -700h-76zM69 512c0 62.667 15.334 111.999 46.001 147.999s74.667 54 132 54s101.333 -18 132 -54s46 -85.333 46 -148c0 -68 -14.667 -124.667 -44 -170c-28.667 -44.667 -73.334 -67 -134.001 -67c-61.333 0 -106.333 22.333 -135 67
s-43 101.334 -43 170.001zM247.001 653.999c-47.333 0 -70.999 -48.667 -70.999 -146c0 -37.333 1.33301 -66.333 4 -87c8.66699 -58 31 -87 67 -87c29.333 0 48.666 17.667 57.999 53c8 32 12 72.333 12 121c0 97.333 -23.333 146 -70 146zM770.002 -13.001
c-60.667 0 -105.334 22.332 -134.001 66.999s-43 101.334 -43 170.001c0 62.667 15.333 112 46 148s74.334 54 131.001 54c57.333 0 101.333 -18 132 -54s46 -85.333 46 -148c0 -68.667 -14.667 -125.667 -44 -171c-29.333 -44 -74 -66 -134 -66zM770.002 365.998
c-46.667 0 -69.999 -48.666 -69.999 -145.999c0 -48.667 4 -89 12 -121c9.33301 -35.333 28.666 -53 57.999 -53c26 0 44.333 14.667 55 44s16 72.666 16 129.999c0 97.333 -23.667 146 -71 146z" />
    <glyph glyph-name="ampersand" unicode="&#x26;" horiz-adv-x="712" 
d="M335 411l73.998 -0.00195312v128l142 41v-169h109v-75h-109v-157c0 -39.333 6.5 -68.166 19.5 -86.499s33.5 -27.5 61.5 -27.5h32v-65h-47c-73.333 0 -126.333 15.833 -159 47.5s-49 80.834 -49 147.501v141h-74c-36 0 -66.333 -12 -91 -36s-37 -55.667 -37 -95
c0 -42 13.333 -75.833 40 -101.5s61.334 -38.5 104.001 -38.5h30v-65h-53c-20.667 0 -38.334 0.666992 -53.001 2c-69.333 3.33301 -122.166 22.833 -158.499 58.5s-54.5 82.167 -54.5 139.5c0 46.667 13.333 85.167 40 115.5s61.334 49.5 104.001 57.5
c-44 8.66699 -78 28.667 -102 60s-36 63.333 -36 96c0 53.333 19.5 94.333 58.5 123s95.5 44.334 169.5 47.001c47.333 1.33301 93.666 1.66602 138.999 0.999023c60.667 -0.666992 99.334 -0.666992 116.001 0v-61h-197c-38 0 -71.333 -9.66699 -100 -29
c-27.333 -19.333 -41 -45.333 -41 -78c0 -38 11.333 -67.667 34 -89s52 -32 88 -32z" />
    <glyph glyph-name="quotesingle" unicode="'" horiz-adv-x="207" 
d="M56 718h95l-11 -207h-73z" />
    <glyph glyph-name="parenleft" unicode="(" horiz-adv-x="387" 
d="M204 490v-331.998c0 -79.333 6.66699 -144 20 -194c12.667 -48.667 36 -96 70 -142l-22 -17c-51.333 49.333 -92.666 103.666 -123.999 162.999c-30 57.333 -45 129.333 -45 216v280c0 86.667 15 158.667 45 216c31.333 59.333 72.666 113.666 123.999 162.999l22 -17
c-34 -46.667 -57.333 -93.667 -70 -141c-13.333 -50 -20 -115 -20 -195z" />
    <glyph glyph-name="parenright" unicode=")" horiz-adv-x="387" 
d="M163 158v331.998c0 80 -6.66699 145 -20 195c-12.667 47.333 -36 94.333 -70 141l22 17c51.333 -49.333 92.666 -103.666 123.999 -162.999c30 -57.333 45 -129.333 45 -216v-280c0 -86.667 -15 -158.667 -45 -216c-31.333 -59.333 -72.666 -113.666 -123.999 -162.999
l-22 17c34 46 57.333 93.333 70 142c13.333 50 20 114.667 20 194z" />
    <glyph glyph-name="asterisk" unicode="*" horiz-adv-x="393" 
d="M89 693l69 40l38 -90l39 91l70 -40l-58 -80l97 12v-81l-97 13l58 -78l-70 -41l-38 90l-39 -91l-69 41l58 78l-98 -11v81l98 -13z" />
    <glyph glyph-name="plus" unicode="+" horiz-adv-x="618" 
d="M266 282h-182v79h182v182h79v-182h182v-79h-182v-183h-79v183z" />
    <glyph glyph-name="comma" unicode="," horiz-adv-x="240" 
d="M52 59c0 18.667 6.16797 34 18.501 46s28.166 18 47.499 18s35.5 -7.5 48.5 -22.5s19.5 -35.833 19.5 -62.5c0 -29.333 -8 -58.333 -24 -87c-16.667 -30.667 -32.667 -53.334 -48 -68.001l-23 -23l-17 19c29.333 25.333 44 53.333 44 84c0 12.667 -11 27.334 -33 44.001
s-33 34 -33 52z" />
    <glyph glyph-name="hyphen" unicode="-" horiz-adv-x="360" 
d="M282 234h-209v77h209v-77z" />
    <glyph glyph-name="period" unicode="." horiz-adv-x="239" 
d="M52 57c0 18 6.33301 33.499 19 46.499s28.334 19.5 47.001 19.5c18 0 33.667 -6.5 47 -19.5s20 -28.5 20 -46.5s-6.66699 -33.5 -20 -46.5s-29 -19.5 -47 -19.5c-18.667 0 -34.334 6.33301 -47.001 19s-19 28.334 -19 47.001z" />
    <glyph glyph-name="slash" unicode="/" horiz-adv-x="465" 
d="M318 823h94l-249 -961h-94z" />
    <glyph glyph-name="zero" unicode="0" horiz-adv-x="639" 
d="M47 376c0 106.667 22.832 189.666 68.499 248.999s113.5 89 203.5 89s158 -29.667 204 -89s69 -142.333 69 -249c0 -109.333 -19.667 -200 -59 -272c-42 -79.333 -113.333 -119 -214 -119c-99.333 0 -170.666 39.667 -213.999 119
c-38.667 72.667 -58 163.334 -58 272.001zM318.999 636.999c-40.667 0 -71.5 -23 -92.5 -69s-31.5 -110.667 -31.5 -194c0 -84.667 7.33301 -156 22 -214c16.667 -65.333 50.667 -98 102 -98s85.333 32.667 102 98c15.333 56.667 23 128 23 214
c0 83.333 -10.5 148 -31.5 194s-52.167 69 -93.5 69z" />
    <glyph glyph-name="one" unicode="1" horiz-adv-x="639" 
d="M109 566l290 144v-710h-142v468c0 40 -5.33301 67 -16 81s-31 21 -61 21c-18 0 -41.667 -3.33301 -71 -10v6z" />
    <glyph glyph-name="two" unicode="2" horiz-adv-x="639" 
d="M550 0l-474 -0.000976562v60c81.333 86 136.333 146 165 180c59.333 72 98.333 125.667 117 161c20.667 36.667 31 77 31 121c0 37.333 -10 66 -30 86s-48.333 30 -85 30c-55.333 0 -109.333 -25.333 -162 -76h-3v106c63.333 30.667 127.666 46 192.999 46
c78 0 138 -15.167 180 -45.5s63 -76.166 63 -137.499c0 -38 -10 -75.667 -30 -113c-17.333 -34 -47.666 -74.667 -90.999 -122c-41.333 -44 -106 -106.667 -194 -188h186c42.667 0 73 4.16699 91 12.5s31.333 24.5 40 48.5h3v-169z" />
    <glyph glyph-name="three" unicode="3" horiz-adv-x="639" 
d="M281 638c-55.333 0 -109.331 -25.333 -161.998 -76h-3v106c63.333 30.667 127.666 46 192.999 46c73.333 0 129.833 -14 169.5 -42s59.5 -69.667 59.5 -125c0 -38.667 -14.667 -73.667 -44 -105c-29.333 -30.667 -67.333 -47.667 -114 -51v-2
c59.333 1.33301 108 -12.667 146 -42s57 -69 57 -119c0 -152 -132 -228 -396 -228h-78v65h78c166.667 0 250 54 250 162c0 44 -16.333 74.5 -49 91.5s-86.334 25.5 -161.001 25.5v63h21c98.667 0 148 41.333 148 124c0 34 -10.167 60.333 -30.5 79s-48.5 28 -84.5 28z" />
    <glyph glyph-name="four" unicode="4" horiz-adv-x="639" 
d="M590 310v-76h-83v-234h-143v234h-307v59l305 407h145v-390h83zM364 581l-197 -271h197v271z" />
    <glyph glyph-name="five" unicode="5" horiz-adv-x="639" 
d="M412 243c0 100 -42.667 150 -128 150c-40.667 0 -81.334 -14.333 -122.001 -43h-54v350h396v-76h-266v-176c28 8.66699 60.667 13 98 13c74 0 130.5 -17.667 169.5 -53s58.5 -87 58.5 -155c0 -81.333 -32.5 -143.833 -97.5 -187.5s-156.167 -65.5 -273.5 -65.5h-98v65h98
c68.667 0 122.334 15 161.001 45s58 74.333 58 133z" />
    <glyph glyph-name="six" unicode="6" horiz-adv-x="639" 
d="M214 302v-16.001c0 -81.333 9.83301 -139.5 29.5 -174.5s49.167 -52.5 88.5 -52.5c32.667 0 59.167 14.833 79.5 44.5s30.5 69.834 30.5 120.501c0 100.667 -36.333 151 -109 151c-24 0 -47.5 -7 -70.5 -21s-39.167 -31.333 -48.5 -52zM60 331.999
c0 115.333 23 202.667 69 262c21.333 27.333 48.333 49 81 65c55.333 27.333 128.666 41 219.999 41h69v-55h-51c-77.333 0 -135.666 -18.333 -174.999 -55c-39.333 -37.333 -59 -101.333 -59 -192c43.333 30.667 92.333 46 147 46c74.667 0 131.5 -18.833 170.5 -56.5
s58.5 -91.5 58.5 -161.5s-24.333 -127.333 -73 -172c-49.333 -45.333 -111 -68 -185 -68c-92.667 0 -161.167 27.833 -205.5 83.5s-66.5 143.167 -66.5 262.5z" />
    <glyph glyph-name="seven" unicode="7" horiz-adv-x="639" 
d="M94 700h469.001v-34l-229 -666h-102l208 587h-208c-42.667 0 -73.834 -5.83301 -93.501 -17.5s-33.5 -33.5 -41.5 -65.5h-3v196z" />
    <glyph glyph-name="eight" unicode="8" horiz-adv-x="639" 
d="M433 206c0 40.667 -9.83301 74.167 -29.5 100.5s-48.5 39.5 -86.5 39.5s-66.833 -13.167 -86.5 -39.5s-29.5 -59.833 -29.5 -100.5c0 -43.333 9.66699 -78 29 -104s48.333 -39 87 -39s67.667 13 87 39s29 60.667 29 104zM415 534c0 30.667 -8.83301 55.667 -26.5 75
s-41.5 29 -71.5 29s-53.667 -9.5 -71 -28.5s-26 -44.167 -26 -75.5c0 -35.333 9.16699 -64.333 27.5 -87s41.5 -34 69.5 -34s51.333 11.333 70 34s28 51.667 28 87zM317 -15c-34.667 0 -67.166 4 -97.499 12s-58.333 20.167 -84 36.5s-45.834 38.833 -60.501 67.5
s-22 62 -22 100c0 44.667 14 85.667 42 123s67 58 117 62v1c-41.333 6.66699 -73.166 23.834 -95.499 51.501s-33.5 62.167 -33.5 103.5c0 54 22 96 66 126c43.333 30.667 99.333 46 168 46s124.667 -15.333 168 -46c44 -30 66 -72 66 -126
c0 -42.667 -10.833 -77.5 -32.5 -104.5s-53.834 -43.833 -96.501 -50.5v-1c50.667 -4 90 -24.333 118 -61s42 -78 42 -124c0 -50.667 -13.333 -92.334 -40 -125.001c-47.333 -60.667 -122.333 -91 -225 -91z" />
    <glyph glyph-name="nine" unicode="9" horiz-adv-x="639" 
d="M428 398l-0.000976562 15.999c0 85.333 -10.333 144.333 -31 177c-21.333 33.333 -52.666 50 -93.999 50c-32.667 0 -59 -14.667 -79 -44s-30 -69.666 -30 -120.999c0 -48 10.167 -85.167 30.5 -111.5s48.5 -39.5 84.5 -39.5c24 0 47.5 7 70.5 21s39.167 31.333 48.5 52z
M581.999 367.999c0 -115.333 -23.333 -203 -70 -263c-20.667 -26.667 -47.334 -48 -80.001 -64c-55.333 -27.333 -128.666 -41 -219.999 -41h-81v55h63c77.333 0 135.333 18.333 174 55c40 37.333 60 101.333 60 192c-43.333 -30.667 -92.333 -46 -147 -46
c-75.333 0 -133 19.667 -173 59s-60 94.333 -60 165c0 68 25.333 124 76 168s112.667 66 186 66c92.667 0 161.167 -27.833 205.5 -83.5s66.5 -143.167 66.5 -262.5z" />
    <glyph glyph-name="colon" unicode=":" horiz-adv-x="229" 
d="M52 57c0 18 6.33301 33.499 19 46.499s28.334 19.5 47.001 19.5c18 0 33.667 -6.5 47 -19.5s20 -28.5 20 -46.5s-6.66699 -33.5 -20 -46.5s-29 -19.5 -47 -19.5c-18.667 0 -34.334 6.33301 -47.001 19s-19 28.334 -19 47.001zM52 468.999c0 18 6.33301 33.499 19 46.499
s28.334 19.5 47.001 19.5c18 0 33.667 -6.5 47 -19.5s20 -28.5 20 -46.5s-6.66699 -33.5 -20 -46.5s-29 -19.5 -47 -19.5c-18.667 0 -34.334 6.33301 -47.001 19s-19 28.334 -19 47.001z" />
    <glyph glyph-name="semicolon" unicode=";" horiz-adv-x="239" 
d="M59 59c0 18.667 6.16797 33.999 18.501 45.999s28.166 18 47.499 18s35.5 -7.5 48.5 -22.5s19.5 -35.833 19.5 -62.5c0 -33.333 -9.33301 -65.333 -28 -96s-37.667 -55 -57 -73l-10 -9l-17 19c29.333 25.333 44 53.333 44 84c0 12.667 -11 27.334 -33 44.001
s-33 34 -33 52zM59.001 468.999c0 18 6.33301 33.499 19 46.499s28.334 19.5 47.001 19.5c18 0 33.667 -6.5 47 -19.5s20 -28.5 20 -46.5s-6.66699 -33.5 -20 -46.5s-29 -19.5 -47 -19.5c-18.667 0 -34.334 6.33301 -47.001 19s-19 28.334 -19 47.001z" />
    <glyph glyph-name="less" unicode="&#x3c;" horiz-adv-x="618" 
d="M209 320l291 -146l-1 -90l-404 206v61l404 206l1 -90z" />
    <glyph glyph-name="equal" unicode="=" horiz-adv-x="635" 
d="M529 216h-430v79h430v-79zM529 374h-430v79h430v-79z" />
    <glyph glyph-name="greater" unicode="&#x3e;" horiz-adv-x="618" 
d="M493 290l-404 -206l-1 90l291 146l-291 147l1 90l404 -206v-61z" />
    <glyph glyph-name="question" unicode="?" horiz-adv-x="512" 
d="M150 57c0 18 6.33301 33.499 19 46.499s28.334 19.5 47.001 19.5c18 0 33.667 -6.5 47 -19.5s20 -28.5 20 -46.5s-6.66699 -33.5 -20 -46.5s-29 -19.5 -47 -19.5c-18.667 0 -34.334 6.33301 -47.001 19s-19 28.334 -19 47.001zM252 229.999l0.000976562 -45h-77v55
c0 32 5 59.5 15 82.5s26.667 46.833 50 71.5c35.333 40.667 57 69.334 65 86.001c8.66699 18 13 37.333 13 58c0 35.333 -10.5 63.5 -31.5 84.5s-47.5 31.5 -79.5 31.5c-54.667 0 -106.667 -22.333 -156 -67h-2v85c58 28 118.667 42 182 42c66.667 0 119.5 -12 158.5 -36
s61.833 -59 68.5 -105c2 -14.667 2.33301 -29.334 1 -44.001c-4 -20.667 -9.33301 -37.667 -16 -51c-10.667 -18.667 -20.667 -33 -30 -43c-20.667 -20.667 -34.334 -33.667 -41.001 -39l-22 -17l-25 -20l-24 -18c-32.667 -24 -49 -61 -49 -111z" />
    <glyph glyph-name="at" unicode="@" horiz-adv-x="1015" 
d="M554 531l153 -0.000976562l-48 -324c-6 -46 5 -69 33 -69c36 0 68.333 22 97 66c29.333 45.333 44 106.666 44 183.999c0 76 -27.333 138.333 -82 187c-55.333 49.333 -124 74 -206 74c-61.333 0 -118.666 -13.667 -171.999 -41
c-52.667 -26.667 -96.667 -67.667 -132 -123c-34.667 -53.333 -52 -115 -52 -185c0 -104.667 28.333 -186.334 85 -245.001s134.667 -88 234 -88c124 0 229.667 30.667 317 92v-65c-76.667 -60.667 -184 -91 -322 -91c-81.333 0 -153.666 14.333 -216.999 43
c-65.333 28.667 -117.333 73.167 -156 133.5s-58 130.5 -58 210.5c0 64.667 13.333 124.334 40 179.001s63 99.334 109 134.001c94.667 72 204 108 328 108c119.333 0 214.666 -33 285.999 -99s107 -142.333 107 -229c0 -85.333 -27.667 -157.666 -83 -216.999
c-54.667 -58.667 -122.334 -88 -203.001 -88c-52.667 0 -83 16.333 -91 49c-36.667 -32.667 -75 -49 -115 -49c-55.333 0.666992 -98.333 16.834 -129 48.501s-46 75.167 -46 130.5c0 83.333 27 149.666 81 198.999c54.667 50 120.667 75 198 75zM463 142.999
c41.333 0 70.667 27.667 88 83l34 232c-14 10 -32.667 15 -56 15c-38 0 -69.333 -18.333 -94 -55s-37 -86.667 -37 -150c0 -83.333 21.667 -125 65 -125z" />
    <glyph glyph-name="A" unicode="A" horiz-adv-x="668" 
d="M164 700l211 0.000976562l270 -700h-162l-73 199h-228l-68 -199h-101l198 546c10.667 30 16 54.333 16 73c0 35.333 -21 61.666 -63 78.999v2zM382 274.001l-89 260h-1l-85 -260h175z" />
    <glyph glyph-name="B" unicode="B" horiz-adv-x="637" 
d="M286 0l-188.001 -0.000976562v510c0 60.667 -6 104 -18 130c-10.667 25.333 -33 44.666 -67 57.999v2h280c178 0 267 -56.667 267 -170c0 -33.333 -12 -62.333 -36 -87s-55.333 -40.667 -94 -48c48.667 -3.33301 89.667 -20.666 123 -51.999
c34.667 -30.667 52 -71.667 52 -123c0 -68 -23 -120.333 -69 -157c-45.333 -35.333 -104.666 -55.666 -177.999 -60.999c-41.333 -1.33301 -65.333 -2 -72 -2zM323.999 76.999c42 0 75 12.499 99 37.499s36 59.5 36 103.5c0 40.667 -14.167 72.334 -42.5 95.001
s-68.5 34 -120.5 34h-54v-260h1c19.333 -6.66699 46.333 -10 81 -10zM241.999 622.998v-213.001h42c40.667 0 72.667 9.33301 96 28s35 45.334 35 80.001c0 74.667 -40.333 112 -121 112c-22.667 0 -40 -2.33301 -52 -7z" />
    <glyph glyph-name="C" unicode="C" horiz-adv-x="615" 
d="M426 62c54.667 0 103 7.00293 145 21.0029v-69c-38 -16.667 -86.333 -26 -145 -28c-4.66699 -0.666992 -18.667 -0.333984 -42 0.999023c-106.667 4 -188 42 -244 114s-84 164.667 -84 278c0 90 25 165.667 75 227c51.333 61.333 123 96 215 104
c34 2 61.333 2.66699 82 2c49.333 -0.666992 94 -9.33398 134 -26.001v-164h-1c-22 76.667 -76.333 115 -163 115c-58.667 0 -104 -22.333 -136 -67s-48 -110.334 -48 -197.001c0 -102 19 -179.333 57 -232s89.667 -79 155 -79z" />
    <glyph glyph-name="D" unicode="D" horiz-adv-x="706" 
d="M329 623c-38 0 -66.667 -2.33301 -86 -7v-528c22 -8 47.667 -12 77 -12c58 0 104.167 26.5 138.5 79.5s51.5 125.5 51.5 217.5c0 82 -16.167 144.167 -48.5 186.5s-76.5 63.5 -132.5 63.5zM313 0h-215.002v480v30c0 60.667 -6.33301 103.667 -19 129
c-13.333 26.667 -36.666 46.334 -69.999 59.001v2h266h54c108.667 0 192.334 -30.333 251.001 -91c59.333 -60.667 89 -137.334 89 -230.001c0 -110 -30.667 -200.667 -92 -272s-149.333 -107 -264 -107z" />
    <glyph glyph-name="E" unicode="E" horiz-adv-x="569" 
d="M243 409l213 -0.000976562v-75h-213v-260h133c48.667 0 84.334 6 107.001 18s38 33.333 46 64h1v-156h-432v510c0 60.667 -6.33301 103.667 -19 129c-13.333 26.667 -36.666 46.334 -69.999 59.001v2h505v-168h-2c-8.66699 34 -23.334 58.167 -44.001 72.5
s-51.334 21.5 -92.001 21.5h-133v-217z" />
    <glyph glyph-name="F" unicode="F" horiz-adv-x="541" 
d="M243 409l212.999 -0.000976562v-75h-213v-334h-145v510c0 60.667 -6.33301 103.667 -19 129c-13.333 26.667 -36.666 46.334 -69.999 59.001v2h498v-168h-1c-14 62.667 -59.667 94 -137 94h-126v-217z" />
    <glyph glyph-name="G" unicode="G" horiz-adv-x="689" 
d="M476 76v150.001c0 50.667 -6 87 -18 109c-10.667 22 -33 38 -67 48v2h230v-369c-24.667 0 -61.667 -5.33301 -111 -16c-50 -10 -91.333 -15 -124 -15c-112 0 -195 36.333 -249 109c-54 73.333 -81 168.333 -81 285c0 96.667 30 176.667 90 240
c61.333 63.333 144.333 95 249 95c40 0 77 -3.33301 111 -10c36.667 -6 63 -12 79 -18v-164h-2c-10 37.333 -30.167 66 -60.5 86s-67.833 29.667 -112.5 29c-59.333 0 -106.833 -22.833 -142.5 -68.5s-53.5 -110.834 -53.5 -195.501c0 -102.667 15.833 -180.167 47.5 -232.5
s77.167 -78.5 136.5 -78.5c28 0 54 4.66699 78 14z" />
    <glyph glyph-name="H" unicode="H" horiz-adv-x="717" 
d="M636 0l-145.001 -0.000976562v334h-248v-334h-145v510c0 60.667 -6.33301 103.667 -19 129c-13.333 26.667 -36.666 46.334 -69.999 59.001v2h234v-291h248v291h145v-700z" />
    <glyph glyph-name="I" unicode="I" horiz-adv-x="326" 
d="M243 0l-145.001 -0.000976562v510c0 60.667 -6.33301 103.667 -19 129c-13.333 26.667 -36.666 46.334 -69.999 59.001v2h234v-700z" />
    <glyph glyph-name="J" unicode="J" horiz-adv-x="326" 
d="M9 700l233.999 -0.000976562v-618c0 -54.667 -14.333 -102.667 -43 -144c-28.667 -43.333 -80 -90 -154 -140l-24 29c28.667 30.667 48.667 61.334 60 92.001c10.667 29.333 16 71.666 16 126.999v464c0 60.667 -6.33301 103.667 -19 129
c-13.333 26.667 -36.666 46.334 -69.999 59.001v2z" />
    <glyph glyph-name="K" unicode="K" horiz-adv-x="698" 
d="M243 0l-145.001 -0.000976562v510c0 60.667 -6.33301 103.667 -19 129c-13.333 26.667 -36.666 46.334 -69.999 59.001v2h234v-325l266 325h112l-219 -261l272 -439h-179l-191 336l-61 -79v-257z" />
    <glyph glyph-name="L" unicode="L" horiz-adv-x="549" 
d="M508 156l-0.000976562 -156.002h-410v510c0 60.667 -6.33301 103.667 -19 129c-13.333 26.667 -36.666 46.334 -69.999 59.001v2h234v-622c0.666992 0 2.16699 -0.166992 4.5 -0.5s5.5 -0.666016 9.5 -0.999023s8 -0.5 12 -0.5c20 -1.33301 32.667 -2 38 -2h6h24
c53.333 0 92.833 6.33301 118.5 19s42.5 33.667 50.5 63h2z" />
    <glyph glyph-name="M" unicode="M" horiz-adv-x="935" 
d="M701 540h-1l-214 -540h-98l-214 540h-1l-46 -540h-95l57 546c4 33.333 6 57.666 6 72.999c0 38.667 -20 65 -60 79v2h225l208 -536h1l151 384c11.333 30.667 17 55.334 17 74.001c0 20.667 -3.16699 36.5 -9.5 47.5s-18.5 20.5 -36.5 28.5v2h229l70 -700h-150z" />
    <glyph glyph-name="N" unicode="N" horiz-adv-x="754" 
d="M189 0l-91.001 -0.000976562v510c0 60.667 -6.33301 103.667 -19 129c-13.333 26.667 -36.666 46.334 -69.999 59.001v2h239l331 -510h2v510h91v-700h-131l-351 536h-1v-536z" />
    <glyph glyph-name="O" unicode="O" horiz-adv-x="752" 
d="M376 -15c-108 0 -189.667 38.999 -245 116.999c-50 74.667 -75 165 -75 271c0 94.667 27.667 175.167 83 241.5s134.333 99.5 237 99.5s181.667 -33.167 237 -99.5s83 -146.833 83 -241.5c0 -71.333 -11 -135.666 -33 -192.999c-20.667 -55.333 -56 -102 -106 -140
c-48.667 -36.667 -109 -55 -181 -55zM537 370.999c0 84.667 -14.332 150.168 -42.999 196.501s-68 69.5 -118 69.5c-50.667 0 -90.334 -23 -119.001 -69s-43 -111.667 -43 -197c0 -92.667 14 -167.334 42 -224.001c28.667 -56.667 68.667 -85 120 -85s91 28.333 119 85
c28 57.333 42 132 42 224z" />
    <glyph glyph-name="P" unicode="P" horiz-adv-x="628" 
d="M243 0l-145 -0.000976562v510c0 60.667 -6.33301 103.667 -19 129c-13.333 26.667 -36.666 46.334 -69.999 59.001v2h283c192 0 288 -68.333 288 -205c0 -70.667 -26 -128 -78 -172c-52.667 -43.333 -124.334 -65 -215.001 -65h-44v-258zM296 623.999l-53 -5v-278
c18 -5.33301 35 -8 51 -8c42.667 0 76.667 13.333 102 40s38 63.667 38 111c0 93.333 -46 140 -138 140z" />
    <glyph glyph-name="Q" unicode="Q" horiz-adv-x="752" 
d="M376 -15c-108 0 -189.668 39.002 -245.001 117.002c-50 74.667 -75 165 -75 271c0 94.667 27.667 175.167 83 241.5s134.333 99.5 237 99.5s181.667 -33.167 237 -99.5s83 -146.833 83 -241.5c0 -80 -14.667 -152 -44 -216c-29.333 -63.333 -73 -109.666 -131 -138.999
c10 -34.667 26.167 -63.334 48.5 -86.001s47.833 -35.334 76.5 -38.001v-33c-111.333 3.33301 -186.666 45.666 -225.999 126.999c-28 -2 -42.667 -3 -44 -3zM536.999 371.002c0 84.667 -14.332 150.168 -42.999 196.501s-68 69.5 -118 69.5
c-50.667 0 -90.334 -23 -119.001 -69s-43 -111.667 -43 -197c0 -92.667 14 -167.334 42 -224.001c28.667 -56.667 68.667 -85 120 -85s91 28.333 119 85c28 57.333 42 132 42 224z" />
    <glyph glyph-name="R" unicode="R" horiz-adv-x="637" 
d="M243 0h-145.001v510c0 60.667 -6.33301 103.667 -19 129c-13.333 26.667 -36.666 46.334 -69.999 59.001v2h278c190 0 285 -66 285 -198c0 -40 -13.333 -75.333 -40 -106s-62 -51.667 -106 -63c60 -14.667 103 -60.334 129 -137.001l70 -196h-154l-55 173
c-13.333 41.333 -29.5 70.833 -48.5 88.5s-42.833 26.5 -71.5 26.5h-53v-288zM242.999 617v-248c18 -5.33301 35 -8 51 -8c41.333 0 73.833 12 97.5 36s35.5 57.333 35.5 100c0 84.667 -43.667 127 -131 127c-23.333 0 -41 -2.33301 -53 -7z" />
    <glyph glyph-name="S" unicode="S" horiz-adv-x="583" 
d="M399 168c0 28.667 -12.001 53.498 -36.001 74.498s-65.667 42.167 -125 63.5c-68 24.667 -116.333 53 -145 85c-28 32.667 -42 76.334 -42 131.001c0 54 19 97.5 57 130.5s92.667 52.5 164 58.5c40.667 1.33301 65.667 1.66602 75 0.999023
c54 -3.33301 99.333 -10.666 136 -21.999v-168h-2c-22 76.667 -74.667 115 -158 115c-48.667 0 -85.5 -7.66699 -110.5 -23s-37.5 -36.333 -37.5 -63c0 -24.667 10.167 -45.834 30.5 -63.501s57.833 -36.5 112.5 -56.5c80 -31.333 137 -64.666 171 -99.999s51 -78 51 -128
c0 -68.667 -25.167 -122.167 -75.5 -160.5s-119.166 -57.5 -206.499 -57.5c-36 0 -73.333 3.66699 -112 11c-35.333 6.66699 -59 13.334 -71 20.001v75c54 -19.333 113 -29 177 -29c44 0 79.5 9.66699 106.5 29s40.5 45 40.5 77z" />
    <glyph glyph-name="T" unicode="T" horiz-adv-x="636" 
d="M451 626h-59v-626h-145v626h-59c-77.333 0 -123 -31.333 -137 -94h-1v168h539v-168h-1c-14 62.667 -59.667 94 -137 94z" />
    <glyph glyph-name="U" unicode="U" horiz-adv-x="707" 
d="M84 274v236c0 60.667 -6.33301 103.667 -19 129c-13.333 26.667 -36.666 46.334 -69.999 59.001v2h234v-433c0 -66 12.667 -116.667 38 -152s60.333 -53 105 -53c47.333 0 84.333 17.833 111 53.5s40 87.5 40 155.5v429h108v-421
c0 -94.667 -24.333 -167.334 -73 -218.001s-112.334 -76 -191.001 -76c-88 0 -157.167 25 -207.5 75s-75.5 121.333 -75.5 214z" />
    <glyph glyph-name="V" unicode="V" horiz-adv-x="713" 
d="M248 700l173.001 -529h1l156 529h100l-228 -700h-112l-206 584c-8.66699 26.667 -21.334 48.667 -38.001 66c-14 16 -26.833 27 -38.5 33s-27.5 11.333 -47.5 16v1h240z" />
    <glyph glyph-name="W" unicode="W" horiz-adv-x="1058" 
d="M618 700l210 -522h1l85 522h98l-128 -700h-120l-203 488h-2l-183 -488h-127l-118 577c-4.66699 27.333 -14.667 49.333 -30 66c-15.333 18.667 -29 30.667 -41 36c-15.333 7.33301 -32.333 14 -51 20v1h247l101 -522h1l189 522h71z" />
    <glyph glyph-name="X" unicode="X" horiz-adv-x="677" 
d="M523 700l105 0.000976562l-196 -309l245 -391h-178l-166 289l-171 -289h-116l232 365l-140 214c-26 42 -48 70.333 -66 85c-18.667 15.333 -40.667 26.666 -66 33.999v2h233l142 -239z" />
    <glyph glyph-name="Y" unicode="Y" horiz-adv-x="662" 
d="M438 0l-145 0.000976562v315l-160 264c-26.667 42.667 -48.667 71 -66 85c-16.667 15.333 -37.667 26.666 -63 33.999v2h228l155 -281l142 281h103l-194 -351v-349z" />
    <glyph glyph-name="Z" unicode="Z" horiz-adv-x="610" 
d="M79 532l-0.00195312 168h510l-354 -626h191c46.667 0 81.834 6.33301 105.501 19s39.167 33.667 46.5 63h2v-156h-553l352 626h-162c-39.333 0 -69.666 -7.33301 -90.999 -22s-36.333 -38.667 -45 -72h-2z" />
    <glyph glyph-name="bracketleft" unicode="[" horiz-adv-x="350" 
d="M189 703v-758.001c0 -43.333 5 -70.333 15 -81c10.667 -12 31.334 -18 62.001 -18v-4c0.666992 -3.33301 1 -6.5 1 -9.5v-11c0 -4.33301 -0.333008 -8.16602 -1 -11.499v-5h-178v1038h178v-10v-21v-10c-30.667 0 -51.334 -6 -62.001 -18c-10 -10.667 -15 -37.667 -15 -81
z" />
    <glyph glyph-name="backslash" unicode="\" horiz-adv-x="490" 
d="M420 -138h-94l-249 961h94z" />
    <glyph glyph-name="bracketright" unicode="]" horiz-adv-x="350" 
d="M157 -55v758c0 43.333 -5.33301 70.333 -16 81c-10 12 -30.333 18 -61 18v36v5h178v-1038h-178v10v21v10c30.667 0 51 6 61 18c10.667 10.667 16 37.667 16 81z" />
    <glyph glyph-name="asciicircum" unicode="^" horiz-adv-x="505" 
d="M155 509h-91l130 203h116l130 -203h-91l-97 139z" />
    <glyph glyph-name="underscore" unicode="_" horiz-adv-x="386" 
d="M378 -50v-45h-370v45h370z" />
    <glyph glyph-name="grave" unicode="`" horiz-adv-x="264" 
d="M32 718h109l93 -143h-81z" />
    <glyph glyph-name="a" unicode="a" horiz-adv-x="545" 
d="M249 58c32 0 61 14 87 42v162c-102.667 -18 -154 -58.667 -154 -122c0 -24.667 6 -44.5 18 -59.5s28.333 -22.5 49 -22.5zM239 446c-30.667 0 -59.167 -9.16797 -85.5 -27.501s-43.5 -42.833 -51.5 -73.5h-1v156c68.667 14.667 126.334 22 173.001 22
c72 0 124.5 -16.333 157.5 -49s49.5 -85 49.5 -157v-317h-145v37c-44 -34 -90.333 -51 -139 -51s-86.334 13.333 -113.001 40s-40 61.667 -40 105c0 76.667 53.333 131 160 163c30 8.66699 74 18.334 132 29.001v19c0 36 -7.66699 62.333 -23 79s-40 25 -74 25z" />
    <glyph glyph-name="b" unicode="b" horiz-adv-x="605" 
d="M314 444c-17.333 0 -34.168 -6.16797 -50.501 -18.501s-29.166 -28.833 -38.499 -49.5v-301c12 -4.66699 26.333 -7 43 -7c42 0 76 17.333 102 52s39 86.334 39 155.001c0 112.667 -31.667 169 -95 169zM255.998 -0.000976562h-175.999v554
c0 45.333 -5.33301 77.666 -16 96.999c-11.333 20.667 -29.333 36.334 -54 47.001v2h215v-230c41.333 35.333 88.666 53 141.999 53c60 0 107.333 -19.833 142 -59.5s52 -98.5 52 -176.5c0 -90 -27.333 -160.333 -82 -211s-129 -76 -223 -76z" />
    <glyph glyph-name="c" unicode="c" horiz-adv-x="484" 
d="M322 447c-40.667 0 -72.835 -15.3311 -96.502 -45.998s-35.5 -75.334 -35.5 -134.001c0 -66 13.5 -116.833 40.5 -152.5s63.167 -53.5 108.5 -53.5c36.667 0 73 4.66699 109 14v-69c-42 -13.333 -88.333 -20 -139 -20c-85.333 0 -151.666 26.667 -198.999 80
c-46.667 53.333 -70 120.666 -70 201.999c0 82 24 145 72 189s111.333 66 190 66c42.667 0 83.334 -4 122.001 -12l18 -4v-162h-1c-20 68 -59.667 102 -119 102z" />
    <glyph glyph-name="d" unicode="d" horiz-adv-x="590" 
d="M342 510h35.001v44c0 45.333 -5 78 -15 98c-8.66699 19.333 -25.667 34.666 -51 45.999v2h211v-700h-145v37c-40.667 -34 -87.667 -51 -141 -51c-54 0 -100.333 23.333 -139 70c-38 46.667 -57 107.334 -57 182.001c0 83.333 28.333 149.333 85 198
c57.333 49.333 129.666 74 216.999 74zM291.001 64c37.333 0 65.999 21.667 85.999 65v305c-14 5.33301 -30.333 8 -49 8c-40.667 0 -73.5 -16.5 -98.5 -49.5s-37.5 -82.167 -37.5 -147.5c0 -60 8.83301 -105.167 26.5 -135.5s41.834 -45.5 72.501 -45.5z" />
    <glyph glyph-name="e" unicode="e" horiz-adv-x="564" 
d="M358 61c43.333 0 83.6689 5 121.002 15v-70c-54.667 -13.333 -107.334 -20 -158.001 -20c-85.333 0 -153.333 25.333 -204 76c-50 50.667 -75 115.667 -75 195c0 89.333 23.667 156 71 200c48 44 109.333 66 184 66c74 0 130.833 -23.5 170.5 -70.5
s59.5 -115.167 59.5 -204.5h-335c1.33301 -65.333 17.666 -113 48.999 -143c32.667 -29.333 71.667 -44 117 -44zM290.003 449c-29.333 0 -52.832 -11.832 -70.499 -35.499s-26.834 -56.834 -27.501 -99.501h189c0 90 -30.333 135 -91 135z" />
    <glyph glyph-name="f" unicode="f" horiz-adv-x="384" 
d="M356 510v-75.001h-109v-435h-145v435h-68v75h68v4c0 62.667 17 109.334 51 140.001s88.333 46 163 46h32v-63h-27c-26.667 0 -45.667 -8 -57 -24s-17 -43.333 -17 -82v-21h109z" />
    <glyph glyph-name="g" unicode="g" horiz-adv-x="601" 
d="M298 64c37.333 0 65.667 21.667 85 65v305c-12 5.33301 -31 8 -57 8c-85.333 0 -128 -65.667 -128 -197c0 -59.333 9 -104.333 27 -135s42.333 -46 73 -46zM339.001 510l255 -0.00195312v-2c-26 -11.333 -43.667 -29.666 -53 -54.999c-8.66699 -24 -13 -65 -13 -123v-280
c0 -166.667 -99.333 -250 -298 -250h-90v71h87c104 0 156 47.333 156 142v24c-39.333 -34 -84.333 -51 -135 -51c-54.667 0 -102 23.333 -142 70s-60 107.334 -60 182.001c0 84 27 150.333 81 199c53.333 48.667 124 73 212 73z" />
    <glyph glyph-name="h" unicode="h" horiz-adv-x="631" 
d="M231 368l-0.000976562 -368.001h-145v554c0 44 -5.16699 76.333 -15.5 97s-28.5 36.334 -54.5 47.001v2h215v-233c46.667 37.333 95.334 56 146.001 56c65.333 0 112.333 -14.167 141 -42.5s43 -76.5 43 -144.5v-336h-145v331c0 40.667 -6 69.5 -18 86.5
s-30.667 25.5 -56 25.5c-44 0 -81 -25 -111 -75z" />
    <glyph glyph-name="i" unicode="i" horiz-adv-x="312" 
d="M235 0h-145v364c0 46 -5.33301 78.667 -16 98c-10 20 -28.333 35.333 -55 46v2h216v-510zM63 626c0 20 8.66699 36.667 26 50s38.666 20 63.999 20s46.833 -6.66699 64.5 -20s26.5 -30 26.5 -50c0 -19.333 -8.83301 -35.833 -26.5 -49.5s-39.167 -20.5 -64.5 -20.5
s-46.666 6.83301 -63.999 20.5s-26 30.167 -26 49.5z" />
    <glyph glyph-name="j" unicode="j" horiz-adv-x="311" 
d="M88 58v306.002c0 45.333 -5.33301 77.666 -16 96.999c-10 20 -27.667 35.667 -53 47v2h214v-429c0 -52.667 -14.333 -99.334 -43 -140.001c-28.667 -42 -81.334 -89.333 -158.001 -142c-9.33301 10.667 -16 19 -20 25c32.667 35.333 53.334 68.333 62.001 99
c9.33301 32 14 77 14 135zM62 626.002c0 20 8.66699 36.667 26 50s38.666 20 63.999 20s46.833 -6.66699 64.5 -20s26.5 -30 26.5 -50c0 -19.333 -8.83301 -35.833 -26.5 -49.5s-39.167 -20.5 -64.5 -20.5s-46.666 6.83301 -63.999 20.5s-26 30.167 -26 49.5z" />
    <glyph glyph-name="k" unicode="k" horiz-adv-x="592" 
d="M231 0l-145 -0.000976562v554c0 44 -5.16699 76.333 -15.5 97s-28.5 36.334 -54.5 47.001v2h215v-419l183 229h122l-169 -196l218 -314h-181l-134 215l-39 -46v-169z" />
    <glyph glyph-name="l" unicode="l" horiz-adv-x="306" 
d="M231 0l-145 -0.000976562v554c0 44 -5.16699 76.333 -15.5 97s-28.5 36.334 -54.5 47.001v2h215v-700z" />
    <glyph glyph-name="m" unicode="m" horiz-adv-x="942" 
d="M553 370c0.666992 -10.667 1.00195 -24.668 1.00195 -42.001v-328h-145v329c0 42 -5.5 71.5 -16.5 88.5s-27.833 25.5 -50.5 25.5c-44 0 -81 -25 -111 -75v-368h-145v364c0 44 -5.16699 76.333 -15.5 97s-28.5 36.334 -54.5 47.001v2h215v-43
c22 16.667 47.5 30.334 76.5 41.001s54.167 15.667 75.5 15c70 0 118.667 -23 146 -69c27.333 22 57.166 39.167 89.499 51.5s61.833 18.166 88.5 17.499c57.333 0 99.666 -14.5 126.999 -43.5s41 -76.833 41 -143.5v-336h-145v331c0 74.667 -23 112 -69 112
c-42 0 -78 -24.333 -108 -73z" />
    <glyph glyph-name="n" unicode="n" horiz-adv-x="631" 
d="M231 368l-0.000976562 -368.001h-145v364c0 44 -5.16699 76.333 -15.5 97s-28.5 36.334 -54.5 47.001v2h215v-43c46.667 37.333 95.334 56 146.001 56c65.333 0 112.333 -14.167 141 -42.5s43 -76.5 43 -144.5v-336h-145v331c0 40.667 -6 69.5 -18 86.5
s-30.667 25.5 -56 25.5c-44 0 -81 -25 -111 -75z" />
    <glyph glyph-name="o" unicode="o" horiz-adv-x="596" 
d="M37 269c0 75.333 22.333 136.334 67 183.001c45.333 47.333 110 71 194 71c83.333 0 147.666 -23.667 192.999 -71s68 -108.333 68 -183c0 -80.667 -21.667 -148.334 -65 -203.001c-43.333 -53.333 -108.666 -80 -195.999 -80c-88 0 -153.667 26.667 -197 80
c-42.667 53.333 -64 121 -64 203zM406 265.001c0 60.667 -9.49902 107 -28.499 139s-45.5 48 -79.5 48s-60.667 -16 -80 -48s-29 -78.333 -29 -139c0 -66 9.33301 -117.167 28 -153.5s45.667 -54.5 81 -54.5s62.166 18.167 80.499 54.5s27.5 87.5 27.5 153.5z" />
    <glyph glyph-name="p" unicode="p" horiz-adv-x="605" 
d="M17 508v2h210v-42c42.667 36.667 90.667 55 144 55c60 0 107 -19.833 141 -59.5s51 -98.5 51 -176.5c0 -90 -27.333 -160.333 -82 -211s-129 -76 -223 -76h-31v-190h-145v554c0 44.667 -4.66699 77.334 -14 98.001c-8.66699 19.333 -25.667 34.666 -51 45.999zM321 444
c-38 0 -69.333 -24.001 -94 -72.001v-297c13.333 -4.66699 28 -7 44 -7c42 0 76 17.333 102 52s39 86.334 39 155.001c0 112.667 -30.333 169 -91 169z" />
    <glyph glyph-name="q" unicode="q" horiz-adv-x="589" 
d="M336 510l246.002 -0.000976562v-2c-26 -10.667 -43.667 -28.667 -53 -54c-8.66699 -24 -13 -66 -13 -126v-518h-145v226c-42.667 -33.333 -87.334 -50 -134.001 -50c-54.667 0 -102 23.333 -142 70s-60 107.334 -60 182.001c0 82.667 28 148.667 84 198
c57.333 49.333 129.666 74 216.999 74zM286.002 63.999c36 0 64.332 20.333 84.999 61v309c-12 5.33301 -28 8 -48 8c-40.667 0 -73.5 -16.5 -98.5 -49.5s-37.5 -82.167 -37.5 -147.5c0 -60 8.83301 -105.167 26.5 -135.5s41.834 -45.5 72.501 -45.5z" />
    <glyph glyph-name="r" unicode="r" horiz-adv-x="465" 
d="M337 422c-44.667 0 -82.667 -19.667 -114 -59v-363h-145v364c0 44.667 -4.66699 77.334 -14 98.001c-8.66699 19.333 -25.667 34.666 -51 45.999v2h210v-49c45.333 41.333 93 62 143 62c28 0 49.333 -3.33301 64 -10l8 -3v-166h-1c-12.667 52 -46 78 -100 78z" />
    <glyph glyph-name="s" unicode="s" horiz-adv-x="485" 
d="M313 117c0 17.333 -7.83496 32.1689 -23.502 44.502s-44.167 25.166 -85.5 38.499c-57.333 17.333 -98.5 39.666 -123.5 66.999s-37.5 62 -37.5 104c0 46 18.5 82.833 55.5 110.5s86.167 41.5 147.5 41.5c36.667 0 80.667 -4 132 -12l23 -4v-162h-2
c-15.333 71.333 -62.333 107 -141 107c-27.333 0 -49 -4.83301 -65 -14.5s-24 -22.5 -24 -38.5c0 -14.667 6.33301 -27.167 19 -37.5s37.334 -21.166 74.001 -32.499c76 -24 126.333 -50 151 -78c25.333 -28.667 38 -63.334 38 -104.001c0 -46 -18.333 -84.333 -55 -115
c-35.333 -30.667 -95 -46 -179 -46c-60.667 0 -115 11.667 -163 35v74c48.667 -26 100 -39 154 -39c32.667 0 58.334 5.33301 77.001 16s28 25.667 28 45z" />
    <glyph glyph-name="t" unicode="t" horiz-adv-x="372" 
d="M237 662l-0.000976562 -152.002h113v-75h-113v-256c0 -39.333 6.33301 -68.166 19 -86.499s33.334 -27.5 62.001 -27.5h33v-65h-48c-74 0 -127.667 15.833 -161 47.5s-50 80.834 -50 147.501v240h-73v75h73v111z" />
    <glyph glyph-name="u" unicode="u" horiz-adv-x="633" 
d="M16 508l0.000976562 1.99902h215v-323c0 -43.333 6 -74.333 18 -93s30.667 -28 56 -28c42 0 77.667 30 107 90v354h145v-510h-145v54c-44 -45.333 -92 -68 -144 -68c-62.667 0 -108.834 15 -138.501 45s-44.167 77.667 -43.5 143v182c0 45.333 -5.33301 79.333 -16 102
s-28.667 39.334 -54 50.001z" />
    <glyph glyph-name="v" unicode="v" horiz-adv-x="595" 
d="M-2 508v2h223l102 -293l19 -62l121 355h102l-191 -514h-106l-188 452c-12.667 32.667 -40 52.667 -82 60z" />
    <glyph glyph-name="w" unicode="w" horiz-adv-x="885" 
d="M449 310l-121.001 -314h-112l-137 447c-12 36 -40 57.667 -84 65v2h218l95 -353c4.66699 16.667 15.334 47.667 32.001 93l56 145l45 115h91l61 -156c35.333 -85.333 61.333 -151.333 78 -198c4.66699 26 18.667 85.333 42 178l44 176h98l-142 -514h-116
c-80 198 -125.333 312.667 -136 344c-0.666992 -1.33301 -4.66699 -11.333 -12 -30z" />
    <glyph glyph-name="x" unicode="x" horiz-adv-x="562" 
d="M501 510l-148 -220l190 -290h-174l-114 182l-120 -182h-115l183 261l-121 187c-12 18.667 -24 32.5 -36 41.5s-27.667 15.167 -47 18.5v2h214l89 -146l91 146h108z" />
    <glyph glyph-name="y" unicode="y" horiz-adv-x="597" 
d="M2 508v2h225l110 -291l22 -61l111 352h101l-252 -700h-100l69 172l-202 465c-14.667 34.667 -42.667 55 -84 61z" />
    <glyph glyph-name="z" unicode="z" horiz-adv-x="504" 
d="M476 510l-254.999 -443h119c38 0 66.5 5.83301 85.5 17.5s32.5 31.167 40.5 58.5h1v-143h-451l258 443h-80c-40 0 -70.333 -7.66699 -91 -23s-34.334 -40.333 -41.001 -75h-2v165h416z" />
    <glyph glyph-name="braceleft" unicode="{" horiz-adv-x="330" 
d="M203 620v-169c0 -36 -10 -64.333 -30 -85s-39.667 -33.667 -59 -39l-11 -3v-2c8.66699 -2 20.334 -6.66699 35.001 -14c43.333 -22.667 65 -59.667 65 -111v-169c0 -60.667 3.66699 -103.667 11 -129c6.66699 -24.667 23.667 -49.667 51 -75
c-10 -12.667 -16.333 -20 -19 -22c-48.667 30 -84.667 62.667 -108 98s-35 84 -35 146v177c0 18 -5.83301 34.5 -17.5 49.5s-24.834 25.5 -39.501 31.5l-19 7v26c2 0.666992 4.66699 1.66699 8 3s9.5 4.5 18.5 9.5s16.833 10.5 23.5 16.5s12.667 14.333 18 25s8 22 8 34v177
c0 62 11.667 110.667 35 146c22.667 36 58.667 69 108 99l19 -23c-27.333 -25.333 -44.333 -50.333 -51 -75c-7.33301 -25.333 -11 -68.333 -11 -129z" />
    <glyph glyph-name="bar" unicode="|" horiz-adv-x="235" 
d="M73 823h91v-961h-91v961z" />
    <glyph glyph-name="braceright" unicode="}" horiz-adv-x="330" 
d="M117 451v169c0 60.667 -3.66699 103.667 -11 129c-6.66699 24.667 -23.667 49.667 -51 75l19 23c49.333 -30 85.333 -63 108 -99c23.333 -35.333 35 -84 35 -146v-177c0 -18 5.83301 -34.5 17.5 -49.5s24.834 -25.5 39.501 -31.5l19 -7v-26
c-2 -0.666992 -4.66699 -1.66699 -8 -3s-9.5 -4.5 -18.5 -9.5s-16.833 -10.5 -23.5 -16.5s-12.667 -14.333 -18 -25s-8 -22 -8 -34v-177c0 -62 -11.667 -110.667 -35 -146s-59.333 -68 -108 -98c-2.66699 2 -9 9.33301 -19 22c27.333 25.333 44.333 50.333 51 75
c7.33301 25.333 11 68.333 11 129v169c0 19.333 3.33301 36.833 10 52.5s15.167 28 25.5 37s19.833 16.167 28.5 21.5s17 9 25 11l11 3v2c-8.66699 2 -20.334 6.66699 -35.001 14c-43.333 25.333 -65 63 -65 113z" />
    <glyph glyph-name="asciitilde" unicode="~" horiz-adv-x="469" 
d="M209 226c-38.667 23.333 -67.333 34.998 -86 34.998c-20.667 0 -50.334 -12 -89.001 -36c-0.666992 26.667 -0.666992 40.334 0 41.001c4 4 9 8.33301 15 13l17 14c18 14 29 22.333 33 25l9.5 5.00098l14 7.5c4.33301 2.33301 7.83301 3.83301 10.5 4.5
c14.667 4 27.667 6 39 6c26.667 0 55.334 -9.66699 86.001 -29c34.667 -22.667 63 -34 85 -34c16.667 0 47 12 91 36v-41l-45 -38c-10 -8.66699 -23.833 -17 -41.5 -25s-34.5 -12 -50.5 -12c-30 0 -59.333 9.33301 -88 28z" />
    <glyph glyph-name="exclamdown" unicode="&#xa1;" horiz-adv-x="283" 
d="M111 325h76l19 -515h-114zM82 453c0 18.667 6.33301 34.334 19 47.001s28.334 19 47.001 19s34.5 -6.33301 47.5 -19s19.5 -28.334 19.5 -47.001c0 -18 -6.5 -33.5 -19.5 -46.5s-28.833 -19.5 -47.5 -19.5s-34.334 6.5 -47.001 19.5s-19 28.5 -19 46.5z" />
    <glyph glyph-name="cent" unicode="&#xa2;" horiz-adv-x="483" 
d="M240 518v75h82v-70c39.333 -0.666992 74.333 -5 105 -13l15 -3v-162h-1c-20 68 -59.667 102 -119 102c-40 0 -71.833 -15.667 -95.5 -47s-35.5 -76.333 -35.5 -135c0 -66.667 12.833 -117.334 38.5 -152.001s61.167 -52 106.5 -52c35.333 0 70 6.33301 104 19v-75
c-38 -11.333 -77.333 -17.666 -118 -18.999v-81h-82v88c-64 13.333 -113.167 44.333 -147.5 93s-51.5 108.667 -51.5 180c0 70.667 17.5 127.667 52.5 171s83.833 70.333 146.5 81z" />
    <glyph glyph-name="sterling" unicode="&#xa3;" horiz-adv-x="580" 
d="M178 344l-91 0.000976562v76h38c-22.667 40.667 -34 81 -34 121c0 105.333 67.333 162.333 202 171c20.667 0.666992 41 0.666992 61 0c44 -0.666992 90.667 -9.33398 140 -26.001v-164h-1c-22 76.667 -75 115 -159 115c-80.667 0 -121 -29.667 -121 -89
c0 -20 4.16699 -39.167 12.5 -57.5s22.833 -41.833 43.5 -70.5h228v-76h-168c8.66699 -13.333 14.667 -24.666 18 -33.999h150v-76h-134c-2.66699 -62.667 -41.334 -118.334 -116.001 -167.001h98c86.667 0 137.667 27.333 153 82h1v-149h-436
c46.667 38.667 77.334 65 92.001 79c22 20.667 41 44.167 57 70.5s24 50.833 24 73.5c0 5.33301 -0.333008 9 -1 11h-148v76h114c-2 4 -9.66699 15.333 -23 34z" />
    <glyph glyph-name="currency" unicode="&#xa4;" horiz-adv-x="523" 
d="M444 570l48.999 -49l-51 -51c29.333 -41.333 44 -85.666 44 -132.999c0 -46.667 -14.333 -90.667 -43 -132l50 -50l-49 -49l-52 50c-40 -28.667 -83.833 -43 -131.5 -43s-91.5 14.667 -131.5 44l-51 -52l-50 49l51 53c-28 39.333 -42 82.666 -42 129.999
c0 50 14.333 93.667 43 131l-52 54l49 48l52 -51c41.333 28.667 85.333 43 132 43c48.667 0 92.334 -14.333 131.001 -43zM113.999 337c0 -38.667 14.668 -73.334 44.001 -104.001c29.333 -29.333 63.666 -44 102.999 -44c40 0 74.667 14.667 104 44c30 30 45 64.667 45 104
c0 40.667 -15 75.334 -45 104.001c-28.667 30 -63.334 45 -104.001 45c-39.333 0 -73.666 -15 -102.999 -45c-29.333 -29.333 -44 -64 -44 -104z" />
    <glyph glyph-name="yen" unicode="&#xa5;" horiz-adv-x="674" 
d="M299 280h-136v74h112l-122 203c-35.333 52.667 -61.333 87.667 -78 105c-17.333 17.333 -39 29.333 -65 36v2h228l155 -281l142 281h103l-176 -317c-2 -2 -6.33301 -11.667 -13 -29h116v-74h-121v-30h121v-74h-121v-176h-145v176h-136v74h136v30z" />
    <glyph glyph-name="brokenbar" unicode="&#xa6;" horiz-adv-x="209" 
d="M139 417h-69v406h69v-406zM70 279h69v-417h-69v417z" />
    <glyph glyph-name="section" unicode="&#xa7;" horiz-adv-x="519" 
d="M237 421c-22 6.66699 -37.001 11.998 -45.001 15.998c-17.333 -7.33301 -28.666 -20 -33.999 -38c-2 -10 -2.66699 -17.333 -2 -22c1.33301 -19.333 8.33301 -35.166 21 -47.499s33.667 -23.5 63 -33.5l29 -10c22 -8 41 -15.333 57 -22
c16.667 8.66699 25 25.334 25 50.001c0 25.333 -8.5 46.5 -25.5 63.5s-46.5 31.5 -88.5 43.5zM321.999 105.998c0 12.667 -6.50098 23.998 -19.501 33.998s-35.833 21 -68.5 33c-74 26 -124.333 51.333 -151 76s-40 60.334 -40 107.001c0 26 7.16699 49.833 21.5 71.5
s34.166 38.834 59.499 51.501c-29.333 25.333 -44 59 -44 101c0 39.333 16.167 71.5 48.5 96.5s77.5 37.5 135.5 37.5c38 0 80.333 -4 127 -12l22 -4v-149h-1c-16.667 64.667 -62 97 -136 97c-26.667 0 -47.5 -4.5 -62.5 -13.5s-22.5 -21.167 -22.5 -36.5
c0 -13.333 5.66699 -24 17 -32c10.667 -8 35.667 -18 75 -30c74.667 -23.333 125.334 -50.666 152.001 -81.999c27.333 -32.667 41 -69 41 -109c0 -52.667 -25 -93.334 -75 -122.001c32 -26 48 -57.667 48 -95c0 -44.667 -17.333 -79 -52 -103s-85.667 -36 -153 -36
c-54 0 -103.333 11.333 -148 34v89c50.667 -36.667 97.334 -55 140.001 -55c57.333 0 86 17 86 51z" />
    <glyph glyph-name="dieresis" unicode="&#xa8;" horiz-adv-x="391" 
d="M39 640c0 18 6.33301 33.5 19 46.5s28.334 19.5 47.001 19.5s34.5 -6.5 47.5 -19.5s19.5 -28.5 19.5 -46.5c0 -18.667 -6.5 -34.334 -19.5 -47.001s-28.833 -19 -47.5 -19s-34.334 6.33301 -47.001 19s-19 28.334 -19 47.001zM218 640c0 18 6.33301 33.499 19 46.499
s28.334 19.5 47.001 19.5c18 0 33.667 -6.5 47 -19.5s20 -28.5 20 -46.5s-6.66699 -33.5 -20 -46.5s-29 -19.5 -47 -19.5c-18.667 0 -34.334 6.33301 -47.001 19s-19 28.334 -19 47.001z" />
    <glyph glyph-name="copyright" unicode="&#xa9;" horiz-adv-x="801" 
d="M552 515l-0.000976562 -123.998c-16 36.667 -33.667 62.167 -53 76.5s-46 21.5 -80 21.5c-32.667 0 -60.334 -12.833 -83.001 -38.5s-34 -59.834 -34 -102.501c0 -47.333 12.5 -84 37.5 -110s56.833 -39 95.5 -39c48.667 0 88.334 12 119.001 36v-73
c-32.667 -28.667 -78.667 -43 -138 -43c-66 0 -121.333 22.333 -166 67s-67 98 -67 160c0 65.333 22.667 118.666 68 159.999c46.667 41.333 99.334 62 158.001 62c57.333 0 105 -17.667 143 -53zM403.999 57.002c78 0 144.667 27.667 200 83
c55.333 56.667 83 123.667 83 201c0 78 -27.667 144.667 -83 200s-122 83 -200 83c-78.667 0 -145.667 -27.667 -201 -83s-83 -122 -83 -200c0 -77.333 27.667 -144.333 83 -201c55.333 -55.333 122.333 -83 201 -83zM47.999 341.002c0 98 34.667 181.667 104 251
s153.333 104 252 104c98 0 181.667 -34.667 251 -104s104 -153 104 -251c0 -97.333 -34.667 -181.333 -104 -252c-69.333 -69.333 -153 -104 -251 -104c-98.667 0 -182.667 34.667 -252 104c-69.333 70.667 -104 154.667 -104 252z" />
    <glyph glyph-name="ordfeminine" unicode="&#xaa;" horiz-adv-x="353" 
d="M169 434c17.333 0 34.333 8.33203 51 24.999v98c-59.333 -11.333 -89 -35.666 -89 -72.999c0 -33.333 12.667 -50 38 -50zM162 667.999c-18.667 0 -35.6709 -5.5 -51.0039 -16.5s-25.666 -26.167 -30.999 -45.5h-1v95c41.333 8.66699 76.333 13 105 13
c44 0 76.167 -9.83301 96.5 -29.5s30.5 -51.167 30.5 -94.5v-191h-91v22c-27.333 -20 -55 -30 -83 -30c-29.333 0 -52.166 8 -68.499 24s-24.5 37 -24.5 63c-3.33301 32.667 17 61 61 85c10 5.33301 23 10 39 14c16.667 4.66699 29.334 7.66699 38.001 9
c2.66699 0.666992 15.334 3 38.001 7v12c0 42 -19.333 63 -58 63z" />
    <glyph glyph-name="guillemotleft" unicode="&#xab;" horiz-adv-x="517" 
d="M117 76h-65l110 345h116zM301 76h-66l110 345h117z" />
    <glyph glyph-name="logicalnot" unicode="&#xac;" horiz-adv-x="462" 
d="M24 311h410v-156h-64v82h-346v74z" />
    <glyph glyph-name="uni00AD" unicode="&#xad;" horiz-adv-x="558" 
d="M460 262h-376v75h376v-75z" />
    <glyph glyph-name="registered" unicode="&#xae;" horiz-adv-x="461" 
d="M232 352c43.333 0 80.332 15.335 110.999 46.002c31.333 31.333 47 69 47 113c0 43.333 -15.667 80.666 -47 111.999s-68.333 47 -111 47c-44 0 -81.667 -15.667 -113 -47c-30.667 -30.667 -46 -68 -46 -112c0 -44.667 15.333 -82.334 46 -113.001
s68.334 -46 113.001 -46zM33.999 511.002c0 54.667 19.333 101 58 139c38.667 38.667 85.334 58 140.001 58c53.333 0 99 -19.333 137 -58c38.667 -38 58 -84.333 58 -139c0 -54 -19.333 -100.333 -58 -139c-38 -38.667 -83.667 -58 -137 -58
c-54.667 0 -101.334 19.333 -140.001 58s-58 85 -58 139zM205.999 401.002l-49.001 0.000976562v163c0 18 -2 31.167 -6 39.5s-11.333 15.166 -22 20.499h92c61.333 0 92 -21 92 -63c0 -30 -15 -49.667 -45 -59c10.667 -2 18.667 -5.83301 24 -11.5s11.333 -16.167 18 -31.5
l21 -58h-53l-17 58c-7.33301 22 -21.666 33 -42.999 33h-12v-91zM205.998 597.003v-79c4.66699 -2 10 -3 16 -3c28 0 42 15 42 45c0 26 -13.667 39 -41 39c-7.33301 0 -13 -0.666992 -17 -2z" />
    <glyph glyph-name="overscore" unicode="&#xaf;" horiz-adv-x="354" 
d="M313 581h-274v51h274v-51z" />
    <glyph glyph-name="degree" unicode="&#xb0;" horiz-adv-x="312" 
d="M76 567c0 -22 7.83301 -40.833 23.5 -56.5s34.167 -23.5 55.5 -23.5c22 0 40.833 7.83301 56.5 23.5s23.5 34.5 23.5 56.5c0 21.333 -7.83301 40 -23.5 56s-34.5 24 -56.5 24c-21.333 0 -39.833 -8 -55.5 -24s-23.5 -34.667 -23.5 -56zM155 706
c38 0 70.6689 -13.667 98.002 -41s41 -60 41 -98c0 -38.667 -13.667 -71.667 -41 -99c-26.667 -26.667 -59.334 -40 -98.001 -40s-71.334 13.333 -98.001 40c-27.333 27.333 -41 60.333 -41 99c0 38 13.667 70.667 41 98s60 41 98 41z" />
    <glyph glyph-name="plusminus" unicode="&#xb1;" horiz-adv-x="618" 
d="M268 372h-183v79h183v182h79v-182h182v-79h-182v-183h-79v183zM529 50h-444v79h444v-79z" />
    <glyph glyph-name="twosuperior" unicode="&#xb2;" 
d="M363 284l-296.003 0.00195312v36l101 108c36.667 43.333 60.334 75.666 71.001 96.999c12.667 22.667 19 47 19 73c0 44.667 -23 67 -69 67c-37.333 0 -71.333 -14.333 -102 -43h-1v64c39.333 18.667 79.333 28 120 28c106.667 0 160 -36.667 160 -110
c0 -32.667 -12.667 -65.334 -38 -98.001c-26 -32.667 -78.333 -83.667 -157 -153h107c26.667 0 45.834 2.5 57.501 7.5s19.834 14.5 24.501 28.5h3v-105z" />
    <glyph glyph-name="threesuperior" unicode="&#xb3;" 
d="M185 666c-35.333 0 -68.667 -14.667 -100 -44h-2v64c40 18.667 80.333 28 121 28c98 0 147 -33.667 147 -101c0 -22.667 -8.5 -42.5 -25.5 -59.5s-39.167 -28.167 -66.5 -33.5l-9 -2h10c36 -1.33301 64.833 -10.833 86.5 -28.5s32.5 -40.5 32.5 -68.5
c0 -91.333 -83.667 -137 -251 -137h-48v42h48c102 0 153 31.667 153 95c0 26 -10 44 -30 54s-52.667 15 -98 15v41h14c58.667 0 88 24.333 88 73c0 19.333 -6.33301 34.5 -19 45.5s-29.667 16.5 -51 16.5z" />
    <glyph glyph-name="acute" unicode="&#xb4;" horiz-adv-x="283" 
d="M119 575h-81l93 143h109z" />
    <glyph glyph-name="_181" unicode="&#xb5;" horiz-adv-x="692" 
d="M611 0l-145.002 -0.000976562v68c-29.333 -51.333 -71.666 -77 -126.999 -77c-42 0 -77 11 -105 33v-214h-145v546c0 45.333 -5.33301 79.333 -16 102s-28.667 39.334 -54 50.001v2h215v-263c0 -61.333 10.167 -108 30.5 -140s49.5 -48 87.5 -48
c28 0 51.833 12.5 71.5 37.5s33.834 59.5 42.501 103.5v310h145v-510z" />
    <glyph glyph-name="paragraph" unicode="&#xb6;" horiz-adv-x="703" 
d="M231 700h392v-700h-148v625h-123v-625h-148v388c-51.333 0 -92.333 14.333 -123 43s-46 68 -46 118c0 46 18 82.667 54 110s83.333 41 142 41z" />
    <glyph glyph-name="middot" unicode="&#xb7;" horiz-adv-x="199" 
d="M52 235c-12 12.667 -18 28 -18 46s6 33 18 45c12.667 12.667 28 19 46 19s33.333 -6.33301 46 -19c13.333 -12 20 -27 20 -45s-6.66699 -33.333 -20 -46c-12.667 -12 -28 -18 -46 -18s-33.333 6 -46 18z" />
    <glyph glyph-name="cedilla" unicode="&#xb8;" horiz-adv-x="187" 
d="M40 4h54v-38c44 0 66 -19 66 -57c0 -18 -8.33301 -35.333 -25 -52c-16 -18 -32.333 -31.333 -49 -40l-24 -13l-17 22c28 21.333 42 44 42 68c0 22 -15.667 33 -47 33v77z" />
    <glyph glyph-name="onesuperior" unicode="&#xb9;" 
d="M93 626l180 89v-427h-91v279c0 24.667 -3.16699 41.167 -9.5 49.5s-18.5 12.5 -36.5 12.5c-10 0 -24.333 -2.33301 -43 -7v4z" />
    <glyph glyph-name="ordmasculine" unicode="&#xba;" 
d="M218 275c-60 0 -104.333 22 -133 66c-28 44.667 -42 101.667 -42 171c0 63.333 15 112.833 45 148.5s73.333 53.5 130 53.5c57.333 0 101 -17.833 131 -53.5s45 -85.167 45 -148.5c0 -69.333 -14.333 -126.333 -43 -171c-28 -44 -72.333 -66 -133 -66zM149 508
c0 -49.333 4 -90 12 -122c9.33301 -37.333 28.333 -56 57 -56s47.667 18.667 57 56c8 32 12 72.667 12 122c0 100 -23 150 -69 150s-69 -50 -69 -150z" />
    <glyph glyph-name="guillemotright" unicode="&#xbb;" horiz-adv-x="517" 
d="M382 456h65l-110 -345h-116zM198 456h66l-110 -345h-117z" />
    <glyph glyph-name="onequarter" unicode="&#xbc;" horiz-adv-x="906" 
d="M93 626l180 89v-427h-91v279c0 24.667 -3.16699 41.167 -9.5 49.5s-18.5 12.5 -36.5 12.5c-10 0 -24.333 -2.33301 -43 -7v4zM488 710h60l-205 -710h-60zM825 189v-48h-52v-141h-95v141h-193v36l191 244h97v-232h52zM678 347l-121 -158h121v158z" />
    <glyph glyph-name="onehalf" unicode="&#xbd;" horiz-adv-x="906" 
d="M463 710h60l-205 -710h-60zM84 626l180 89v-427h-91v279c0 24.667 -3.16699 41.167 -9.5 49.5s-18.5 12.5 -36.5 12.5c-10 0 -24.333 -2.33301 -43 -7v4zM785 0l-296.003 0.00195312v36l101 108c36.667 43.333 60.334 75.666 71.001 96.999c12.667 22.667 19 47 19 73
c0 44.667 -23 67 -69 67c-37.333 0 -71.333 -14.333 -102 -43h-1v64c39.333 18.667 79.333 28 120 28c106.667 0 160 -36.667 160 -110c0 -32.667 -12.667 -65.334 -38 -98.001c-26 -32.667 -78.333 -83.667 -157 -153h107c26.667 0 45.834 2.5 57.501 7.5
s19.834 14.5 24.501 28.5h3v-105z" />
    <glyph glyph-name="threequarters" unicode="&#xbe;" horiz-adv-x="906" 
d="M185 666c-35.333 0 -68.667 -14.667 -100 -44h-2v64c40 18.667 80.333 28 121 28c98 0 147 -33.667 147 -101c0 -22.667 -8.5 -42.5 -25.5 -59.5s-39.167 -28.167 -66.5 -33.5l-9 -2h10c36 -1.33301 64.833 -10.833 86.5 -28.5s32.5 -40.5 32.5 -68.5
c0 -91.333 -83.667 -137 -251 -137h-48v42h48c102 0 153 31.667 153 95c0 26 -10 44 -30 54s-52.667 15 -98 15v41h14c58.667 0 88 24.333 88 73c0 19.333 -6.33301 34.5 -19 45.5s-29.667 16.5 -51 16.5zM530.999 710h60l-205 -710h-60zM849.999 189v-48h-52v-141h-95v141
h-193v36l191 244h97v-232h52zM702.999 347l-121 -158h121v158z" />
    <glyph glyph-name="questiondown" unicode="&#xbf;" horiz-adv-x="494" 
d="M353 454c0 -18 -6.33301 -33.499 -19 -46.499s-28.334 -19.5 -47.001 -19.5c-18 0 -33.667 6.5 -47 19.5s-20 28.5 -20 46.5s6.66699 33.5 20 46.5s29 19.5 47 19.5c18.667 0 34.334 -6.33301 47.001 -19s19 -28.334 19 -47.001zM251 281.001v44.999h77v-55
c0 -32 -5 -59.5 -15 -82.5s-26.667 -46.833 -50 -71.5c-35.333 -40.667 -57 -69.334 -65 -86.001c-8.66699 -18 -13 -37.333 -13 -58c0 -35.333 10.5 -63.5 31.5 -84.5s47.5 -31.5 79.5 -31.5c54.667 0 106.667 22.333 156 67h2v-85c-58 -28 -118.667 -42 -182 -42
c-66.667 0 -119.5 12 -158.5 36s-61.833 59 -68.5 105c-2 14.667 -2.33301 29.334 -1 44.001c4 20.667 9.33301 37.334 16 50.001c10 18.667 20 33 30 43c17.333 18 31 31 41 39l22 18l24 19l25 19c32.667 24 49 61 49 111z" />
    <glyph glyph-name="Agrave" unicode="&#xc0;" horiz-adv-x="668" 
d="M164 700l211 0.000976562l270 -700h-162l-73 199h-228l-68 -199h-101l198 546c10.667 30 16 54.333 16 73c0 35.333 -21 61.666 -63 78.999v2zM382 274.001l-89 260h-1l-85 -260h175zM207 908.001h109l93 -143h-81z" />
    <glyph glyph-name="Aacute" unicode="&#xc1;" horiz-adv-x="668" 
d="M164 700l211 0.000976562l270 -700h-162l-73 199h-228l-68 -199h-101l198 546c10.667 30 16 54.333 16 73c0 35.333 -21 61.666 -63 78.999v2zM382 274.001l-89 260h-1l-85 -260h175zM299 765.001h-81l93 143h109z" />
    <glyph glyph-name="Acircumflex" unicode="&#xc2;" horiz-adv-x="668" 
d="M164 700l211 0.000976562l270 -700h-162l-73 199h-228l-68 -199h-101l198 546c10.667 30 16 54.333 16 73c0 35.333 -21 61.666 -63 78.999v2zM382 274.001l-89 260h-1l-85 -260h175zM227 765.001h-80l105 143h114l104 -143h-80l-81 84z" />
    <glyph glyph-name="Atilde" unicode="&#xc3;" horiz-adv-x="668" 
d="M164 700l211 0.000976562l270 -700h-162l-73 199h-228l-68 -199h-101l198 546c10.667 30 16 54.333 16 73c0 35.333 -21 61.666 -63 78.999v2zM382 274.001l-89 260h-1l-85 -260h175zM279 788.001c-36.667 21.333 -65.335 32 -86.002 32c-22 0 -51.667 -11 -89 -33
c-1.33301 24 -1.33301 36.667 0 38c42.667 33.333 72.334 53 89.001 59c15.333 6.66699 31.333 10 48 10c26.667 0 55.334 -8.66699 86.001 -26c35.333 -20.667 64 -31 86 -31c20.667 0 51 11 91 33v-38l-45 -36c-32 -22 -63 -33 -93 -33c-29.333 0 -58.333 8.33301 -87 25z
" />
    <glyph glyph-name="Adieresis" unicode="&#xc4;" horiz-adv-x="668" 
d="M164 700l211 0.000976562l270 -700h-162l-73 199h-228l-68 -199h-101l198 546c10.667 30 16 54.333 16 73c0 35.333 -21 61.666 -63 78.999v2zM382 274.001l-89 260h-1l-85 -260h175zM156 830.001c0 18 6.33301 33.5 19 46.5s28.334 19.5 47.001 19.5
s34.5 -6.5 47.5 -19.5s19.5 -28.5 19.5 -46.5c0 -18.667 -6.5 -34.334 -19.5 -47.001s-28.833 -19 -47.5 -19s-34.334 6.33301 -47.001 19s-19 28.334 -19 47.001zM335 830.001c0 18 6.33301 33.499 19 46.499s28.334 19.5 47.001 19.5c18 0 33.667 -6.5 47 -19.5
s20 -28.5 20 -46.5s-6.66699 -33.5 -20 -46.5s-29 -19.5 -47 -19.5c-18.667 0 -34.334 6.33301 -47.001 19s-19 28.334 -19 47.001z" />
    <glyph glyph-name="Aring" unicode="&#xc5;" horiz-adv-x="668" 
d="M164 700l211 0.000976562l270 -700h-162l-73 199h-228l-68 -199h-101l198 546c10.667 30 16 54.333 16 73c0 35.333 -21 61.666 -63 78.999v2zM382 274.001l-89 260h-1l-85 -260h175zM261 837.001c0 -10.667 3.83301 -20 11.5 -28s16.834 -12 27.501 -12
s20 3.83301 28 11.5s12 17.167 12 28.5c0 10 -4 19 -12 27s-17.333 12 -28 12s-19.834 -4 -27.501 -12s-11.5 -17 -11.5 -27zM205 837.001c0 26 9.33301 48.167 28 66.5s41 27.5 67 27.5c26.667 0 49 -9.16699 67 -27.5s27 -40.5 27 -66.5c0 -26.667 -9 -49.334 -27 -68.001
s-40.333 -28 -67 -28c-26 0 -48.333 9.33301 -67 28s-28 41.334 -28 68.001z" />
    <glyph glyph-name="AE" unicode="&#xc6;" horiz-adv-x="922" 
d="M598 303h194v-75h-194v-154h128c48.667 0 84.167 6 106.5 18s37.5 33.333 45.5 64h2l-1 -156h-426v228h-186l-135 -228h-104l338 553c14 22 21 44.333 21 67c0 34.667 -20 60.667 -60 78v2h532v-168h-1c-8.66699 34 -23.5 58.167 -44.5 72.5s-51.833 21.5 -92.5 21.5
h-123v-323zM453 542h-1l-140 -239h141v239z" />
    <glyph glyph-name="Ccedilla" unicode="&#xc7;" horiz-adv-x="615" 
d="M426 62c54.667 0 103 7.00293 145 21.0029v-69c-38 -16.667 -86.333 -26 -145 -28c-4.66699 -0.666992 -18.667 -0.333984 -42 0.999023c-106.667 4 -188 42 -244 114s-84 164.667 -84 278c0 90 25 165.667 75 227c51.333 61.333 123 96 215 104
c34 2 61.333 2.66699 82 2c49.333 -0.666992 94 -9.33398 134 -26.001v-164h-1c-22 76.667 -76.333 115 -163 115c-58.667 0 -104 -22.333 -136 -67s-48 -110.334 -48 -197.001c0 -102 19 -179.333 57 -232s89.667 -79 155 -79zM324 4.00293h54v-38c44 0 66 -19 66 -57
c0 -18 -8.33301 -35.333 -25 -52c-16 -18 -32.333 -31.333 -49 -40l-24 -13l-17 22c28 21.333 42 44 42 68c0 22 -15.667 33 -47 33v77z" />
    <glyph glyph-name="Egrave" unicode="&#xc8;" horiz-adv-x="569" 
d="M243 409l213 -0.000976562v-75h-213v-260h133c48.667 0 84.334 6 107.001 18s38 33.333 46 64h1v-156h-432v510c0 60.667 -6.33301 103.667 -19 129c-13.333 26.667 -36.666 46.334 -69.999 59.001v2h505v-168h-2c-8.66699 34 -23.334 58.167 -44.001 72.5
s-51.334 21.5 -92.001 21.5h-133v-217zM177 907.999h109l93 -143h-81z" />
    <glyph glyph-name="Eacute" unicode="&#xc9;" horiz-adv-x="569" 
d="M243 409l213 -0.000976562v-75h-213v-260h133c48.667 0 84.334 6 107.001 18s38 33.333 46 64h1v-156h-432v510c0 60.667 -6.33301 103.667 -19 129c-13.333 26.667 -36.666 46.334 -69.999 59.001v2h505v-168h-2c-8.66699 34 -23.334 58.167 -44.001 72.5
s-51.334 21.5 -92.001 21.5h-133v-217zM264 764.999h-81l93 143h109z" />
    <glyph glyph-name="Ecircumflex" unicode="&#xca;" horiz-adv-x="569" 
d="M243 409l213 -0.000976562v-75h-213v-260h133c48.667 0 84.334 6 107.001 18s38 33.333 46 64h1v-156h-432v510c0 60.667 -6.33301 103.667 -19 129c-13.333 26.667 -36.666 46.334 -69.999 59.001v2h505v-168h-2c-8.66699 34 -23.334 58.167 -44.001 72.5
s-51.334 21.5 -92.001 21.5h-133v-217zM213 764.999h-80l105 143h114l104 -143h-80l-81 84z" />
    <glyph glyph-name="Edieresis" unicode="&#xcb;" horiz-adv-x="569" 
d="M243 409l213 -0.000976562v-75h-213v-260h133c48.667 0 84.334 6 107.001 18s38 33.333 46 64h1v-156h-432v510c0 60.667 -6.33301 103.667 -19 129c-13.333 26.667 -36.666 46.334 -69.999 59.001v2h505v-168h-2c-8.66699 34 -23.334 58.167 -44.001 72.5
s-51.334 21.5 -92.001 21.5h-133v-217zM132 829.999c0 18 6.33301 33.5 19 46.5s28.334 19.5 47.001 19.5s34.5 -6.5 47.5 -19.5s19.5 -28.5 19.5 -46.5c0 -18.667 -6.5 -34.334 -19.5 -47.001s-28.833 -19 -47.5 -19s-34.334 6.33301 -47.001 19s-19 28.334 -19 47.001z
M311 829.999c0 18 6.33301 33.499 19 46.499s28.334 19.5 47.001 19.5c18 0 33.667 -6.5 47 -19.5s20 -28.5 20 -46.5s-6.66699 -33.5 -20 -46.5s-29 -19.5 -47 -19.5c-18.667 0 -34.334 6.33301 -47.001 19s-19 28.334 -19 47.001z" />
    <glyph glyph-name="Igrave" unicode="&#xcc;" horiz-adv-x="326" 
d="M243 0l-145.001 -0.000976562v510c0 60.667 -6.33301 103.667 -19 129c-13.333 26.667 -36.666 46.334 -69.999 59.001v2h234v-700zM31.999 907.999h109l93 -143h-81z" />
    <glyph glyph-name="Iacute" unicode="&#xcd;" horiz-adv-x="326" 
d="M243 0l-145.001 -0.000976562v510c0 60.667 -6.33301 103.667 -19 129c-13.333 26.667 -36.666 46.334 -69.999 59.001v2h234v-700zM137.999 764.999h-81l93 143h109z" />
    <glyph glyph-name="Icircumflex" unicode="&#xce;" horiz-adv-x="326" 
d="M243 0l-145.001 -0.000976562v510c0 60.667 -6.33301 103.667 -19 129c-13.333 26.667 -36.666 46.334 -69.999 59.001v2h234v-700zM75.999 764.999h-80l105 143h114l104 -143h-80l-81 84z" />
    <glyph glyph-name="Idieresis" unicode="&#xcf;" horiz-adv-x="326" 
d="M243 0l-145.001 -0.000976562v510c0 60.667 -6.33301 103.667 -19 129c-13.333 26.667 -36.666 46.334 -69.999 59.001v2h234v-700zM0.999023 829.999c0 18 6.33301 33.5 19 46.5s28.334 19.5 47.001 19.5s34.5 -6.5 47.5 -19.5s19.5 -28.5 19.5 -46.5
c0 -18.667 -6.5 -34.334 -19.5 -47.001s-28.833 -19 -47.5 -19s-34.334 6.33301 -47.001 19s-19 28.334 -19 47.001zM179.999 829.999c0 18 6.33301 33.499 19 46.499s28.334 19.5 47.001 19.5c18 0 33.667 -6.5 47 -19.5s20 -28.5 20 -46.5s-6.66699 -33.5 -20 -46.5
s-29 -19.5 -47 -19.5c-18.667 0 -34.334 6.33301 -47.001 19s-19 28.334 -19 47.001z" />
    <glyph glyph-name="Eth" unicode="&#xd0;" horiz-adv-x="706" 
d="M329 623c-38 0 -66.667 -2.33301 -86 -7v-214h139v-55h-139v-259c22 -8 47.667 -12 77 -12c58 0 104.167 26.5 138.5 79.5s51.5 125.5 51.5 217.5c0 82 -16.167 144.167 -48.5 186.5s-76.5 63.5 -132.5 63.5zM98 0l-0.000976562 347h-73v55h73v90
c0 68 -6 115.667 -18 143c-12 28 -35.667 49 -71 63v2h298c2.66699 0 19.334 -0.666992 50.001 -2c99.333 -4.66699 176.333 -37 231 -97c54 -59.333 81 -133.333 81 -222c0 -106 -28.333 -193.667 -85 -263c-57.333 -70 -139.333 -108 -246 -114
c-36 -1.33301 -56 -2 -60 -2h-180z" />
    <glyph glyph-name="Ntilde" unicode="&#xd1;" horiz-adv-x="754" 
d="M189 0l-91.001 -0.000976562v510c0 60.667 -6.33301 103.667 -19 129c-13.333 26.667 -36.666 46.334 -69.999 59.001v2h239l331 -510h2v510h91v-700h-131l-351 536h-1v-536zM349.999 787.999c-36.667 21.333 -65.334 32 -86.001 32c-22.667 0 -52.334 -11 -89.001 -33
c-1.33301 24 -1.33301 36.667 0 38c42.667 33.333 72.334 53 89.001 59c15.333 6.66699 31.333 10 48 10c26.667 0 55.334 -8.66699 86.001 -26c35.333 -20.667 64 -31 86 -31c20 0 50.333 11 91 33v-38l-45 -36c-32 -22 -63 -33 -93 -33c-30.667 0 -59.667 8.33301 -87 25z
" />
    <glyph glyph-name="Ograve" unicode="&#xd2;" horiz-adv-x="752" 
d="M376 -15c-108 0 -189.667 39 -245 117c-50 74.667 -75 165 -75 271c0 94.667 27.667 175.167 83 241.5s134.333 99.5 237 99.5s181.667 -33.167 237 -99.5s83 -146.833 83 -241.5c0 -154 -46.333 -265 -139 -333c-48.667 -36.667 -109 -55 -181 -55zM537 371
c0 84.667 -14.332 150.168 -42.999 196.501s-68 69.5 -118 69.5c-50.667 0 -90.334 -23 -119.001 -69s-43 -111.667 -43 -197c0 -92.667 14 -167.334 42 -224.001c28.667 -56.667 68.667 -85 120 -85s91 28.333 119 85c28 57.333 42 132 42 224zM264.001 908.001h109
l93 -143h-81z" />
    <glyph glyph-name="Oacute" unicode="&#xd3;" horiz-adv-x="752" 
d="M376 -15c-108 0 -189.667 38.999 -245 116.999c-50 74.667 -75 165 -75 271c0 94.667 27.667 175.167 83 241.5s134.333 99.5 237 99.5s181.667 -33.167 237 -99.5s83 -146.833 83 -241.5c0 -71.333 -11 -135.666 -33 -192.999c-20.667 -55.333 -56 -102 -106 -140
c-48.667 -36.667 -109 -55 -181 -55zM537 370.999c0 84.667 -14.332 150.168 -42.999 196.501s-68 69.5 -118 69.5c-50.667 0 -90.334 -23 -119.001 -69s-43 -111.667 -43 -197c0 -92.667 14 -167.334 42 -224.001c28.667 -56.667 68.667 -85 120 -85s91 28.333 119 85
c28 57.333 42 132 42 224zM361.001 765h-81l93 143h109z" />
    <glyph glyph-name="Ocircumflex" unicode="&#xd4;" horiz-adv-x="752" 
d="M376 -15c-108 0 -189.667 39 -245 117c-50 74.667 -75 165 -75 271c0 94.667 27.667 175.167 83 241.5s134.333 99.5 237 99.5s181.667 -33.167 237 -99.5s83 -146.833 83 -241.5c0 -154 -46.333 -265 -139 -333c-48.667 -36.667 -109 -55 -181 -55zM537 371
c0 84.667 -14.332 150.168 -42.999 196.501s-68 69.5 -118 69.5c-50.667 0 -90.334 -23 -119.001 -69s-43 -111.667 -43 -197c0 -92.667 14 -167.334 42 -224.001c28.667 -56.667 68.667 -85 120 -85s91 28.333 119 85c28 57.333 42 132 42 224zM299.001 765.001h-80
l105 143h114l104 -143h-80l-81 84z" />
    <glyph glyph-name="Otilde" unicode="&#xd5;" horiz-adv-x="752" 
d="M376 -15c-108 0 -189.667 39 -245 117c-50 74.667 -75 165 -75 271c0 94.667 27.667 175.167 83 241.5s134.333 99.5 237 99.5s181.667 -33.167 237 -99.5s83 -146.833 83 -241.5c0 -154 -46.333 -265 -139 -333c-48.667 -36.667 -109 -55 -181 -55zM537 371
c0 84.667 -14.332 150.168 -42.999 196.501s-68 69.5 -118 69.5c-50.667 0 -90.334 -23 -119.001 -69s-43 -111.667 -43 -197c0 -92.667 14 -167.334 42 -224.001c28.667 -56.667 68.667 -85 120 -85s91 28.333 119 85c28 57.333 42 132 42 224zM350.001 788.001
c-36.667 21.333 -65.334 32 -86.001 32c-22.667 0 -52.334 -11 -89.001 -33c-1.33301 24 -1.33301 36.667 0 38c42.667 33.333 72.334 53 89.001 59c15.333 6.66699 31.333 10 48 10c26.667 0 55.334 -8.66699 86.001 -26c35.333 -20.667 64 -31 86 -31
c20 0 50.333 11 91 33v-38l-45 -36c-32 -22 -63 -33 -93 -33c-30.667 0 -59.667 8.33301 -87 25z" />
    <glyph glyph-name="Odieresis" unicode="&#xd6;" horiz-adv-x="752" 
d="M376 -15c-108 0 -189.667 39 -245 117c-50 74.667 -75 165 -75 271c0 94.667 27.667 175.167 83 241.5s134.333 99.5 237 99.5s181.667 -33.167 237 -99.5s83 -146.833 83 -241.5c0 -154 -46.333 -265 -139 -333c-48.667 -36.667 -109 -55 -181 -55zM537 371
c0 84.667 -14.332 150.168 -42.999 196.501s-68 69.5 -118 69.5c-50.667 0 -90.334 -23 -119.001 -69s-43 -111.667 -43 -197c0 -92.667 14 -167.334 42 -224.001c28.667 -56.667 68.667 -85 120 -85s91 28.333 119 85c28 57.333 42 132 42 224zM227.001 830.001
c0 18 6.33301 33.5 19 46.5s28.334 19.5 47.001 19.5s34.5 -6.5 47.5 -19.5s19.5 -28.5 19.5 -46.5c0 -18.667 -6.5 -34.334 -19.5 -47.001s-28.833 -19 -47.5 -19s-34.334 6.33301 -47.001 19s-19 28.334 -19 47.001zM406.001 830.001c0 18 6.33301 33.499 19 46.499
s28.334 19.5 47.001 19.5c18 0 33.667 -6.5 47 -19.5s20 -28.5 20 -46.5s-6.66699 -33.5 -20 -46.5s-29 -19.5 -47 -19.5c-18.667 0 -34.334 6.33301 -47.001 19s-19 28.334 -19 47.001z" />
    <glyph glyph-name="multiply" unicode="&#xd7;" horiz-adv-x="618" 
d="M312 263l-151 -151l-56 56l151 150l-151 152l56 56l151 -152l151 152l56 -56l-151 -152l151 -150l-56 -56z" />
    <glyph glyph-name="Oslash" unicode="&#xd8;" horiz-adv-x="752" 
d="M376 -15c-46.667 0 -89.332 8 -127.999 24l-38 -88h-60l50 113c-96 61.333 -144 176.333 -144 345c0 60.667 11 115.667 33 165c23.333 51.333 60 92.5 110 123.5s109 46.5 177 46.5c42 0 81 -6.33301 117 -19l35 79h59l-44 -101c49.333 -27.333 87.166 -67 113.499 -119
s39.5 -110.333 39.5 -175c0 -42.667 -3.5 -83 -10.5 -121s-18.5 -73.833 -34.5 -107.5s-36 -62.667 -60 -87s-54.333 -43.5 -91 -57.5s-78 -21 -124 -21zM376.002 637c-50.667 0 -90.333 -22.832 -119 -68.499s-43 -110.834 -43 -195.501c0 -90 13 -163 39 -219l203 457
c-23.333 17.333 -50 26 -80 26zM537.003 373.001c0 80.667 -14.333 143.333 -43 188l-206 -462c22.667 -24.667 52 -37 88 -37c53.333 0 93.333 28.333 120 85c27.333 58 41 133.333 41 226z" />
    <glyph glyph-name="Ugrave" unicode="&#xd9;" horiz-adv-x="707" 
d="M84 274v236c0 60.667 -6.33301 103.667 -19 129c-13.333 26.667 -36.666 46.334 -69.999 59.001v2h234v-433c0 -66 12.667 -116.667 38 -152s60.333 -53 105 -53c47.333 0 84.333 17.833 111 53.5s40 87.5 40 155.5v429h108v-421
c0 -94.667 -24.333 -167.334 -73 -218.001s-112.334 -76 -191.001 -76c-88 0 -157.167 25 -207.5 75s-75.5 121.333 -75.5 214zM246 908h109l93 -143h-81z" />
    <glyph glyph-name="Uacute" unicode="&#xda;" horiz-adv-x="707" 
d="M84 274v236c0 60.667 -6.33301 103.667 -19 129c-13.333 26.667 -36.666 46.334 -69.999 59.001v2h234v-433c0 -66 12.667 -116.667 38 -152s60.333 -53 105 -53c47.333 0 84.333 17.833 111 53.5s40 87.5 40 155.5v429h108v-421
c0 -94.667 -24.333 -167.334 -73 -218.001s-112.334 -76 -191.001 -76c-88 0 -157.167 25 -207.5 75s-75.5 121.333 -75.5 214zM335 765h-81l93 143h109z" />
    <glyph glyph-name="Ucircumflex" unicode="&#xdb;" horiz-adv-x="707" 
d="M84 274v236c0 60.667 -6.33301 103.667 -19 129c-13.333 26.667 -36.666 46.334 -69.999 59.001v2h234v-433c0 -66 12.667 -116.667 38 -152s60.333 -53 105 -53c47.333 0 84.333 17.833 111 53.5s40 87.5 40 155.5v429h108v-421
c0 -94.667 -24.333 -167.334 -73 -218.001s-112.334 -76 -191.001 -76c-88 0 -157.167 25 -207.5 75s-75.5 121.333 -75.5 214zM282 765h-80l105 143h114l104 -143h-80l-81 84z" />
    <glyph glyph-name="Udieresis" unicode="&#xdc;" horiz-adv-x="707" 
d="M84 274v236c0 60.667 -6.33301 103.667 -19 129c-13.333 26.667 -36.666 46.334 -69.999 59.001v2h234v-433c0 -66 12.667 -116.667 38 -152s60.333 -53 105 -53c47.333 0 84.333 17.833 111 53.5s40 87.5 40 155.5v429h108v-421
c0 -94.667 -24.333 -167.334 -73 -218.001s-112.334 -76 -191.001 -76c-88 0 -157.167 25 -207.5 75s-75.5 121.333 -75.5 214zM198 830c0 18 6.33301 33.5 19 46.5s28.334 19.5 47.001 19.5s34.5 -6.5 47.5 -19.5s19.5 -28.5 19.5 -46.5
c0 -18.667 -6.5 -34.334 -19.5 -47.001s-28.833 -19 -47.5 -19s-34.334 6.33301 -47.001 19s-19 28.334 -19 47.001zM377 830c0 18 6.33301 33.499 19 46.499s28.334 19.5 47.001 19.5c18 0 33.667 -6.5 47 -19.5s20 -28.5 20 -46.5s-6.66699 -33.5 -20 -46.5
s-29 -19.5 -47 -19.5c-18.667 0 -34.334 6.33301 -47.001 19s-19 28.334 -19 47.001z" />
    <glyph glyph-name="Yacute" unicode="&#xdd;" horiz-adv-x="662" 
d="M438 0l-145 0.000976562v315l-160 264c-26.667 42.667 -48.667 71 -66 85c-16.667 15.333 -37.667 26.666 -63 33.999v2h228l155 -281l142 281h103l-194 -351v-349zM346 765.001h-81l93 143h109z" />
    <glyph glyph-name="Thorn" unicode="&#xde;" horiz-adv-x="654" 
d="M610 364c0 -79.333 -25.999 -140.499 -77.999 -183.499s-125.333 -64.5 -220 -64.5h-69v-116h-145v484c0 70.667 -6 120.667 -18 150c-10.667 28.667 -34.334 50 -71.001 64v2h234v-120h16h8h34c4 0 12.833 -0.166992 26.5 -0.5s22.167 -0.5 25.5 -0.5
c82 -2.66699 145.333 -22.834 190 -60.501s67 -89.167 67 -154.5zM322.001 191.001c43.333 0 77.666 14.833 102.999 44.5s38 71.5 38 125.5c0 45.333 -12.667 80.333 -38 105s-62.666 37 -111.999 37c-34.667 0 -58 -3 -70 -9v-291c20 -8 46.333 -12 79 -12z" />
    <glyph glyph-name="germandbls" unicode="&#xdf;" horiz-adv-x="584" 
d="M280 430c0 20.667 5.33301 36.998 16 48.998c3.33301 4.66699 12 14 26 28l15 14c10.667 14.667 16 31.334 16 50.001c0 63.333 -21 95 -63 95c-51.333 0 -77 -46 -77 -138v-648h-145v616c0 72 19.833 129 59.5 171s96.5 62.667 170.5 62
c54 -0.666992 98 -14.667 132 -42c34.667 -26.667 52 -60 52 -100c0 -32 -10.667 -66.333 -32 -103c-38 -7.33301 -65.167 -15.5 -81.5 -24.5s-24.5 -20.167 -24.5 -33.5c0 -20 20.333 -34.333 61 -43c49.333 -11.333 85.5 -29.333 108.5 -54s34.5 -57.334 34.5 -98.001
c0 -70 -26.667 -126 -80 -168s-125 -63 -215 -63v54c98.667 0 148 54 148 162c0 40.667 -3.66699 69.834 -11 87.501s-20.333 29.834 -39 36.501c-47.333 17.333 -71 47.333 -71 90z" />
    <glyph glyph-name="agrave" unicode="&#xe0;" horiz-adv-x="545" 
d="M249 58c32 0 61 14 87 42v162c-102.667 -18 -154 -58.667 -154 -122c0 -24.667 6 -44.5 18 -59.5s28.333 -22.5 49 -22.5zM239 446c-30.667 0 -59.167 -9.16797 -85.5 -27.501s-43.5 -42.833 -51.5 -73.5h-1v156c68.667 14.667 126.334 22 173.001 22
c72 0 124.5 -16.333 157.5 -49s49.5 -85 49.5 -157v-317h-145v37c-44 -34 -90.333 -51 -139 -51s-86.334 13.333 -113.001 40s-40 61.667 -40 105c0 76.667 53.333 131 160 163c30 8.66699 74 18.334 132 29.001v19c0 36 -7.66699 62.333 -23 79s-40 25 -74 25zM149 717.999
h109l93 -143h-81z" />
    <glyph glyph-name="aacute" unicode="&#xe1;" horiz-adv-x="545" 
d="M249 58c32 0 61 14 87 42v162c-102.667 -18 -154 -58.667 -154 -122c0 -24.667 6 -44.5 18 -59.5s28.333 -22.5 49 -22.5zM239 446c-30.667 0 -59.167 -9.16797 -85.5 -27.501s-43.5 -42.833 -51.5 -73.5h-1v156c68.667 14.667 126.334 22 173.001 22
c72 0 124.5 -16.333 157.5 -49s49.5 -85 49.5 -157v-317h-145v37c-44 -34 -90.333 -51 -139 -51s-86.334 13.333 -113.001 40s-40 61.667 -40 105c0 76.667 53.333 131 160 163c30 8.66699 74 18.334 132 29.001v19c0 36 -7.66699 62.333 -23 79s-40 25 -74 25zM267 574.999
h-81l93 143h109z" />
    <glyph glyph-name="acircumflex" unicode="&#xe2;" horiz-adv-x="545" 
d="M249 58c32 0 61 14 87 42v162c-102.667 -18 -154 -58.667 -154 -122c0 -24.667 6 -44.5 18 -59.5s28.333 -22.5 49 -22.5zM239 446c-30.667 0 -59.167 -9.16797 -85.5 -27.501s-43.5 -42.833 -51.5 -73.5h-1v156c68.667 14.667 126.334 22 173.001 22
c72 0 124.5 -16.333 157.5 -49s49.5 -85 49.5 -157v-317h-145v37c-44 -34 -90.333 -51 -139 -51s-86.334 13.333 -113.001 40s-40 61.667 -40 105c0 76.667 53.333 131 160 163c30 8.66699 74 18.334 132 29.001v19c0 36 -7.66699 62.333 -23 79s-40 25 -74 25zM187 574.999
h-80l105 143h114l104 -143h-80l-81 84z" />
    <glyph glyph-name="atilde" unicode="&#xe3;" horiz-adv-x="545" 
d="M249 58c32 0 61 14 87 42v162c-102.667 -18 -154 -58.667 -154 -122c0 -24.667 6 -44.5 18 -59.5s28.333 -22.5 49 -22.5zM239 446c-30.667 0 -59.167 -9.16797 -85.5 -27.501s-43.5 -42.833 -51.5 -73.5h-1v156c68.667 14.667 126.334 22 173.001 22
c72 0 124.5 -16.333 157.5 -49s49.5 -85 49.5 -157v-317h-145v37c-44 -34 -90.333 -51 -139 -51s-86.334 13.333 -113.001 40s-40 61.667 -40 105c0 76.667 53.333 131 160 163c30 8.66699 74 18.334 132 29.001v19c0 36 -7.66699 62.333 -23 79s-40 25 -74 25zM247 597.999
c-36.667 21.333 -65.334 32 -86.001 32c-22.667 0 -52.334 -11 -89.001 -33c-1.33301 24 -1.33301 36.667 0 38c42.667 33.333 72.334 53 89.001 59c15.333 6.66699 31.333 10 48 10c26.667 0 55.334 -8.66699 86.001 -26c35.333 -20.667 64 -31 86 -31
c20.667 0 51 11 91 33v-38l-45 -36c-32 -22 -63 -33 -93 -33c-29.333 0 -58.333 8.33301 -87 25z" />
    <glyph glyph-name="adieresis" unicode="&#xe4;" horiz-adv-x="545" 
d="M249 58c32 0 61 14 87 42v162c-102.667 -18 -154 -58.667 -154 -122c0 -24.667 6 -44.5 18 -59.5s28.333 -22.5 49 -22.5zM239 446c-30.667 0 -59.167 -9.16797 -85.5 -27.501s-43.5 -42.833 -51.5 -73.5h-1v156c68.667 14.667 126.334 22 173.001 22
c72 0 124.5 -16.333 157.5 -49s49.5 -85 49.5 -157v-317h-145v37c-44 -34 -90.333 -51 -139 -51s-86.334 13.333 -113.001 40s-40 61.667 -40 105c0 76.667 53.333 131 160 163c30 8.66699 74 18.334 132 29.001v19c0 36 -7.66699 62.333 -23 79s-40 25 -74 25zM112 639.999
c0 18 6.33301 33.5 19 46.5s28.334 19.5 47.001 19.5s34.5 -6.5 47.5 -19.5s19.5 -28.5 19.5 -46.5c0 -18.667 -6.5 -34.334 -19.5 -47.001s-28.833 -19 -47.5 -19s-34.334 6.33301 -47.001 19s-19 28.334 -19 47.001zM291 639.999c0 18 6.33301 33.499 19 46.499
s28.334 19.5 47.001 19.5c18 0 33.667 -6.5 47 -19.5s20 -28.5 20 -46.5s-6.66699 -33.5 -20 -46.5s-29 -19.5 -47 -19.5c-18.667 0 -34.334 6.33301 -47.001 19s-19 28.334 -19 47.001z" />
    <glyph glyph-name="aring" unicode="&#xe5;" horiz-adv-x="545" 
d="M249 58c32 0 61 14 87 42v162c-102.667 -18 -154 -58.667 -154 -122c0 -24.667 6 -44.5 18 -59.5s28.333 -22.5 49 -22.5zM239 446c-30.667 0 -59.167 -9.16797 -85.5 -27.501s-43.5 -42.833 -51.5 -73.5h-1v156c68.667 14.667 126.334 22 173.001 22
c72 0 124.5 -16.333 157.5 -49s49.5 -85 49.5 -157v-317h-145v37c-44 -34 -90.333 -51 -139 -51s-86.334 13.333 -113.001 40s-40 61.667 -40 105c0 76.667 53.333 131 160 163c30 8.66699 74 18.334 132 29.001v19c0 36 -7.66699 62.333 -23 79s-40 25 -74 25zM232 646.999
c0 -10.667 3.83301 -20 11.5 -28s16.834 -12 27.501 -12c11.333 0 20.833 3.83301 28.5 11.5s11.5 17.167 11.5 28.5c0 10 -4 19 -12 27s-17.333 12 -28 12s-19.834 -4 -27.501 -12s-11.5 -17 -11.5 -27zM176 646.999c0 26 9.33301 48.167 28 66.5s41 27.5 67 27.5
c26.667 0 49 -9.16699 67 -27.5s27 -40.5 27 -66.5c0 -26.667 -9 -49.334 -27 -68.001s-40.333 -28 -67 -28c-26 0 -48.333 9.33301 -67 28s-28 41.334 -28 68.001z" />
    <glyph glyph-name="ae" unicode="&#xe6;" horiz-adv-x="855" 
d="M638 61c44.667 0 83.665 7.33496 116.998 22.002v-77c-49.333 -13.333 -98.666 -20 -147.999 -20c-84.667 0 -149 28.333 -193 85c-48.667 -56.667 -119 -85 -211 -85c-49.333 0 -88.833 13.667 -118.5 41s-44.5 62 -44.5 104c0 33.333 9.5 62.666 28.5 87.999
s44.833 44.333 77.5 57c60 25.333 126 38 198 38v22c0 35.333 -10.167 62.5 -30.5 81.5s-48.833 28.5 -85.5 28.5c-29.333 0 -57.666 -9 -84.999 -27c-26 -16.667 -43.667 -41.334 -53 -74.001h-1v156c65.333 14.667 123.333 22 174 22c68.667 0 122 -22 160 -66
c43.333 44 99.333 66 168 66c74 0 130.833 -23.5 170.5 -70.5s59.5 -115.167 59.5 -204.5h-335c0 -124.667 50.667 -187 152 -187zM245.998 58.002c27.333 0 50.499 11.334 69.499 34.001s28.5 52.667 28.5 90v66c-51.333 0 -91.666 -9.83301 -120.999 -29.5
s-44 -45.834 -44 -78.501c0 -24.667 5.83301 -44.5 17.5 -59.5s28.167 -22.5 49.5 -22.5zM583.997 449.003c-29.333 0 -52.832 -11.832 -70.499 -35.499s-26.834 -56.834 -27.501 -99.501h189c0 90 -30.333 135 -91 135z" />
    <glyph glyph-name="ccedilla" unicode="&#xe7;" horiz-adv-x="484" 
d="M322 447c-40.667 0 -72.835 -15.3311 -96.502 -45.998s-35.5 -75.334 -35.5 -134.001c0 -66 13.5 -116.833 40.5 -152.5s63.167 -53.5 108.5 -53.5c36.667 0 73 4.66699 109 14v-69c-42 -13.333 -88.333 -20 -139 -20c-85.333 0 -151.666 26.667 -198.999 80
c-46.667 53.333 -70 120.666 -70 201.999c0 82 24 145 72 189s111.333 66 190 66c42.667 0 83.334 -4 122.001 -12l18 -4v-162h-1c-20 68 -59.667 102 -119 102zM236.999 4.00195l54 -0.000976562v-38c44 0 66 -19 66 -57c0 -18 -8.33301 -35.333 -25 -52
c-15.333 -17.333 -31.333 -30.666 -48 -39.999l-25 -13l-17 22c28 21.333 42 44 42 68c0 22 -15.667 33 -47 33v77z" />
    <glyph glyph-name="egrave" unicode="&#xe8;" horiz-adv-x="564" 
d="M358 61c43.333 0 83.6689 5 121.002 15v-70c-54.667 -13.333 -107.334 -20 -158.001 -20c-85.333 0 -153.333 25.333 -204 76c-50 50.667 -75 115.667 -75 195c0 89.333 23.667 156 71 200c48 44 109.333 66 184 66c74 0 130.833 -23.5 170.5 -70.5
s59.5 -115.167 59.5 -204.5h-335c1.33301 -65.333 17.666 -113 48.999 -143c32.667 -29.333 71.667 -44 117 -44zM290.003 449c-29.333 0 -52.832 -11.832 -70.499 -35.499s-26.834 -56.834 -27.501 -99.501h189c0 90 -30.333 135 -91 135zM163.004 718.001h109l93 -143h-81
z" />
    <glyph glyph-name="eacute" unicode="&#xe9;" horiz-adv-x="564" 
d="M358 61c43.333 0 83.6689 5 121.002 15v-70c-54.667 -13.333 -107.334 -20 -158.001 -20c-85.333 0 -153.333 25.333 -204 76c-50 50.667 -75 115.667 -75 195c0 89.333 23.667 156 71 200c48 44 109.333 66 184 66c74 0 130.833 -23.5 170.5 -70.5
s59.5 -115.167 59.5 -204.5h-335c1.33301 -65.333 17.666 -113 48.999 -143c32.667 -29.333 71.667 -44 117 -44zM290.003 449c-29.333 0 -52.832 -11.832 -70.499 -35.499s-26.834 -56.834 -27.501 -99.501h189c0 90 -30.333 135 -91 135zM289.004 575.001h-81l93 143h109z
" />
    <glyph glyph-name="ecircumflex" unicode="&#xea;" horiz-adv-x="564" 
d="M358 61c43.333 0 83.6689 5 121.002 15v-70c-54.667 -13.333 -107.334 -20 -158.001 -20c-85.333 0 -153.333 25.333 -204 76c-50 50.667 -75 115.667 -75 195c0 89.333 23.667 156 71 200c48 44 109.333 66 184 66c74 0 130.833 -23.5 170.5 -70.5
s59.5 -115.167 59.5 -204.5h-335c1.33301 -65.333 17.666 -113 48.999 -143c32.667 -29.333 71.667 -44 117 -44zM290.003 449c-29.333 0 -52.832 -11.832 -70.499 -35.499s-26.834 -56.834 -27.501 -99.501h189c0 90 -30.333 135 -91 135zM203.004 575.001h-80l105 143h114
l104 -143h-80l-81 84z" />
    <glyph glyph-name="edieresis" unicode="&#xeb;" horiz-adv-x="564" 
d="M358 61c43.333 0 83.6689 5 121.002 15v-70c-54.667 -13.333 -107.334 -20 -158.001 -20c-85.333 0 -153.333 25.333 -204 76c-50 50.667 -75 115.667 -75 195c0 89.333 23.667 156 71 200c48 44 109.333 66 184 66c74 0 130.833 -23.5 170.5 -70.5
s59.5 -115.167 59.5 -204.5h-335c1.33301 -65.333 17.666 -113 48.999 -143c32.667 -29.333 71.667 -44 117 -44zM290.003 449c-29.333 0 -52.832 -11.832 -70.499 -35.499s-26.834 -56.834 -27.501 -99.501h189c0 90 -30.333 135 -91 135zM132.004 640.001
c0 18 6.33301 33.5 19 46.5s28.334 19.5 47.001 19.5s34.5 -6.5 47.5 -19.5s19.5 -28.5 19.5 -46.5c0 -18.667 -6.5 -34.334 -19.5 -47.001s-28.833 -19 -47.5 -19s-34.334 6.33301 -47.001 19s-19 28.334 -19 47.001zM311.004 640.001c0 18 6.33301 33.499 19 46.499
s28.334 19.5 47.001 19.5c18 0 33.667 -6.5 47 -19.5s20 -28.5 20 -46.5s-6.66699 -33.5 -20 -46.5s-29 -19.5 -47 -19.5c-18.667 0 -34.334 6.33301 -47.001 19s-19 28.334 -19 47.001z" />
    <glyph glyph-name="igrave" unicode="&#xec;" horiz-adv-x="310" 
d="M232 0h-144v364c0 46 -5.33301 78.667 -16 98c-10 20 -28.333 35.333 -55 46v2h215v-510zM28 718h109l93 -143h-81z" />
    <glyph glyph-name="iacute" unicode="&#xed;" horiz-adv-x="310" 
d="M232 0h-144v364c0 46 -5.33301 78.667 -16 98c-10 20 -28.333 35.333 -55 46v2h215v-510zM126 575h-81l93 143h109z" />
    <glyph glyph-name="icircumflex" unicode="&#xee;" horiz-adv-x="310" 
d="M232 0h-144v364c0 46 -5.33301 78.667 -16 98c-10 20 -28.333 35.333 -55 46v2h215v-510zM69 575h-80l105 143h114l104 -143h-80l-81 84z" />
    <glyph glyph-name="idieresis" unicode="&#xef;" horiz-adv-x="310" 
d="M232 0h-144v364c0 46 -5.33301 78.667 -16 98c-10 20 -28.333 35.333 -55 46v2h215v-510zM-3 640c0 18 6.33301 33.5 19 46.5s28.334 19.5 47.001 19.5s34.5 -6.5 47.5 -19.5s19.5 -28.5 19.5 -46.5c0 -18.667 -6.5 -34.334 -19.5 -47.001s-28.833 -19 -47.5 -19
s-34.334 6.33301 -47.001 19s-19 28.334 -19 47.001zM176 640c0 18 6.33301 33.499 19 46.499s28.334 19.5 47.001 19.5c18 0 33.667 -6.5 47 -19.5s20 -28.5 20 -46.5s-6.66699 -33.5 -20 -46.5s-29 -19.5 -47 -19.5c-18.667 0 -34.334 6.33301 -47.001 19
s-19 28.334 -19 47.001z" />
    <glyph glyph-name="eth" unicode="&#xf0;" horiz-adv-x="599" 
d="M344 596l-137 -40l-12 38l113 34c-22.667 16 -50.334 29.333 -83.001 40l16 44c54.667 -12.667 104 -32.667 148 -60l96 29l12 -39l-67 -20c86 -73.333 129 -186.333 129 -339v-18c-0.666992 -80 -22.667 -146.667 -66 -200c-42.667 -52.667 -107.667 -79 -195 -79
c-88 0 -153.667 26.667 -197 80c-42.667 53.333 -64 121 -64 203c0 75.333 22.333 136.333 67 183c45.333 47.333 107 71 185 71c44 0 81.667 -10.667 113 -32c-11.333 41.333 -30.666 76.333 -57.999 105zM406 265c0 60.667 -9.49902 107 -28.499 139s-45.5 48 -79.5 48
s-60.667 -16 -80 -48s-29 -78.333 -29 -139c0 -66 9.33301 -117.167 28 -153.5s45.667 -54.5 81 -54.5s62.166 18.167 80.499 54.5s27.5 87.5 27.5 153.5z" />
    <glyph glyph-name="ntilde" unicode="&#xf1;" horiz-adv-x="631" 
d="M231 368l-0.000976562 -368.001h-145v364c0 44 -5.16699 76.333 -15.5 97s-28.5 36.334 -54.5 47.001v2h215v-43c46.667 37.333 95.334 56 146.001 56c65.333 0 112.333 -14.167 141 -42.5s43 -76.5 43 -144.5v-336h-145v331c0 40.667 -6 69.5 -18 86.5
s-30.667 25.5 -56 25.5c-44 0 -81 -25 -111 -75zM286.999 597.999c-36.667 21.333 -65.335 32 -86.002 32c-22 0 -51.667 -11 -89 -33c-1.33301 24 -1.33301 36.667 0 38c42.667 33.333 72.334 53 89.001 59c15.333 6.66699 31.333 10 48 10
c26.667 0 55.334 -8.66699 86.001 -26c35.333 -20.667 64 -31 86 -31c20.667 0 51 11 91 33v-38l-45 -36c-32 -22 -63 -33 -93 -33c-29.333 0 -58.333 8.33301 -87 25z" />
    <glyph glyph-name="ograve" unicode="&#xf2;" horiz-adv-x="596" 
d="M559 269c0 -80.667 -21.667 -148.333 -65 -203c-43.333 -53.333 -108.666 -80 -195.999 -80c-88 0 -153.667 26.667 -197 80c-42.667 53.333 -64 121 -64 203c0 75.333 22.333 136.333 67 183c45.333 47.333 110 71 194 71c83.333 0 147.666 -23.667 192.999 -71
s68 -108.333 68 -183zM406 265.001c0 60.667 -9.49902 107 -28.499 139s-45.5 48 -79.5 48s-60.667 -16 -80 -48s-29 -78.333 -29 -139c0 -66 9.33301 -117.167 28 -153.5s45.667 -54.5 81 -54.5s62.166 18.167 80.499 54.5s27.5 87.5 27.5 153.5zM179.001 718.001h109
l93 -143h-81z" />
    <glyph glyph-name="oacute" unicode="&#xf3;" horiz-adv-x="596" 
d="M37 269c0 75.333 22.333 136.334 67 183.001c45.333 47.333 110 71 194 71c83.333 0 147.666 -23.667 192.999 -71s68 -108.333 68 -183c0 -80.667 -21.667 -148.334 -65 -203.001c-43.333 -53.333 -108.666 -80 -195.999 -80c-88 0 -153.667 26.667 -197 80
c-42.667 53.333 -64 121 -64 203zM406 265.001c0 60.667 -9.49902 107 -28.499 139s-45.5 48 -79.5 48s-60.667 -16 -80 -48s-29 -78.333 -29 -139c0 -66 9.33301 -117.167 28 -153.5s45.667 -54.5 81 -54.5s62.166 18.167 80.499 54.5s27.5 87.5 27.5 153.5z
M292.001 575.001h-81l93 143h109z" />
    <glyph glyph-name="ocircumflex" unicode="&#xf4;" horiz-adv-x="596" 
d="M559 269c0 -80.667 -21.667 -148.333 -65 -203c-43.333 -53.333 -108.666 -80 -195.999 -80c-88 0 -153.667 26.667 -197 80c-42.667 53.333 -64 121 -64 203c0 75.333 22.333 136.333 67 183c45.333 47.333 110 71 194 71c83.333 0 147.666 -23.667 192.999 -71
s68 -108.333 68 -183zM406 265.001c0 60.667 -9.49902 107 -28.499 139s-45.5 48 -79.5 48s-60.667 -16 -80 -48s-29 -78.333 -29 -139c0 -66 9.33301 -117.167 28 -153.5s45.667 -54.5 81 -54.5s62.166 18.167 80.499 54.5s27.5 87.5 27.5 153.5zM216.001 575.001h-80
l105 143h114l104 -143h-80l-81 84z" />
    <glyph glyph-name="otilde" unicode="&#xf5;" horiz-adv-x="596" 
d="M559 269c0 -80.667 -21.667 -148.333 -65 -203c-43.333 -53.333 -108.666 -80 -195.999 -80c-88 0 -153.667 26.667 -197 80c-42.667 53.333 -64 121 -64 203c0 75.333 22.333 136.333 67 183c45.333 47.333 110 71 194 71c83.333 0 147.666 -23.667 192.999 -71
s68 -108.333 68 -183zM406 265.001c0 60.667 -9.49902 107 -28.499 139s-45.5 48 -79.5 48s-60.667 -16 -80 -48s-29 -78.333 -29 -139c0 -66 9.33301 -117.167 28 -153.5s45.667 -54.5 81 -54.5s62.166 18.167 80.499 54.5s27.5 87.5 27.5 153.5zM274.001 598.001
c-36.667 21.333 -65.334 32 -86.001 32c-22.667 0 -52.334 -11 -89.001 -33c-1.33301 24 -1.33301 36.667 0 38c42.667 33.333 72.334 53 89.001 59c15.333 6.66699 31.333 10 48 10c26.667 0 55.334 -8.66699 86.001 -26c35.333 -20.667 64 -31 86 -31
c20.667 0 51 11 91 33v-38l-45 -36c-32 -22 -63 -33 -93 -33c-30.667 0 -59.667 8.33301 -87 25z" />
    <glyph glyph-name="odieresis" unicode="&#xf6;" horiz-adv-x="596" 
d="M559 269c0 -80.667 -21.667 -148.333 -65 -203c-43.333 -53.333 -108.666 -80 -195.999 -80c-88 0 -153.667 26.667 -197 80c-42.667 53.333 -64 121 -64 203c0 75.333 22.333 136.333 67 183c45.333 47.333 110 71 194 71c83.333 0 147.666 -23.667 192.999 -71
s68 -108.333 68 -183zM406 265.001c0 60.667 -9.49902 107 -28.499 139s-45.5 48 -79.5 48s-60.667 -16 -80 -48s-29 -78.333 -29 -139c0 -66 9.33301 -117.167 28 -153.5s45.667 -54.5 81 -54.5s62.166 18.167 80.499 54.5s27.5 87.5 27.5 153.5zM143.001 640.001
c0 18 6.33301 33.5 19 46.5s28.334 19.5 47.001 19.5s34.5 -6.5 47.5 -19.5s19.5 -28.5 19.5 -46.5c0 -18.667 -6.5 -34.334 -19.5 -47.001s-28.833 -19 -47.5 -19s-34.334 6.33301 -47.001 19s-19 28.334 -19 47.001zM322.001 640.001c0 18 6.33301 33.499 19 46.499
s28.334 19.5 47.001 19.5c18 0 33.667 -6.5 47 -19.5s20 -28.5 20 -46.5s-6.66699 -33.5 -20 -46.5s-29 -19.5 -47 -19.5c-18.667 0 -34.334 6.33301 -47.001 19s-19 28.334 -19 47.001z" />
    <glyph glyph-name="divide" unicode="&#xf7;" horiz-adv-x="618" 
d="M300 560c18.667 0 34.667 -6.33301 48 -19s20 -28.334 20 -47.001s-6.66699 -34.334 -20 -47.001s-29.333 -19 -48 -19c-18 0 -33.5 6.33301 -46.5 19s-19.5 28.334 -19.5 47.001s6.5 34.334 19.5 47.001s28.5 19 46.5 19zM300 207c18.667 0 34.667 -6.33301 48 -19
s20 -28.334 20 -47.001s-6.66699 -34.334 -20 -47.001s-29.333 -19 -48 -19c-18 0 -33.5 6.33301 -46.5 19s-19.5 28.334 -19.5 47.001s6.5 34.334 19.5 47.001s28.5 19 46.5 19zM524 280h-439v79h439v-79z" />
    <glyph glyph-name="oslash" unicode="&#xf8;" horiz-adv-x="596" 
d="M211 -1l-35 -78h-59l44 98c-82.667 44.667 -124 128 -124 250c0 75.333 22.333 136.333 67 183c45.333 47.333 110 71 194 71c24 0 50.667 -3 80 -9l33 72h59l-40 -91c41.333 -19.333 73.166 -48.666 95.499 -87.999s33.5 -85.333 33.5 -138
c0 -80.667 -21.667 -148.334 -65 -203.001c-43.333 -53.333 -108.666 -80 -195.999 -80c-32 0 -61 4.33301 -87 13zM298 452c-34 0 -60.667 -16 -80 -48s-29 -78.333 -29 -139c0 -53.333 6.66699 -98 20 -134l137 307c-15.333 9.33301 -31.333 14 -48 14zM406 265
c0 50 -7.99902 90 -23.999 120l-138 -309c14.667 -12.667 32.667 -19 54 -19c35.333 0 62.166 18.167 80.499 54.5s27.5 87.5 27.5 153.5z" />
    <glyph glyph-name="ugrave" unicode="&#xf9;" horiz-adv-x="633" 
d="M16 508l0.000976562 1.99902h215v-323c0 -43.333 6 -74.333 18 -93s30.667 -28 56 -28c42 0 77.667 30 107 90v354h145v-510h-145v54c-44 -45.333 -92 -68 -144 -68c-62.667 0 -108.834 15 -138.501 45s-44.167 77.667 -43.5 143v182c0 45.333 -5.33301 79.333 -16 102
s-28.667 39.334 -54 50.001zM197.001 717.999h109l93 -143h-81z" />
    <glyph glyph-name="uacute" unicode="&#xfa;" horiz-adv-x="633" 
d="M16 508l0.000976562 1.99902h215v-323c0 -43.333 6 -74.333 18 -93s30.667 -28 56 -28c42 0 77.667 30 107 90v354h145v-510h-145v54c-44 -45.333 -92 -68 -144 -68c-62.667 0 -108.834 15 -138.501 45s-44.167 77.667 -43.5 143v182c0 45.333 -5.33301 79.333 -16 102
s-28.667 39.334 -54 50.001zM289.001 574.999h-81l93 143h109z" />
    <glyph glyph-name="ucircumflex" unicode="&#xfb;" horiz-adv-x="633" 
d="M16 508l0.000976562 1.99902h215v-323c0 -43.333 6 -74.333 18 -93s30.667 -28 56 -28c42 0 77.667 30 107 90v354h145v-510h-145v54c-44 -45.333 -92 -68 -144 -68c-62.667 0 -108.834 15 -138.501 45s-44.167 77.667 -43.5 143v182c0 45.333 -5.33301 79.333 -16 102
s-28.667 39.334 -54 50.001zM234.001 574.999h-80l105 143h114l104 -143h-80l-81 84z" />
    <glyph glyph-name="udieresis" unicode="&#xfc;" horiz-adv-x="633" 
d="M16 508l0.000976562 1.99902h215v-323c0 -43.333 6 -74.333 18 -93s30.667 -28 56 -28c42 0 77.667 30 107 90v354h145v-510h-145v54c-44 -45.333 -92 -68 -144 -68c-62.667 0 -108.834 15 -138.501 45s-44.167 77.667 -43.5 143v182c0 45.333 -5.33301 79.333 -16 102
s-28.667 39.334 -54 50.001zM159.001 639.999c0 18 6.33301 33.5 19 46.5s28.334 19.5 47.001 19.5s34.5 -6.5 47.5 -19.5s19.5 -28.5 19.5 -46.5c0 -18.667 -6.5 -34.334 -19.5 -47.001s-28.833 -19 -47.5 -19s-34.334 6.33301 -47.001 19s-19 28.334 -19 47.001z
M338.001 639.999c0 18 6.33301 33.499 19 46.499s28.334 19.5 47.001 19.5c18 0 33.667 -6.5 47 -19.5s20 -28.5 20 -46.5s-6.66699 -33.5 -20 -46.5s-29 -19.5 -47 -19.5c-18.667 0 -34.334 6.33301 -47.001 19s-19 28.334 -19 47.001z" />
    <glyph glyph-name="yacute" unicode="&#xfd;" horiz-adv-x="597" 
d="M2 508v2h225l110 -291l22 -61l111 352h101l-252 -700h-100l69 172l-202 465c-14.667 34.667 -42.667 55 -84 61zM315 575h-81l93 143h109z" />
    <glyph glyph-name="thorn" unicode="&#xfe;" horiz-adv-x="605" 
d="M227 -190l-145 0.000976562v744c0 45.333 -5 78 -15 98c-8.66699 19.333 -25.667 34.666 -51 45.999v2h211v-232c24.667 20.667 47.667 35 69 43s46.333 12 75 12c60 0 107 -19.833 141 -59.5s51 -98.5 51 -176.5c0 -90 -27.333 -160.333 -82 -211s-129 -76 -223 -76h-31
v-190zM320 444.001c-37.333 0 -68.333 -24.001 -93 -72.001v-297c12 -4.66699 26.667 -7 44 -7c42 0 76 17.333 102 52s39 86.334 39 155.001c0 112.667 -30.667 169 -92 169z" />
    <glyph glyph-name="ydieresis" unicode="&#xff;" horiz-adv-x="597" 
d="M2 508v2h225l110 -291l22 -61l111 352h101l-252 -700h-100l69 172l-202 465c-14.667 34.667 -42.667 55 -84 61zM175 640c0 18 6.33301 33.5 19 46.5s28.334 19.5 47.001 19.5s34.5 -6.5 47.5 -19.5s19.5 -28.5 19.5 -46.5c0 -18.667 -6.5 -34.334 -19.5 -47.001
s-28.833 -19 -47.5 -19s-34.334 6.33301 -47.001 19s-19 28.334 -19 47.001zM354 640c0 18 6.33301 33.499 19 46.499s28.334 19.5 47.001 19.5c18 0 33.667 -6.5 47 -19.5s20 -28.5 20 -46.5s-6.66699 -33.5 -20 -46.5s-29 -19.5 -47 -19.5
c-18.667 0 -34.334 6.33301 -47.001 19s-19 28.334 -19 47.001z" />
    <glyph glyph-name="Amacron" unicode="&#x100;" horiz-adv-x="668" 
d="M164 700l211 0.000976562l270 -700h-162l-73 199h-228l-68 -199h-101l198 546c10.667 30 16 54.333 16 73c0 35.333 -21 61.666 -63 78.999v2zM382 274.001l-89 260h-1l-85 -260h175zM439 771.001h-274v51h274v-51z" />
    <glyph glyph-name="amacron" unicode="&#x101;" horiz-adv-x="545" 
d="M249 58c32 0 61 14 87 42v162c-102.667 -18 -154 -58.667 -154 -122c0 -24.667 6 -44.5 18 -59.5s28.333 -22.5 49 -22.5zM239 446c-30.667 0 -59.167 -9.16797 -85.5 -27.501s-43.5 -42.833 -51.5 -73.5h-1v156c68.667 14.667 126.334 22 173.001 22
c72 0 124.5 -16.333 157.5 -49s49.5 -85 49.5 -157v-317h-145v37c-44 -34 -90.333 -51 -139 -51s-86.334 13.333 -113.001 40s-40 61.667 -40 105c0 76.667 53.333 131 160 163c30 8.66699 74 18.334 132 29.001v19c0 36 -7.66699 62.333 -23 79s-40 25 -74 25zM425 580.999
h-274v51h274v-51z" />
    <glyph glyph-name="Abreve" unicode="&#x102;" horiz-adv-x="668" 
d="M164 700l211 0.000976562l270 -700h-162l-73 199h-228l-68 -199h-101l198 546c10.667 30 16 54.333 16 73c0 35.333 -21 61.666 -63 78.999v2zM382 274.001l-89 260h-1l-85 -260h175zM167 888.001h54.002c3.33301 -17.333 12.166 -31.666 26.499 -42.999
s30.833 -17 49.5 -17s35.167 5.66699 49.5 17s23.166 25.666 26.499 42.999h55c-2 -34 -15.667 -63.333 -41 -88c-25.333 -23.333 -55.333 -35 -90 -35s-64.667 11.667 -90 35c-26 24.667 -39.333 54 -40 88z" />
    <glyph glyph-name="abreve" unicode="&#x103;" horiz-adv-x="545" 
d="M249 58c32 0 61 14 87 42v162c-102.667 -18 -154 -58.667 -154 -122c0 -24.667 6 -44.5 18 -59.5s28.333 -22.5 49 -22.5zM239 446c-30.667 0 -59.167 -9.16797 -85.5 -27.501s-43.5 -42.833 -51.5 -73.5h-1v156c68.667 14.667 126.334 22 173.001 22
c72 0 124.5 -16.333 157.5 -49s49.5 -85 49.5 -157v-317h-145v37c-44 -34 -90.333 -51 -139 -51s-86.334 13.333 -113.001 40s-40 61.667 -40 105c0 76.667 53.333 131 160 163c30 8.66699 74 18.334 132 29.001v19c0 36 -7.66699 62.333 -23 79s-40 25 -74 25zM140 697.999
h54.002c3.33301 -17.333 12.166 -31.666 26.499 -42.999s30.833 -17 49.5 -17s35.167 5.66699 49.5 17s23.166 25.666 26.499 42.999h55c-2 -34 -15.667 -63.333 -41 -88c-25.333 -23.333 -55.333 -35 -90 -35s-64.667 11.667 -90 35c-26 24.667 -39.333 54 -40 88z" />
    <glyph glyph-name="Aogonek" unicode="&#x104;" horiz-adv-x="668" 
d="M164 700l211 0.000976562l270 -700h-162l-73 199h-228l-68 -199h-101l198 546c10.667 30 16 54.333 16 73c0 35.333 -21 61.666 -63 78.999v2zM382 274.001l-89 260h-1l-85 -260h175zM474 -102.999c0 16.667 6.16699 33.833 18.5 51.5s25.5 31.5 39.5 41.5l20 14h53
l-16 -14c-6 -5.33301 -14.667 -17.666 -26 -36.999c-10.667 -18.667 -16 -37.334 -16 -56.001c0 -13.333 4.16699 -26 12.5 -38s17.833 -20.333 28.5 -25l13 -8l-12 -21c-8 1.33301 -21.333 5 -40 11c-50 17.333 -75 44.333 -75 81z" />
    <glyph glyph-name="aogonek" unicode="&#x105;" horiz-adv-x="545" 
d="M249 58c32 0 61 14 87 42v162c-102.667 -18 -154 -58.667 -154 -122c0 -24.667 6 -44.5 18 -59.5s28.333 -22.5 49 -22.5zM239 446c-30.667 0 -59.167 -9.16797 -85.5 -27.501s-43.5 -42.833 -51.5 -73.5h-1v156c68.667 14.667 126.334 22 173.001 22
c72 0 124.5 -16.333 157.5 -49s49.5 -85 49.5 -157v-317h-145v37c-44 -34 -90.333 -51 -139 -51s-86.334 13.333 -113.001 40s-40 61.667 -40 105c0 76.667 53.333 131 160 163c30 8.66699 74 18.334 132 29.001v19c0 36 -7.66699 62.333 -23 79s-40 25 -74 25z
M321 -103.001c0 16.667 6.16699 34 18.5 52s25.833 31.667 40.5 41l19 14h53l-16 -14c-6 -5.33301 -14.667 -17.666 -26 -36.999c-10.667 -18.667 -16 -37.334 -16 -56.001c0 -12.667 4.16699 -25 12.5 -37s17.5 -20.667 27.5 -26l14 -8l-12 -21
c-8 1.33301 -21.333 5 -40 11c-50 17.333 -75 44.333 -75 81z" />
    <glyph glyph-name="Cacute" unicode="&#x106;" horiz-adv-x="615" 
d="M426 62c54.667 0 103 7.00293 145 21.0029v-69c-38 -16.667 -86.333 -26 -145 -28c-4.66699 -0.666992 -18.667 -0.333984 -42 0.999023c-106.667 4 -188 42 -244 114s-84 164.667 -84 278c0 90 25 165.667 75 227c51.333 61.333 123 96 215 104
c34 2 61.333 2.66699 82 2c49.333 -0.666992 94 -9.33398 134 -26.001v-164h-1c-22 76.667 -76.333 115 -163 115c-58.667 0 -104 -22.333 -136 -67s-48 -110.334 -48 -197.001c0 -102 19 -179.333 57 -232s89.667 -79 155 -79zM346 765.003h-81l93 143h109z" />
    <glyph glyph-name="cacute" unicode="&#x107;" horiz-adv-x="484" 
d="M322 447c-40.667 0 -72.835 -15.3311 -96.502 -45.998s-35.5 -75.334 -35.5 -134.001c0 -66 13.5 -116.833 40.5 -152.5s63.167 -53.5 108.5 -53.5c36.667 0 73 4.66699 109 14v-69c-42 -13.333 -88.333 -20 -139 -20c-85.333 0 -151.666 26.667 -198.999 80
c-46.667 53.333 -70 120.666 -70 201.999c0 82 24 145 72 189s111.333 66 190 66c42.667 0 83.334 -4 122.001 -12l18 -4v-162h-1c-20 68 -59.667 102 -119 102zM257.999 575.002h-81l93 143h109z" />
    <glyph glyph-name="Ccaron" unicode="&#x10c;" horiz-adv-x="615" 
d="M426 62c54.667 0 103 7.00293 145 21.0029v-69c-38 -16.667 -86.333 -26 -145 -28c-4.66699 -0.666992 -18.667 -0.333984 -42 0.999023c-106.667 4 -188 42 -244 114s-84 164.667 -84 278c0 90 25 165.667 75 227c51.333 61.333 123 96 215 104
c34 2 61.333 2.66699 82 2c49.333 -0.666992 94 -9.33398 134 -26.001v-164h-1c-22 76.667 -76.333 115 -163 115c-58.667 0 -104 -22.333 -136 -67s-48 -110.334 -48 -197.001c0 -102 19 -179.333 57 -232s89.667 -79 155 -79zM412 765.003h-114l-105 143h80l82 -84l81 84
h80z" />
    <glyph glyph-name="ccaron" unicode="&#x10d;" horiz-adv-x="484" 
d="M322 447c-40.667 0 -72.835 -15.3311 -96.502 -45.998s-35.5 -75.334 -35.5 -134.001c0 -66 13.5 -116.833 40.5 -152.5s63.167 -53.5 108.5 -53.5c36.667 0 73 4.66699 109 14v-69c-42 -13.333 -88.333 -20 -139 -20c-85.333 0 -151.666 26.667 -198.999 80
c-46.667 53.333 -70 120.666 -70 201.999c0 82 24 145 72 189s111.333 66 190 66c42.667 0 83.334 -4 122.001 -12l18 -4v-162h-1c-20 68 -59.667 102 -119 102zM330.999 575.002h-114l-105 143h80l82 -84l81 84h80z" />
    <glyph glyph-name="Dcaron" unicode="&#x10e;" horiz-adv-x="706" 
d="M329 623c-38 0 -66.667 -2.33301 -86 -7v-528c22 -8 47.667 -12 77 -12c58 0 104.167 26.5 138.5 79.5s51.5 125.5 51.5 217.5c0 82 -16.167 144.167 -48.5 186.5s-76.5 63.5 -132.5 63.5zM313 0h-215.002v480v30c0 60.667 -6.33301 103.667 -19 129
c-13.333 26.667 -36.666 46.334 -69.999 59.001v2h266h54c108.667 0 192.334 -30.333 251.001 -91c59.333 -60.667 89 -137.334 89 -230.001c0 -110 -30.667 -200.667 -92 -272s-149.333 -107 -264 -107zM387.998 765h-114l-105 143h80l82 -84l81 84h80z" />
    <glyph glyph-name="dcaron" unicode="&#x10f;" horiz-adv-x="755" 
d="M342 510h35.001v44c0 45.333 -5 78 -15 98c-8.66699 19.333 -25.667 34.666 -51 45.999v2h211v-700h-145v37c-40.667 -34 -87.667 -51 -141 -51c-54 0 -100.333 23.333 -139 70c-38 46.667 -57 107.334 -57 182.001c0 83.333 28.333 149.333 85 198
c57.333 49.333 129.666 74 216.999 74zM291.001 64c37.333 0 65.999 21.667 85.999 65v305c-14 5.33301 -30.333 8 -49 8c-40.667 0 -73.5 -16.5 -98.5 -49.5s-37.5 -82.167 -37.5 -147.5c0 -60 8.83301 -105.167 26.5 -135.5s41.834 -45.5 72.501 -45.5zM579 672
c0 18.667 6.16797 34.001 18.501 46.001s28.166 18 47.499 18s35.5 -7.5 48.5 -22.5s19.5 -35.833 19.5 -62.5c0 -33.333 -9.33301 -65.333 -28 -96s-37.667 -55 -57 -73l-10 -9l-17 19c29.333 25.333 44 53.333 44 84c0 12 -11 26.667 -33 44s-33 34.666 -33 51.999z" />
    <glyph glyph-name="Dcroat" unicode="&#x110;" horiz-adv-x="719" 
d="M335 623c-37.333 0 -65.667 -2.33301 -85 -7v-214h138v-55h-138v-259c22 -8 47.667 -12 77 -12c58 0 104 26.5 138 79.5s51 125.5 51 217.5c0 82.667 -16 145 -48 187s-76.333 63 -133 63zM104.999 0v347h-74v55h74v90c0 68 -6 115.667 -18 143c-12 28 -35.667 49 -71 63
v2h298c4.66699 0 21 -0.666992 49 -2c99.333 -4.66699 176.333 -37 231 -97c54 -59.333 81 -133.333 81 -222c0 -106.667 -28.333 -194.667 -85 -264c-57.333 -69.333 -139.333 -107 -246 -113c-33.333 -1.33301 -53 -2 -59 -2h-180z" />
    <glyph glyph-name="dslash" unicode="&#x111;" horiz-adv-x="616" 
d="M377 545h-184.998v56h182c-2.66699 27.333 -8.83398 48.166 -18.501 62.499s-24.5 25.833 -44.5 34.5v2h211v-99h39v-56h-39v-545h-145v37c-34.667 -28.667 -72 -44.667 -112 -48c-16 -2 -32 -2 -48 0c-49.333 6 -91.333 31.333 -126 76
c-34 44.667 -51 102.334 -51 173.001c0 83.333 28.333 149.333 85 198c57.333 49.333 129.666 74 216.999 74h35v35zM291.002 64c37.333 0 65.999 21.667 85.999 65v305c-14 5.33301 -30.333 8 -49 8c-40.667 0 -73.5 -16.5 -98.5 -49.5s-37.5 -82.167 -37.5 -147.5
c0 -60 8.83301 -105.167 26.5 -135.5s41.834 -45.5 72.501 -45.5z" />
    <glyph glyph-name="Emacron" unicode="&#x112;" horiz-adv-x="569" 
d="M243 409l213 -0.000976562v-75h-213v-260h133c48.667 0 84.334 6 107.001 18s38 33.333 46 64h1v-156h-432v510c0 60.667 -6.33301 103.667 -19 129c-13.333 26.667 -36.666 46.334 -69.999 59.001v2h505v-168h-2c-8.66699 34 -23.334 58.167 -44.001 72.5
s-51.334 21.5 -92.001 21.5h-133v-217zM425 770.999h-274v51h274v-51z" />
    <glyph glyph-name="emacron" unicode="&#x113;" horiz-adv-x="564" 
d="M358 61c43.333 0 83.6689 5 121.002 15v-70c-54.667 -13.333 -107.334 -20 -158.001 -20c-85.333 0 -153.333 25.333 -204 76c-50 50.667 -75 115.667 -75 195c0 89.333 23.667 156 71 200c48 44 109.333 66 184 66c74 0 130.833 -23.5 170.5 -70.5
s59.5 -115.167 59.5 -204.5h-335c1.33301 -65.333 17.666 -113 48.999 -143c32.667 -29.333 71.667 -44 117 -44zM290.003 449c-29.333 0 -52.832 -11.832 -70.499 -35.499s-26.834 -56.834 -27.501 -99.501h189c0 90 -30.333 135 -91 135zM420.004 581.001h-274v51h274v-51
z" />
    <glyph glyph-name="Edotaccent" unicode="&#x116;" horiz-adv-x="569" 
d="M243 409l213 -0.000976562v-75h-213v-260h133c48.667 0 84.334 6 107.001 18s38 33.333 46 64h1v-156h-432v510c0 60.667 -6.33301 103.667 -19 129c-13.333 26.667 -36.666 46.334 -69.999 59.001v2h505v-168h-2c-8.66699 34 -23.334 58.167 -44.001 72.5
s-51.334 21.5 -92.001 21.5h-133v-217zM298 894.999c18.667 0 34.667 -6.33301 48 -19s20 -28.334 20 -47.001s-6.66699 -34.334 -20 -47.001s-29.333 -19 -48 -19c-18 0 -33.5 6.33301 -46.5 19s-19.5 28.334 -19.5 47.001s6.5 34.334 19.5 47.001s28.5 19 46.5 19z" />
    <glyph glyph-name="edotaccent" unicode="&#x117;" horiz-adv-x="564" 
d="M358 61c43.333 0 83.6689 5 121.002 15v-70c-54.667 -13.333 -107.334 -20 -158.001 -20c-85.333 0 -153.333 25.333 -204 76c-50 50.667 -75 115.667 -75 195c0 89.333 23.667 156 71 200c48 44 109.333 66 184 66c74 0 130.833 -23.5 170.5 -70.5
s59.5 -115.167 59.5 -204.5h-335c1.33301 -65.333 17.666 -113 48.999 -143c32.667 -29.333 71.667 -44 117 -44zM290.003 449c-29.333 0 -52.832 -11.832 -70.499 -35.499s-26.834 -56.834 -27.501 -99.501h189c0 90 -30.333 135 -91 135zM281.004 705.001
c18.667 0 34.667 -6.33301 48 -19s20 -28.334 20 -47.001s-6.66699 -34.334 -20 -47.001s-29.333 -19 -48 -19c-18 0 -33.5 6.33301 -46.5 19s-19.5 28.334 -19.5 47.001s6.5 34.334 19.5 47.001s28.5 19 46.5 19z" />
    <glyph glyph-name="Eogonek" unicode="&#x118;" horiz-adv-x="569" 
d="M243 409l213 -0.000976562v-75h-213v-260h133c48.667 0 84.334 6 107.001 18s38 33.333 46 64h1v-156h-432v510c0 60.667 -6.33301 103.667 -19 129c-13.333 26.667 -36.666 46.334 -69.999 59.001v2h505v-168h-2c-8.66699 34 -23.334 58.167 -44.001 72.5
s-51.334 21.5 -92.001 21.5h-133v-217zM288 -103.001c0 16.667 6.16699 33.833 18.5 51.5s25.5 31.5 39.5 41.5l20 14h53l-16 -14c-6 -5.33301 -14.667 -17.666 -26 -36.999c-10.667 -18.667 -16 -37.334 -16 -56.001c0 -13.333 4.16699 -26 12.5 -38
s17.833 -20.333 28.5 -25l13 -8l-12 -21c-8 1.33301 -21.333 5 -40 11c-50 17.333 -75 44.333 -75 81z" />
    <glyph glyph-name="eogonek" unicode="&#x119;" horiz-adv-x="564" 
d="M358 61c43.333 0 83.6689 5 121.002 15v-70c-54.667 -13.333 -107.334 -20 -158.001 -20c-85.333 0 -153.333 25.333 -204 76c-50 50.667 -75 115.667 -75 195c0 89.333 23.667 156 71 200c48 44 109.333 66 184 66c74 0 130.833 -23.5 170.5 -70.5
s59.5 -115.167 59.5 -204.5h-335c1.33301 -65.333 17.666 -113 48.999 -143c32.667 -29.333 71.667 -44 117 -44zM290.003 449c-29.333 0 -52.832 -11.832 -70.499 -35.499s-26.834 -56.834 -27.501 -99.501h189c0 90 -30.333 135 -91 135zM250.004 -102.999
c0 16.667 6.16699 33.833 18.5 51.5s25.5 31.5 39.5 41.5l20 14h53l-16 -14c-6 -5.33301 -14.667 -17.666 -26 -36.999c-10.667 -18.667 -16 -37.334 -16 -56.001c0 -13.333 4.16699 -26 12.5 -38s17.833 -20.333 28.5 -25l13 -8l-12 -21c-8 1.33301 -21.333 5 -40 11
c-50 17.333 -75 44.333 -75 81z" />
    <glyph glyph-name="Ecaron" unicode="&#x11a;" horiz-adv-x="569" 
d="M243 409l213 -0.000976562v-75h-213v-260h133c48.667 0 84.334 6 107.001 18s38 33.333 46 64h1v-156h-432v510c0 60.667 -6.33301 103.667 -19 129c-13.333 26.667 -36.666 46.334 -69.999 59.001v2h505v-168h-2c-8.66699 34 -23.334 58.167 -44.001 72.5
s-51.334 21.5 -92.001 21.5h-133v-217zM346 764.999h-114l-105 143h80l82 -84l81 84h80z" />
    <glyph glyph-name="ecaron" unicode="&#x11b;" horiz-adv-x="564" 
d="M358 61c43.333 0 83.6689 5 121.002 15v-70c-54.667 -13.333 -107.334 -20 -158.001 -20c-85.333 0 -153.333 25.333 -204 76c-50 50.667 -75 115.667 -75 195c0 89.333 23.667 156 71 200c48 44 109.333 66 184 66c74 0 130.833 -23.5 170.5 -70.5
s59.5 -115.167 59.5 -204.5h-335c1.33301 -65.333 17.666 -113 48.999 -143c32.667 -29.333 71.667 -44 117 -44zM290.003 449c-29.333 0 -52.832 -11.832 -70.499 -35.499s-26.834 -56.834 -27.501 -99.501h189c0 90 -30.333 135 -91 135zM344.004 575.001h-114l-105 143
h80l82 -84l81 84h80z" />
    <glyph glyph-name="Gbreve" unicode="&#x11e;" horiz-adv-x="689" 
d="M476 76v150.001c0 50.667 -6 87 -18 109c-10.667 22 -33 38 -67 48v2h230v-369c-24.667 0 -61.667 -5.33301 -111 -16c-50 -10 -91.333 -15 -124 -15c-112 0 -195 36.333 -249 109c-54 73.333 -81 168.333 -81 285c0 96.667 30 176.667 90 240
c61.333 63.333 144.333 95 249 95c40 0 77 -3.33301 111 -10c36.667 -6 63 -12 79 -18v-164h-2c-10 37.333 -30.167 66 -60.5 86s-67.833 29.667 -112.5 29c-59.333 0 -106.833 -22.833 -142.5 -68.5s-53.5 -110.834 -53.5 -195.501c0 -102.667 15.833 -180.167 47.5 -232.5
s77.167 -78.5 136.5 -78.5c28 0 54 4.66699 78 14zM240 888.001h54.002c3.33301 -17.333 12.166 -31.666 26.499 -42.999s30.833 -17 49.5 -17s35.167 5.66699 49.5 17s23.166 25.666 26.499 42.999h55c-2 -34 -15.667 -63.333 -41 -88c-25.333 -23.333 -55.333 -35 -90 -35
s-64.667 11.667 -90 35c-26 24.667 -39.333 54 -40 88z" />
    <glyph glyph-name="gbreve" unicode="&#x11f;" horiz-adv-x="601" 
d="M298 64c37.333 0 65.667 21.667 85 65v305c-12 5.33301 -31 8 -57 8c-85.333 0 -128 -65.667 -128 -197c0 -59.333 9 -104.333 27 -135s42.333 -46 73 -46zM339.001 510l255 -0.00195312v-2c-26 -11.333 -43.667 -29.666 -53 -54.999c-8.66699 -24 -13 -65 -13 -123v-280
c0 -166.667 -99.333 -250 -298 -250h-90v71h87c104 0 156 47.333 156 142v24c-39.333 -34 -84.333 -51 -135 -51c-54.667 0 -102 23.333 -142 70s-60 107.334 -60 182.001c0 84 27 150.333 81 199c53.333 48.667 124 73 212 73zM185.001 697.998h54.002
c3.33301 -17.333 12.166 -31.666 26.499 -42.999s30.833 -17 49.5 -17s35.167 5.66699 49.5 17s23.166 25.666 26.499 42.999h55c-2 -34 -15.667 -63.333 -41 -88c-25.333 -23.333 -55.333 -35 -90 -35s-64.667 11.667 -90 35c-26 24.667 -39.333 54 -40 88z" />
    <glyph glyph-name="Gcommaaccent" unicode="&#x122;" horiz-adv-x="689" 
d="M476 76v150.001c0 50.667 -6 87 -18 109c-10.667 22 -33 38 -67 48v2h230v-369c-24.667 0 -61.667 -5.33301 -111 -16c-50 -10 -91.333 -15 -124 -15c-112 0 -195 36.333 -249 109c-54 73.333 -81 168.333 -81 285c0 96.667 30 176.667 90 240
c61.333 63.333 144.333 95 249 95c40 0 77 -3.33301 111 -10c36.667 -6 63 -12 79 -18v-164h-2c-10 37.333 -30.167 66 -60.5 86s-67.833 29.667 -112.5 29c-59.333 0 -106.833 -22.833 -142.5 -68.5s-53.5 -110.834 -53.5 -195.501c0 -102.667 15.833 -180.167 47.5 -232.5
s77.167 -78.5 136.5 -78.5c28 0 54 4.66699 78 14zM448 -102.999c0 -35.333 -26.333 -61.666 -79 -78.999c-16 -6 -30 -10 -42 -12l-13 23l14 7c10.667 4.66699 20.5 12.667 29.5 24s13.5 23.666 13.5 36.999c0 28.667 -9 53.667 -27 75h69
c23.333 -21.333 35 -46.333 35 -75z" />
    <glyph glyph-name="gcommaaccent" unicode="&#x123;" horiz-adv-x="601" 
d="M298 64c37.333 0 65.667 21.667 85 65v305c-12 5.33301 -31 8 -57 8c-85.333 0 -128 -65.667 -128 -197c0 -59.333 9 -104.333 27 -135s42.333 -46 73 -46zM339.001 510l255 -0.00195312v-2c-26 -11.333 -43.667 -29.666 -53 -54.999c-8.66699 -24 -13 -65 -13 -123v-280
c0 -166.667 -99.333 -250 -298 -250h-90v71h87c104 0 156 47.333 156 142v24c-39.333 -34 -84.333 -51 -135 -51c-54.667 0 -102 23.333 -142 70s-60 107.334 -60 182.001c0 84 27 150.333 81 199c53.333 48.667 124 73 212 73zM350.001 -284.002
c0 -35.333 -26.333 -61.668 -79 -79.001c-16 -6 -30 -10 -42 -12l-13 23l14 6c10.667 5.33301 20.5 13.833 29.5 25.5s13.5 23.834 13.5 36.501c0 29.333 -9 54.333 -27 75h69c23.333 -21.333 35 -46.333 35 -75z" />
    <glyph glyph-name="Itilde" unicode="&#x128;" horiz-adv-x="326" 
d="M244 0l-145.001 -0.000976562v510c0 60.667 -6.33301 103.667 -19 129c-13.333 26.667 -36.666 46.334 -69.999 59.001v2h234v-700zM132.999 787.999c-36.667 21.333 -65.334 32 -86.001 32c-22.667 0 -52.334 -11 -89.001 -33c-1.33301 24 -1.33301 36.667 0 38
c42.667 33.333 72.334 53 89.001 59c15.333 6.66699 31.333 10 48 10c26.667 0 55.334 -8.66699 86.001 -26c35.333 -20.667 64 -31 86 -31c20 0 50.333 11 91 33v-38l-45 -36c-32 -22 -63 -33 -93 -33c-30.667 0 -59.667 8.33301 -87 25z" />
    <glyph glyph-name="itilde" unicode="&#x129;" horiz-adv-x="310" 
d="M236 0h-145v364c0 46 -5.33301 78.667 -16 98c-10 20 -28.333 35.333 -55 46v2h216v-510zM128 598c-36.667 21.333 -65.332 32 -85.999 32c-21.333 0 -51 -11 -89 -33c-1.33301 24 -1.33301 36.667 0 38c0.666992 0.666992 3.5 3 8.5 7l15 11.5
c5 3.66699 8.16699 5.83398 9.5 6.50098c10 9.33301 20.667 16.666 32 21.999c28 14.667 52.333 22 73 22c26 0 54.667 -8.66699 86 -26c35.333 -20.667 63.666 -31 84.999 -31c20.667 0 51 11 91 33v-38l-44 -36c-29.333 -22 -60.333 -33 -93 -33
c-30 0 -59.333 8.33301 -88 25z" />
    <glyph glyph-name="uni012A" unicode="&#x12a;" horiz-adv-x="326" 
d="M243 0l-145.001 -0.000976562v510c0 60.667 -6.33301 103.667 -19 129c-13.333 26.667 -36.666 46.334 -69.999 59.001v2h234v-700zM295.999 770.999h-274v51h274v-51z" />
    <glyph glyph-name="imacron" unicode="&#x12b;" horiz-adv-x="310" 
d="M232 0h-144v364c0 46 -5.33301 78.667 -16 98c-10 20 -28.333 35.333 -55 46v2h215v-510zM286 581h-274v51h274v-51z" />
    <glyph glyph-name="Iogonek" unicode="&#x12e;" horiz-adv-x="326" 
d="M243 0l-145.001 -0.000976562v510c0 60.667 -6.33301 103.667 -19 129c-13.333 26.667 -36.666 46.334 -69.999 59.001v2h234v-700zM85.999 -103.001c0 16.667 6.16699 33.833 18.5 51.5s25.5 31.5 39.5 41.5l20 14h53l-16 -14c-6 -5.33301 -14.667 -17.666 -26 -36.999
c-10.667 -18.667 -16 -37.334 -16 -56.001c0 -13.333 4.16699 -26 12.5 -38s17.833 -20.333 28.5 -25l13 -8l-12 -21c-8 1.33301 -21.333 5 -40 11c-50 17.333 -75 44.333 -75 81z" />
    <glyph glyph-name="iogonek" unicode="&#x12f;" horiz-adv-x="312" 
d="M235 0h-145v364c0 46 -5.33301 78.667 -16 98c-10 20 -28.333 35.333 -55 46v2h216v-510zM63 626c0 20 8.66699 36.667 26 50s38.666 20 63.999 20s46.833 -6.66699 64.5 -20s26.5 -30 26.5 -50c0 -19.333 -8.83301 -35.833 -26.5 -49.5s-39.167 -20.5 -64.5 -20.5
s-46.666 6.83301 -63.999 20.5s-26 30.167 -26 49.5zM80 -103c0 16.667 6.16699 33.833 18.5 51.5s25.5 31.5 39.5 41.5l20 14h53l-16 -14c-6 -5.33301 -14.667 -17.666 -26 -36.999c-10.667 -18.667 -16 -37.334 -16 -56.001c0 -13.333 4.16699 -26 12.5 -38
s17.833 -20.333 28.5 -25l13 -8l-12 -21c-8 1.33301 -21.333 5 -40 11c-50 17.333 -75 44.333 -75 81z" />
    <glyph glyph-name="Idot" unicode="&#x130;" horiz-adv-x="326" 
d="M243 0l-145.001 -0.000976562v510c0 60.667 -6.33301 103.667 -19 129c-13.333 26.667 -36.666 46.334 -69.999 59.001v2h234v-700zM156.999 894.999c18.667 0 34.667 -6.33301 48 -19s20 -28.334 20 -47.001s-6.66699 -34.334 -20 -47.001s-29.333 -19 -48 -19
c-18 0 -33.5 6.33301 -46.5 19s-19.5 28.334 -19.5 47.001s6.5 34.334 19.5 47.001s28.5 19 46.5 19z" />
    <glyph glyph-name="dotlessi" unicode="&#x131;" horiz-adv-x="310" 
d="M232 0h-144v364c0 46 -5.33301 78.667 -16 98c-10 20 -28.333 35.333 -55 46v2h215v-510z" />
    <glyph glyph-name="Kcommaaccent" unicode="&#x136;" horiz-adv-x="698" 
d="M243 0l-145.001 -0.000976562v510c0 60.667 -6.33301 103.667 -19 129c-13.333 26.667 -36.666 46.334 -69.999 59.001v2h234v-325l266 325h112l-219 -261l272 -439h-179l-191 336l-61 -79v-257zM413.999 -103.001c0 -35.333 -26.333 -61.666 -79 -78.999
c-16 -6 -30 -10 -42 -12l-13 23l14 7c10.667 4.66699 20.5 12.667 29.5 24s13.5 23.666 13.5 36.999c0 28.667 -9 53.667 -27 75h69c23.333 -21.333 35 -46.333 35 -75z" />
    <glyph glyph-name="kcommaaccent" unicode="&#x137;" horiz-adv-x="592" 
d="M231 0l-145 -0.000976562v554c0 44 -5.16699 76.333 -15.5 97s-28.5 36.334 -54.5 47.001v2h215v-419l183 229h122l-169 -196l218 -314h-181l-134 215l-39 -46v-169zM364 -103.001c0 -35.333 -26.333 -61.666 -79 -78.999c-16 -6 -30 -10 -42 -12l-13 23l14 7
c10.667 4.66699 20.5 12.667 29.5 24s13.5 23.666 13.5 36.999c0 28.667 -9 53.667 -27 75h69c23.333 -21.333 35 -46.333 35 -75z" />
    <glyph glyph-name="Lacute" unicode="&#x139;" horiz-adv-x="549" 
d="M508 156l-0.000976562 -156.002h-410v510c0 60.667 -6.33301 103.667 -19 129c-13.333 26.667 -36.666 46.334 -69.999 59.001v2h234v-622c0.666992 0 2.16699 -0.166992 4.5 -0.5s5.5 -0.666016 9.5 -0.999023s8 -0.5 12 -0.5c20 -1.33301 32.667 -2 38 -2h6h24
c53.333 0 92.833 6.33301 118.5 19s42.5 33.667 50.5 63h2zM139.999 764.998h-81l93 143h109z" />
    <glyph glyph-name="lacute" unicode="&#x13a;" horiz-adv-x="306" 
d="M231 0l-145 -0.000976562v554c0 44 -5.16699 76.333 -15.5 97s-28.5 36.334 -54.5 47.001v2h215v-700zM136 764.999h-81l93 143h109z" />
    <glyph glyph-name="Lcommaaccent" unicode="&#x13b;" horiz-adv-x="549" 
d="M508 156l-0.000976562 -156.002h-410v510c0 60.667 -6.33301 103.667 -19 129c-13.333 26.667 -36.666 46.334 -69.999 59.001v2h234v-622c0.666992 0 2.16699 -0.166992 4.5 -0.5s5.5 -0.666016 9.5 -0.999023s8 -0.5 12 -0.5c20 -1.33301 32.667 -2 38 -2h6h24
c53.333 0 92.833 6.33301 118.5 19s42.5 33.667 50.5 63h2zM348.999 -103.002c0 -35.333 -26.334 -61.666 -79.001 -78.999c-16 -6 -30 -10 -42 -12l-13 23l15 7c10.667 4.66699 20.334 12.667 29.001 24s13 23.666 13 36.999c0 28.667 -9 53.667 -27 75h69
c23.333 -21.333 35 -46.333 35 -75z" />
    <glyph glyph-name="lcommaaccent" unicode="&#x13c;" horiz-adv-x="306" 
d="M231 0l-145 -0.000976562v554c0 44 -5.16699 76.333 -15.5 97s-28.5 36.334 -54.5 47.001v2h215v-700zM211 -103.001c0 -35.333 -26.334 -61.666 -79.001 -78.999c-16 -6 -30 -10 -42 -12l-13 23l15 7c10.667 4.66699 20.334 12.667 29.001 24s13 23.666 13 36.999
c0 28.667 -9 53.667 -27 75h69c23.333 -21.333 35 -46.333 35 -75z" />
    <glyph glyph-name="Lcaron" unicode="&#x13d;" horiz-adv-x="553" 
d="M508 156l-0.000976562 -156.002h-410v510c0 60.667 -6.33301 103.667 -19 129c-13.333 26.667 -36.666 46.334 -69.999 59.001v2h234v-622c0.666992 0 2.16699 -0.166992 4.5 -0.5s5.5 -0.666016 9.5 -0.999023s8 -0.5 12 -0.5c20 -1.33301 32.667 -2 38 -2h6h24
c53.333 0 92.833 6.33301 118.5 19s42.5 33.667 50.5 63h2zM358.999 660.998c0 18.667 6.16797 33.999 18.501 45.999s28.166 18 47.499 18s35.5 -7.5 48.5 -22.5s19.5 -35.833 19.5 -62.5c0 -33.333 -9.33301 -65.333 -28 -96s-37.667 -55 -57 -73l-10 -9l-17 19
c29.333 25.333 44 53.333 44 84c0 12.667 -11 27.334 -33 44.001s-33 34 -33 52z" />
    <glyph glyph-name="lcaron" unicode="&#x13e;" horiz-adv-x="472" 
d="M231 0l-145 -0.000976562v554c0 44 -5.16699 76.333 -15.5 97s-28.5 36.334 -54.5 47.001v2h215v-700zM291 670.999c0 18.667 6.16797 33.999 18.501 45.999s28.166 18 47.499 18s35.5 -7.5 48.5 -22.5s19.5 -35.833 19.5 -62.5c0 -33.333 -9.33301 -65.333 -28 -96
s-37.667 -55 -57 -73l-10 -9l-17 19c29.333 25.333 44 53.333 44 84c0 12.667 -11 27.334 -33 44.001s-33 34 -33 52z" />
    <glyph glyph-name="Lslash" unicode="&#x141;" horiz-adv-x="579" 
d="M533 78l-0.000976562 -78.002h-409v273l-74 -45v70l74 45v167c0 58.667 -6.66699 101.334 -20 128.001c-13.333 27.333 -36.666 47.333 -69.999 60v2h235v-267l102 64v-70l-102 -64v-285c0.666992 0 2.16699 -0.166992 4.5 -0.5s5.5 -0.666016 9.5 -0.999023
s8 -0.5 12 -0.5c20 -1.33301 32.667 -2 38 -2h47c46.667 0 81.667 6.83301 105 20.5s39 34.167 47 61.5h2c0 -28.667 -0.333008 -54.667 -1 -78z" />
    <glyph glyph-name="lslash" unicode="&#x142;" horiz-adv-x="396" 
d="M270 0h-145v282l-87 -54v70l87 54v202c0 45.333 -5.33301 77.666 -16 96.999c-11.333 20.667 -29.333 36.334 -54 47.001v2h215v-258l88 55v-70l-88 -55v-372z" />
    <glyph glyph-name="Nacute" unicode="&#x143;" horiz-adv-x="754" 
d="M189 0l-91.001 -0.000976562v510c0 60.667 -6.33301 103.667 -19 129c-13.333 26.667 -36.666 46.334 -69.999 59.001v2h239l331 -510h2v510h91v-700h-131l-351 536h-1v-536zM352.999 764.999h-81l93 143h109z" />
    <glyph glyph-name="nacute" unicode="&#x144;" horiz-adv-x="631" 
d="M231 368l-0.000976562 -368.001h-145v364c0 44 -5.16699 76.333 -15.5 97s-28.5 36.334 -54.5 47.001v2h215v-43c46.667 37.333 95.334 56 146.001 56c65.333 0 112.333 -14.167 141 -42.5s43 -76.5 43 -144.5v-336h-145v331c0 40.667 -6 69.5 -18 86.5
s-30.667 25.5 -56 25.5c-44 0 -81 -25 -111 -75zM303.999 574.999h-81l93 143h109z" />
    <glyph glyph-name="Ncommaaccent" unicode="&#x145;" horiz-adv-x="753" 
d="M189 0l-91.001 -0.000976562v510c0 60.667 -6.33301 103.667 -19 129c-13.333 26.667 -36.666 46.334 -69.999 59.001v2h239l331 -510h2v510h91v-700h-131l-351 536h-1v-536zM445.999 -103.001c0 -35.333 -26.333 -61.666 -79 -78.999c-16 -6 -30 -10 -42 -12l-13 23
l14 7c10.667 4.66699 20.5 12.667 29.5 24s13.5 23.666 13.5 36.999c0 28.667 -9 53.667 -27 75h69c23.333 -21.333 35 -46.333 35 -75z" />
    <glyph glyph-name="ncommaaccent" unicode="&#x146;" horiz-adv-x="631" 
d="M231 368l-0.000976562 -368.001h-145v364c0 44 -5.16699 76.333 -15.5 97s-28.5 36.334 -54.5 47.001v2h215v-43c46.667 37.333 95.334 56 146.001 56c65.333 0 112.333 -14.167 141 -42.5s43 -76.5 43 -144.5v-336h-145v331c0 40.667 -6 69.5 -18 86.5
s-30.667 25.5 -56 25.5c-44 0 -81 -25 -111 -75zM376.999 -103.001c0 -35.333 -26.334 -61.666 -79.001 -78.999c-16 -6 -30 -10 -42 -12l-13 23l15 7c10.667 4.66699 20.334 12.667 29.001 24s13 23.666 13 36.999c0 28.667 -9 53.667 -27 75h69
c23.333 -21.333 35 -46.333 35 -75z" />
    <glyph glyph-name="Ncaron" unicode="&#x147;" horiz-adv-x="753" 
d="M189 0l-91.001 -0.000976562v510c0 60.667 -6.33301 103.667 -19 129c-13.333 26.667 -36.666 46.334 -69.999 59.001v2h239l331 -510h2v510h91v-700h-131l-351 536h-1v-536zM421.999 764.999h-114l-105 143h80l82 -84l81 84h80z" />
    <glyph glyph-name="ncaron" unicode="&#x148;" horiz-adv-x="631" 
d="M231 368l-0.000976562 -368.001h-145v364c0 44 -5.16699 76.333 -15.5 97s-28.5 36.334 -54.5 47.001v2h215v-43c46.667 37.333 95.334 56 146.001 56c65.333 0 112.333 -14.167 141 -42.5s43 -76.5 43 -144.5v-336h-145v331c0 40.667 -6 69.5 -18 86.5
s-30.667 25.5 -56 25.5c-44 0 -81 -25 -111 -75zM372.999 574.999h-114l-105 143h80l82 -84l81 84h80z" />
    <glyph glyph-name="Omacron" unicode="&#x14c;" horiz-adv-x="752" 
d="M376 -15c-108 0 -189.667 38.999 -245 116.999c-50 74.667 -75 165 -75 271c0 94.667 27.667 175.167 83 241.5s134.333 99.5 237 99.5s181.667 -33.167 237 -99.5s83 -146.833 83 -241.5c0 -71.333 -11 -135.666 -33 -192.999c-20.667 -55.333 -56 -102 -106 -140
c-48.667 -36.667 -109 -55 -181 -55zM537 370.999c0 84.667 -14.332 150.168 -42.999 196.501s-68 69.5 -118 69.5c-50.667 0 -90.334 -23 -119.001 -69s-43 -111.667 -43 -197c0 -92.667 14 -167.334 42 -224.001c28.667 -56.667 68.667 -85 120 -85s91 28.333 119 85
c28 57.333 42 132 42 224zM512.001 771h-274v51h274v-51z" />
    <glyph glyph-name="omacron" unicode="&#x14d;" horiz-adv-x="596" 
d="M37 269c0 75.333 22.333 136.334 67 183.001c45.333 47.333 110 71 194 71c83.333 0 147.666 -23.667 192.999 -71s68 -108.333 68 -183c0 -80.667 -21.667 -148.334 -65 -203.001c-43.333 -53.333 -108.666 -80 -195.999 -80c-88 0 -153.667 26.667 -197 80
c-42.667 53.333 -64 121 -64 203zM406 265.001c0 60.667 -9.49902 107 -28.499 139s-45.5 48 -79.5 48s-60.667 -16 -80 -48s-29 -78.333 -29 -139c0 -66 9.33301 -117.167 28 -153.5s45.667 -54.5 81 -54.5s62.166 18.167 80.499 54.5s27.5 87.5 27.5 153.5z
M431.001 581.001h-274v51h274v-51z" />
    <glyph glyph-name="Ohungarumlaut" unicode="&#x150;" horiz-adv-x="752" 
d="M376 -15c-108 0 -189.667 38.999 -245 116.999c-50 74.667 -75 165 -75 271c0 94.667 27.667 175.167 83 241.5s134.333 99.5 237 99.5s181.667 -33.167 237 -99.5s83 -146.833 83 -241.5c0 -71.333 -11 -135.666 -33 -192.999c-20.667 -55.333 -56 -102 -106 -140
c-48.667 -36.667 -109 -55 -181 -55zM537 370.999c0 84.667 -14.332 150.168 -42.999 196.501s-68 69.5 -118 69.5c-50.667 0 -90.334 -23 -119.001 -69s-43 -111.667 -43 -197c0 -92.667 14 -167.334 42 -224.001c28.667 -56.667 68.667 -85 120 -85s91 28.333 119 85
c28 57.333 42 132 42 224zM291.001 765h-81l93 143h109zM465.001 765h-82l93 143h110z" />
    <glyph glyph-name="ohungarumlaut" unicode="&#x151;" horiz-adv-x="596" 
d="M37 269c0 75.333 22.333 136.334 67 183.001c45.333 47.333 110 71 194 71c83.333 0 147.666 -23.667 192.999 -71s68 -108.333 68 -183c0 -80.667 -21.667 -148.334 -65 -203.001c-43.333 -53.333 -108.666 -80 -195.999 -80c-88 0 -153.667 26.667 -197 80
c-42.667 53.333 -64 121 -64 203zM406 265.001c0 60.667 -9.49902 107 -28.499 139s-45.5 48 -79.5 48s-60.667 -16 -80 -48s-29 -78.333 -29 -139c0 -66 9.33301 -117.167 28 -153.5s45.667 -54.5 81 -54.5s62.166 18.167 80.499 54.5s27.5 87.5 27.5 153.5z
M207.001 575.001h-81l93 143h109zM381.001 575.001h-82l93 143h110z" />
    <glyph glyph-name="OE" unicode="&#x152;" horiz-adv-x="988" 
d="M653 408h208v-76h-208v-258h128c48.667 0 84.167 6 106.5 18s37.5 33.333 45.5 64h2c0 -28.667 -0.333008 -54.667 -1 -78v-78h-553c-57.333 -0 -107.333 9.83301 -150 29.5s-76.5 47.167 -101.5 82.5s-43.5 75.166 -55.5 119.499s-18 93.5 -18 147.5
c0 92.667 28 169.334 84 230.001s136.333 91 241 91h533v-168h-1c-8.66699 34 -23.5 58.167 -44.5 72.5s-51.833 21.5 -92.5 21.5h-123v-218zM381 628c-52 0 -92.833 -21.8311 -122.5 -65.498s-44.5 -106.834 -44.5 -189.501c0 -90.667 14.333 -163.334 43 -218.001
c28.667 -54 70 -81 124 -81c62.667 0 105 29 127 87v357c-4 40 -16.667 68.333 -38 85s-51 25 -89 25z" />
    <glyph glyph-name="oe" unicode="&#x153;" horiz-adv-x="918" 
d="M815 83l0.00292969 -76.999c-49.333 -13.333 -98.333 -20 -147 -20c-79.333 0 -141.333 24.333 -186 73c-44.667 -48.667 -105.667 -73 -183 -73c-60 0 -110.167 13.5 -150.5 40.5s-69 61.167 -86 102.5s-25.5 88 -25.5 140c0 74.667 22.667 135.667 68 183
s110 71 194 71c75.333 0 134.666 -21 177.999 -63c44.667 42 102.667 63 174 63c74.667 0 131.667 -23.333 171 -70s59 -115 59 -205h-335c1.33301 -66.667 15.666 -114.334 42.999 -143.001c29.333 -29.333 65.666 -44 108.999 -44c44.667 0 83.667 7.33301 117 22z
M406.003 265.001c0 61.333 -9.33301 107.833 -28 139.5s-45 47.5 -79 47.5s-60.667 -16 -80 -48s-29 -78.333 -29 -139c0 -66 9.33301 -117.167 28 -153.5s45.667 -54.5 81 -54.5s62 18 80 54s27 87.333 27 154zM644.003 449.001c-29.333 0 -52.832 -11.832 -70.499 -35.499
s-26.834 -56.834 -27.501 -99.501h189c0 90 -30.333 135 -91 135z" />
    <glyph glyph-name="Racute" unicode="&#x154;" horiz-adv-x="637" 
d="M243 0h-145.001v510c0 60.667 -6.33301 103.667 -19 129c-13.333 26.667 -36.666 46.334 -69.999 59.001v2h278c190 0 285 -66 285 -198c0 -40 -13.333 -75.333 -40 -106s-62 -51.667 -106 -63c60 -14.667 103 -60.334 129 -137.001l70 -196h-154l-55 173
c-13.333 41.333 -29.5 70.833 -48.5 88.5s-42.833 26.5 -71.5 26.5h-53v-288zM242.999 617v-248c18 -5.33301 35 -8 51 -8c41.333 0 73.833 12 97.5 36s35.5 57.333 35.5 100c0 84.667 -43.667 127 -131 127c-23.333 0 -41 -2.33301 -53 -7zM297.999 765h-81l93 143h109z
" />
    <glyph glyph-name="racute" unicode="&#x155;" horiz-adv-x="465" 
d="M337 422c-44.667 0 -82.667 -19.667 -114 -59v-363h-145v364c0 44.667 -4.66699 77.334 -14 98.001c-8.66699 19.333 -25.667 34.666 -51 45.999v2h210v-49c45.333 41.333 93 62 143 62c28 0 49.333 -3.33301 64 -10l8 -3v-166h-1c-12.667 52 -46 78 -100 78zM215 575
h-81l93 143h109z" />
    <glyph glyph-name="Rcommaaccent" unicode="&#x156;" horiz-adv-x="637" 
d="M243 0h-145.001v510c0 60.667 -6.33301 103.667 -19 129c-13.333 26.667 -36.666 46.334 -69.999 59.001v2h278c190 0 285 -66 285 -198c0 -40 -13.333 -75.333 -40 -106s-62 -51.667 -106 -63c60 -14.667 103 -60.334 129 -137.001l70 -196h-154l-55 173
c-13.333 41.333 -29.5 70.833 -48.5 88.5s-42.833 26.5 -71.5 26.5h-53v-288zM242.999 617v-248c18 -5.33301 35 -8 51 -8c41.333 0 73.833 12 97.5 36s35.5 57.333 35.5 100c0 84.667 -43.667 127 -131 127c-23.333 0 -41 -2.33301 -53 -7zM389.999 -103
c0 -35.333 -26.333 -61.666 -79 -78.999c-16 -6 -30 -10 -42 -12l-13 23l14 7c10.667 4.66699 20.5 12.667 29.5 24s13.5 23.666 13.5 36.999c0 28.667 -9 53.667 -27 75h69c23.333 -21.333 35 -46.333 35 -75z" />
    <glyph glyph-name="rcommaaccent" unicode="&#x157;" horiz-adv-x="465" 
d="M337 422c-44.667 0 -82.667 -19.667 -114 -59v-363h-145v364c0 44.667 -4.66699 77.334 -14 98.001c-8.66699 19.333 -25.667 34.666 -51 45.999v2h210v-49c45.333 41.333 93 62 143 62c28 0 49.333 -3.33301 64 -10l8 -3v-166h-1c-12.667 52 -46 78 -100 78zM211 -103
c0 -35.333 -26.334 -61.666 -79.001 -78.999c-16 -6 -30 -10 -42 -12l-13 23l15 7c10.667 4.66699 20.334 12.667 29.001 24s13 23.666 13 36.999c0 28.667 -9 53.667 -27 75h69c23.333 -21.333 35 -46.333 35 -75z" />
    <glyph glyph-name="Rcaron" unicode="&#x158;" horiz-adv-x="637" 
d="M243 0h-145.001v510c0 60.667 -6.33301 103.667 -19 129c-13.333 26.667 -36.666 46.334 -69.999 59.001v2h278c190 0 285 -66 285 -198c0 -40 -13.333 -75.333 -40 -106s-62 -51.667 -106 -63c60 -14.667 103 -60.334 129 -137.001l70 -196h-154l-55 173
c-13.333 41.333 -29.5 70.833 -48.5 88.5s-42.833 26.5 -71.5 26.5h-53v-288zM242.999 617v-248c18 -5.33301 35 -8 51 -8c41.333 0 73.833 12 97.5 36s35.5 57.333 35.5 100c0 84.667 -43.667 127 -131 127c-23.333 0 -41 -2.33301 -53 -7zM356.999 765h-114l-105 143h80
l82 -84l81 84h80z" />
    <glyph glyph-name="rcaron" unicode="&#x159;" horiz-adv-x="465" 
d="M337 422c-44.667 0 -82.667 -19.667 -114 -59v-363h-145v364c0 44.667 -4.66699 77.334 -14 98.001c-8.66699 19.333 -25.667 34.666 -51 45.999v2h210v-49c45.333 41.333 93 62 143 62c28 0 49.333 -3.33301 64 -10l8 -3v-166h-1c-12.667 52 -46 78 -100 78zM288 575
h-114l-105 143h80l82 -84l81 84h80z" />
    <glyph glyph-name="Sacute" unicode="&#x15a;" horiz-adv-x="583" 
d="M399 168c0 28.667 -12.001 53.498 -36.001 74.498s-65.667 42.167 -125 63.5c-68 24.667 -116.333 53 -145 85c-28 32.667 -42 76.334 -42 131.001c0 54 19 97.5 57 130.5s92.667 52.5 164 58.5c40.667 1.33301 65.667 1.66602 75 0.999023
c54 -3.33301 99.333 -10.666 136 -21.999v-168h-2c-22 76.667 -74.667 115 -158 115c-48.667 0 -85.5 -7.66699 -110.5 -23s-37.5 -36.333 -37.5 -63c0 -24.667 10.167 -45.834 30.5 -63.501s57.833 -36.5 112.5 -56.5c80 -31.333 137 -64.666 171 -99.999s51 -78 51 -128
c0 -68.667 -25.167 -122.167 -75.5 -160.5s-119.166 -57.5 -206.499 -57.5c-36 0 -73.333 3.66699 -112 11c-35.333 6.66699 -59 13.334 -71 20.001v75c54 -19.333 113 -29 177 -29c44 0 79.5 9.66699 106.5 29s40.5 45 40.5 77zM292.999 764.998h-81l93 143h109z" />
    <glyph glyph-name="sacute" unicode="&#x15b;" horiz-adv-x="485" 
d="M313 117c0 17.333 -7.83496 32.1689 -23.502 44.502s-44.167 25.166 -85.5 38.499c-57.333 17.333 -98.5 39.666 -123.5 66.999s-37.5 62 -37.5 104c0 46 18.5 82.833 55.5 110.5s86.167 41.5 147.5 41.5c36.667 0 80.667 -4 132 -12l23 -4v-162h-2
c-15.333 71.333 -62.333 107 -141 107c-27.333 0 -49 -4.83301 -65 -14.5s-24 -22.5 -24 -38.5c0 -14.667 6.33301 -27.167 19 -37.5s37.334 -21.166 74.001 -32.499c76 -24 126.333 -50 151 -78c25.333 -28.667 38 -63.334 38 -104.001c0 -46 -18.333 -84.333 -55 -115
c-35.333 -30.667 -95 -46 -179 -46c-60.667 0 -115 11.667 -163 35v74c48.667 -26 100 -39 154 -39c32.667 0 58.334 5.33301 77.001 16s28 25.667 28 45zM225.998 575.003h-81l93 143h109z" />
    <glyph glyph-name="Scedilla" unicode="&#x15e;" horiz-adv-x="583" 
d="M399 168c0 28.667 -12.001 53.498 -36.001 74.498s-65.667 42.167 -125 63.5c-68 24.667 -116.333 53 -145 85c-28 32.667 -42 76.334 -42 131.001c0 54 19 97.5 57 130.5s92.667 52.5 164 58.5c40.667 1.33301 65.667 1.66602 75 0.999023
c54 -3.33301 99.333 -10.666 136 -21.999v-168h-2c-22 76.667 -74.667 115 -158 115c-48.667 0 -85.5 -7.66699 -110.5 -23s-37.5 -36.333 -37.5 -63c0 -24.667 10.167 -45.834 30.5 -63.501s57.833 -36.5 112.5 -56.5c80 -31.333 137 -64.666 171 -99.999s51 -78 51 -128
c0 -68.667 -25.167 -122.167 -75.5 -160.5s-119.166 -57.5 -206.499 -57.5c-36 0 -73.333 3.66699 -112 11c-35.333 6.66699 -59 13.334 -71 20.001v75c54 -19.333 113 -29 177 -29c44 0 79.5 9.66699 106.5 29s40.5 45 40.5 77zM247.999 3.99805h54v-38c44 0 66 -19 66 -57
c0 -18 -8.33301 -35.333 -25 -52c-16 -18 -32.333 -31.333 -49 -40l-24 -13l-17 22c28 21.333 42 44 42 68c0 22 -15.667 33 -47 33v77z" />
    <glyph glyph-name="scedilla" unicode="&#x15f;" horiz-adv-x="485" 
d="M313 117c0 17.333 -7.83496 32.1689 -23.502 44.502s-44.167 25.166 -85.5 38.499c-57.333 17.333 -98.5 39.666 -123.5 66.999s-37.5 62 -37.5 104c0 46 18.5 82.833 55.5 110.5s86.167 41.5 147.5 41.5c36.667 0 80.667 -4 132 -12l23 -4v-162h-2
c-15.333 71.333 -62.333 107 -141 107c-27.333 0 -49 -4.83301 -65 -14.5s-24 -22.5 -24 -38.5c0 -14.667 6.33301 -27.167 19 -37.5s37.334 -21.166 74.001 -32.499c76 -24 126.333 -50 151 -78c25.333 -28.667 38 -63.334 38 -104.001c0 -46 -18.333 -84.333 -55 -115
c-35.333 -30.667 -95 -46 -179 -46c-60.667 0 -115 11.667 -163 35v74c48.667 -26 100 -39 154 -39c32.667 0 58.334 5.33301 77.001 16s28 25.667 28 45zM200.998 4.00293l54 -0.000976562v-38c44 0 66 -19 66 -57c0 -18 -8.33301 -35.333 -25 -52
c-15.333 -17.333 -31.333 -30.666 -48 -39.999l-25 -13l-17 22c28 21.333 42 44 42 68c0 22 -15.667 33 -47 33v77z" />
    <glyph glyph-name="Scaron" unicode="&#x160;" horiz-adv-x="583" 
d="M399 168c0 28.667 -12.001 53.498 -36.001 74.498s-65.667 42.167 -125 63.5c-68 24.667 -116.333 53 -145 85c-28 32.667 -42 76.334 -42 131.001c0 54 19 97.5 57 130.5s92.667 52.5 164 58.5c40.667 1.33301 65.667 1.66602 75 0.999023
c54 -3.33301 99.333 -10.666 136 -21.999v-168h-2c-22 76.667 -74.667 115 -158 115c-48.667 0 -85.5 -7.66699 -110.5 -23s-37.5 -36.333 -37.5 -63c0 -24.667 10.167 -45.834 30.5 -63.501s57.833 -36.5 112.5 -56.5c80 -31.333 137 -64.666 171 -99.999s51 -78 51 -128
c0 -68.667 -25.167 -122.167 -75.5 -160.5s-119.166 -57.5 -206.499 -57.5c-36 0 -73.333 3.66699 -112 11c-35.333 6.66699 -59 13.334 -71 20.001v75c54 -19.333 113 -29 177 -29c44 0 79.5 9.66699 106.5 29s40.5 45 40.5 77zM347.999 764.998h-114l-105 143h80l82 -84
l81 84h80z" />
    <glyph glyph-name="scaron" unicode="&#x161;" horiz-adv-x="485" 
d="M313 117c0 17.333 -7.83496 32.1689 -23.502 44.502s-44.167 25.166 -85.5 38.499c-57.333 17.333 -98.5 39.666 -123.5 66.999s-37.5 62 -37.5 104c0 46 18.5 82.833 55.5 110.5s86.167 41.5 147.5 41.5c36.667 0 80.667 -4 132 -12l23 -4v-162h-2
c-15.333 71.333 -62.333 107 -141 107c-27.333 0 -49 -4.83301 -65 -14.5s-24 -22.5 -24 -38.5c0 -14.667 6.33301 -27.167 19 -37.5s37.334 -21.166 74.001 -32.499c76 -24 126.333 -50 151 -78c25.333 -28.667 38 -63.334 38 -104.001c0 -46 -18.333 -84.333 -55 -115
c-35.333 -30.667 -95 -46 -179 -46c-60.667 0 -115 11.667 -163 35v74c48.667 -26 100 -39 154 -39c32.667 0 58.334 5.33301 77.001 16s28 25.667 28 45zM296.998 575.003h-114l-105 143h80l82 -84l81 84h80z" />
    <glyph glyph-name="Tcommaaccent" unicode="&#x162;" horiz-adv-x="636" 
d="M451 626h-59v-626h-145v626h-59c-77.333 0 -123 -31.333 -137 -94h-1v168h539v-168h-1c-14 62.667 -59.667 94 -137 94zM380 -103c0 -20.667 -10.001 -38.6689 -30.001 -54.002s-40 -25.333 -60 -30l-31 -7l-13 23c1.33301 0.666992 6.33301 3 15 7
c8.66699 4.66699 17.834 12.834 27.501 24.501s14.5 23.834 14.5 36.501c0 28.667 -9 53.667 -27 75h69c23.333 -21.333 35 -46.333 35 -75z" />
    <glyph glyph-name="tcommaaccent" unicode="&#x163;" horiz-adv-x="372" 
d="M237 662l-0.000976562 -152.002h113v-75h-113v-256c0 -39.333 6.33301 -68.166 19 -86.499s33.334 -27.5 62.001 -27.5h33v-65h-48c-74 0 -127.667 15.833 -161 47.5s-50 80.834 -50 147.501v240h-73v75h73v111zM256.999 -103.002
c0 -21.333 -10.334 -39.335 -31.001 -54.002c-20 -15.333 -40 -25.333 -60 -30l-30 -7l-13 23c1.33301 0.666992 6.33301 3 15 7c8.66699 4.66699 17.834 12.834 27.501 24.501s14.5 23.834 14.5 36.501c0 28.667 -9 53.667 -27 75h69c23.333 -21.333 35 -46.333 35 -75z
" />
    <glyph glyph-name="Tcaron" unicode="&#x164;" horiz-adv-x="636" 
d="M451 626h-59v-626h-145v626h-59c-77.333 0 -123 -31.333 -137 -94h-1v168h539v-168h-1c-14 62.667 -59.667 94 -137 94zM373 765h-114l-105 143h80l82 -84l81 84h80z" />
    <glyph glyph-name="tcaron" unicode="&#x165;" horiz-adv-x="538" 
d="M350 510l-0.000976562 -75.002h-113v-256c0 -39.333 6.33301 -68.166 19 -86.499s33.334 -27.5 62.001 -27.5h33v-65h-48c-74 0 -127.667 15.833 -161 47.5s-50 80.834 -50 147.501v240h-73v75h73v111l145 41v-152h113zM364.999 670.998
c0 18.667 6.16797 33.999 18.501 45.999s28.166 18 47.499 18s35.5 -7.5 48.5 -22.5s19.5 -35.833 19.5 -62.5c0 -33.333 -9.33301 -65.333 -28 -96s-37.667 -55 -57 -73l-10 -9l-17 19c29.333 25.333 44 53.333 44 84c0 12.667 -11 27.334 -33 44.001s-33 34 -33 52z" />
    <glyph glyph-name="Utilde" unicode="&#x168;" horiz-adv-x="707" 
d="M84 274v236c0 60.667 -6.33301 103.667 -19 129c-13.333 26.667 -36.666 46.334 -69.999 59.001v2h234v-433c0 -66 12.667 -116.667 38 -152s60.333 -53 105 -53c47.333 0 84.333 17.833 111 53.5s40 87.5 40 155.5v429h108v-421
c0 -94.667 -24.333 -167.334 -73 -218.001s-112.334 -76 -191.001 -76c-88 0 -157.167 25 -207.5 75s-75.5 121.333 -75.5 214zM328 788c-36.667 21.333 -65.334 32 -86.001 32c-22.667 0 -52.334 -11 -89.001 -33c-1.33301 24 -1.33301 36.667 0 38
c42.667 33.333 72.334 53 89.001 59c15.333 6.66699 31.333 10 48 10c26.667 0 55.334 -8.66699 86.001 -26c35.333 -20.667 64 -31 86 -31c20 0 50.333 11 91 33v-38l-45 -36c-32 -22 -63 -33 -93 -33c-30.667 0 -59.667 8.33301 -87 25z" />
    <glyph glyph-name="utilde" unicode="&#x169;" horiz-adv-x="633" 
d="M16 508l0.000976562 1.99902h215v-323c0 -43.333 6 -74.333 18 -93s30.667 -28 56 -28c42 0 77.667 30 107 90v354h145v-510h-145v54c-44 -45.333 -92 -68 -144 -68c-62.667 0 -108.834 15 -138.501 45s-44.167 77.667 -43.5 143v182c0 45.333 -5.33301 79.333 -16 102
s-28.667 39.334 -54 50.001zM289.001 597.999c-36.667 21.333 -65.334 32 -86.001 32c-22 0 -51.667 -11 -89 -33c-1.33301 24 -1.33301 36.667 0 38c42.667 33.333 72.334 53 89.001 59c15.333 6.66699 31.333 10 48 10c26.667 0 55.334 -8.66699 86.001 -26
c35.333 -20.667 64 -31 86 -31c19.333 0 49.666 11 90.999 33v-38l-45 -36c-32 -22 -63 -33 -93 -33c-29.333 0 -58.333 8.33301 -87 25z" />
    <glyph glyph-name="Umacron" unicode="&#x16a;" horiz-adv-x="707" 
d="M84 274v236c0 60.667 -6.33301 103.667 -19 129c-13.333 26.667 -36.666 46.334 -69.999 59.001v2h234v-433c0 -66 12.667 -116.667 38 -152s60.333 -53 105 -53c47.333 0 84.333 17.833 111 53.5s40 87.5 40 155.5v429h108v-421
c0 -94.667 -24.333 -167.334 -73 -218.001s-112.334 -76 -191.001 -76c-88 0 -157.167 25 -207.5 75s-75.5 121.333 -75.5 214zM504 771h-274v51h274v-51z" />
    <glyph glyph-name="umacron" unicode="&#x16b;" horiz-adv-x="633" 
d="M16 508l0.000976562 1.99902h215v-323c0 -43.333 6 -74.333 18 -93s30.667 -28 56 -28c42 0 77.667 30 107 90v354h145v-510h-145v54c-44 -45.333 -92 -68 -144 -68c-62.667 0 -108.834 15 -138.501 45s-44.167 77.667 -43.5 143v182c0 45.333 -5.33301 79.333 -16 102
s-28.667 39.334 -54 50.001zM451.001 580.999h-274v51h274v-51z" />
    <glyph glyph-name="Uring" unicode="&#x16e;" horiz-adv-x="707" 
d="M84 274v236c0 60.667 -6.33301 103.667 -19 129c-13.333 26.667 -36.666 46.334 -69.999 59.001v2h234v-433c0 -66 12.667 -116.667 38 -152s60.333 -53 105 -53c47.333 0 84.333 17.833 111 53.5s40 87.5 40 155.5v429h108v-421
c0 -94.667 -24.333 -167.334 -73 -218.001s-112.334 -76 -191.001 -76c-88 0 -157.167 25 -207.5 75s-75.5 121.333 -75.5 214zM332 837c0 -10.667 3.83301 -20 11.5 -28s16.834 -12 27.501 -12c11.333 0 20.833 3.83301 28.5 11.5s11.5 17.167 11.5 28.5c0 10 -4 19 -12 27
s-17.333 12 -28 12s-19.834 -4 -27.501 -12s-11.5 -17 -11.5 -27zM276 837c0 26 9.33301 48.167 28 66.5s41 27.5 67 27.5c26.667 0 49 -9.16699 67 -27.5s27 -40.5 27 -66.5c0 -26.667 -9 -49.334 -27 -68.001s-40.333 -28 -67 -28c-26 0 -48.333 9.33301 -67 28
s-28 41.334 -28 68.001z" />
    <glyph glyph-name="uring" unicode="&#x16f;" horiz-adv-x="633" 
d="M16 508l0.000976562 1.99902h215v-323c0 -43.333 6 -74.333 18 -93s30.667 -28 56 -28c42 0 77.667 30 107 90v354h145v-510h-145v54c-44 -45.333 -92 -68 -144 -68c-62.667 0 -108.834 15 -138.501 45s-44.167 77.667 -43.5 143v182c0 45.333 -5.33301 79.333 -16 102
s-28.667 39.334 -54 50.001zM270.001 646.999c0 -10.667 3.83301 -20 11.5 -28s16.834 -12 27.501 -12c11.333 0 20.833 3.83301 28.5 11.5s11.5 17.167 11.5 28.5c0 10 -4 19 -12 27s-17.333 12 -28 12s-19.834 -4 -27.501 -12s-11.5 -17 -11.5 -27zM214.001 646.999
c0 26 9.33301 48.167 28 66.5s41 27.5 67 27.5c26.667 0 49 -9.16699 67 -27.5s27 -40.5 27 -66.5c0 -26.667 -9 -49.334 -27 -68.001s-40.333 -28 -67 -28c-26 0 -48.333 9.33301 -67 28s-28 41.334 -28 68.001z" />
    <glyph glyph-name="Uhungarumlaut" unicode="&#x170;" horiz-adv-x="707" 
d="M84 274v236c0 60.667 -6.33301 103.667 -19 129c-13.333 26.667 -36.666 46.334 -69.999 59.001v2h234v-433c0 -66 12.667 -116.667 38 -152s60.333 -53 105 -53c47.333 0 84.333 17.833 111 53.5s40 87.5 40 155.5v429h108v-421
c0 -94.667 -24.333 -167.334 -73 -218.001s-112.334 -76 -191.001 -76c-88 0 -157.167 25 -207.5 75s-75.5 121.333 -75.5 214zM263 765h-81l93 143h109zM437 765h-82l93 143h110z" />
    <glyph glyph-name="uhungarumlaut" unicode="&#x171;" horiz-adv-x="633" 
d="M16 508l0.000976562 1.99902h215v-323c0 -43.333 6 -74.333 18 -93s30.667 -28 56 -28c42 0 77.667 30 107 90v354h145v-510h-145v54c-44 -45.333 -92 -68 -144 -68c-62.667 0 -108.834 15 -138.501 45s-44.167 77.667 -43.5 143v182c0 45.333 -5.33301 79.333 -16 102
s-28.667 39.334 -54 50.001zM236.001 574.999h-81l93 143h109zM410.001 574.999h-82l93 143h110z" />
    <glyph glyph-name="Uogonek" unicode="&#x172;" horiz-adv-x="707" 
d="M84 274v236c0 60.667 -6.33301 103.667 -19 129c-13.333 26.667 -36.666 46.334 -69.999 59.001v2h234v-433c0 -66 12.667 -116.667 38 -152s60.333 -53 105 -53c47.333 0 84.333 17.833 111 53.5s40 87.5 40 155.5v429h108v-421
c0 -94.667 -24.333 -167.334 -73 -218.001s-112.334 -76 -191.001 -76c-88 0 -157.167 25 -207.5 75s-75.5 121.333 -75.5 214zM285 -103c0 16.667 6.16699 34 18.5 52s25.833 31.667 40.5 41l19 14h53l-16 -14c-6 -5.33301 -14.667 -17.666 -26 -36.999
c-10.667 -18.667 -16 -37.334 -16 -56.001c0 -12.667 4.16699 -25 12.5 -37s17.5 -20.667 27.5 -26l14 -8l-12 -21c-8 1.33301 -21.333 5 -40 11c-50 17.333 -75 44.333 -75 81z" />
    <glyph glyph-name="uogonek" unicode="&#x173;" horiz-adv-x="633" 
d="M16 508l0.000976562 1.99902h215v-323c0 -43.333 6 -74.333 18 -93s30.667 -28 56 -28c42 0 77.667 30 107 90v354h145v-510h-145v54c-44 -45.333 -92 -68 -144 -68c-62.667 0 -108.834 15 -138.501 45s-44.167 77.667 -43.5 143v182c0 45.333 -5.33301 79.333 -16 102
s-28.667 39.334 -54 50.001zM400.001 -103.001c0 16.667 6.16699 33.833 18.5 51.5s25.5 31.5 39.5 41.5l20 14h53l-16 -14c-6 -5.33301 -14.667 -17.666 -26 -36.999c-10.667 -18.667 -16 -37.334 -16 -56.001c0 -13.333 4.16699 -26 12.5 -38s17.833 -20.333 28.5 -25
l13 -8l-12 -21c-8 1.33301 -21.333 5 -40 11c-50 17.333 -75 44.333 -75 81z" />
    <glyph glyph-name="Ydieresis" unicode="&#x178;" horiz-adv-x="662" 
d="M438 0l-145 0.000976562v315l-160 264c-26.667 42.667 -48.667 71 -66 85c-16.667 15.333 -37.667 26.666 -63 33.999v2h228l155 -281l142 281h103l-194 -351v-349zM215 830.001c0 18 6.33301 33.5 19 46.5s28.334 19.5 47.001 19.5s34.5 -6.5 47.5 -19.5
s19.5 -28.5 19.5 -46.5c0 -18.667 -6.5 -34.334 -19.5 -47.001s-28.833 -19 -47.5 -19s-34.334 6.33301 -47.001 19s-19 28.334 -19 47.001zM394 830.001c0 18 6.33301 33.499 19 46.499s28.334 19.5 47.001 19.5c18 0 33.667 -6.5 47 -19.5s20 -28.5 20 -46.5
s-6.66699 -33.5 -20 -46.5s-29 -19.5 -47 -19.5c-18.667 0 -34.334 6.33301 -47.001 19s-19 28.334 -19 47.001z" />
    <glyph glyph-name="Zacute" unicode="&#x179;" horiz-adv-x="610" 
d="M79 532l-0.00195312 168h510l-354 -626h191c46.667 0 81.834 6.33301 105.501 19s39.167 33.667 46.5 63h2v-156h-553l352 626h-162c-39.333 0 -69.666 -7.33301 -90.999 -22s-36.333 -38.667 -45 -72h-2zM304.998 765h-81l93 143h109z" />
    <glyph glyph-name="zacute" unicode="&#x17a;" horiz-adv-x="516" 
d="M476 510l-254.999 -443h119c38 0 66.5 5.83301 85.5 17.5s32.5 31.167 40.5 58.5h1v-143h-451l258 443h-80c-40 0 -70.333 -7.66699 -91 -23s-34.334 -40.333 -41.001 -75h-2v165h416zM238.001 575h-81l93 143h109z" />
    <glyph glyph-name="Zdotaccent" unicode="&#x17b;" horiz-adv-x="610" 
d="M589 700l-354.002 -626h191c46.667 0 81.834 6.33301 105.501 19s39.167 33.667 46.5 63h2v-156h-553l352 626h-162c-39.333 0 -69.666 -7.33301 -90.999 -22s-36.333 -38.667 -45 -72h-2v168h510zM308.998 895c18.667 0 34.667 -6.33301 48 -19s20 -28.334 20 -47.001
s-6.66699 -34.334 -20 -47.001s-29.333 -19 -48 -19c-18 0 -33.5 6.33301 -46.5 19s-19.5 28.334 -19.5 47.001s6.5 34.334 19.5 47.001s28.5 19 46.5 19z" />
    <glyph glyph-name="zdotaccent" unicode="&#x17c;" horiz-adv-x="516" 
d="M476 510l-254.999 -443h119c38 0 66.5 5.83301 85.5 17.5s32.5 31.167 40.5 58.5h1v-143h-451l258 443h-80c-40 0 -70.333 -7.66699 -91 -23s-34.334 -40.333 -41.001 -75h-2v165h416zM252.001 705c18.667 0 34.667 -6.33301 48 -19s20 -28.334 20 -47.001
s-6.66699 -34.334 -20 -47.001s-29.333 -19 -48 -19c-18 0 -33.5 6.33301 -46.5 19s-19.5 28.334 -19.5 47.001s6.5 34.334 19.5 47.001s28.5 19 46.5 19z" />
    <glyph glyph-name="Zcaron" unicode="&#x17d;" horiz-adv-x="610" 
d="M79 532l-0.00195312 168h510l-354 -626h191c46.667 0 81.834 6.33301 105.501 19s39.167 33.667 46.5 63h2v-156h-553l352 626h-162c-39.333 0 -69.666 -7.33301 -90.999 -22s-36.333 -38.667 -45 -72h-2zM378.998 765h-114l-105 143h80l82 -84l81 84h80z" />
    <glyph glyph-name="zcaron" unicode="&#x17e;" horiz-adv-x="516" 
d="M476 510l-254.999 -443h119c38 0 66.5 5.83301 85.5 17.5s32.5 31.167 40.5 58.5h1v-143h-451l258 443h-80c-40 0 -70.333 -7.66699 -91 -23s-34.334 -40.333 -41.001 -75h-2v165h416zM318.001 575h-114l-105 143h80l82 -84l81 84h80z" />
    <glyph glyph-name="florin" unicode="&#x192;" horiz-adv-x="381" 
d="M98 58l0.000976562 377.001h-67v75h67v4c0 128 75.333 192 226 192h28v-63h-28c-28.667 0 -49.334 -8.66699 -62.001 -26s-19 -46 -19 -86v-21h109v-75h-109v-354c0 -52.667 -14.333 -99.334 -43 -140.001c-28.667 -42 -81.667 -89.333 -159 -142l-20 25
c32.667 34.667 53.667 67.667 63 99c9.33301 32 14 77 14 135z" />
    <glyph glyph-name="Scommaaccent" unicode="&#x218;" horiz-adv-x="583" 
d="M399 168c0 28.667 -12.001 53.498 -36.001 74.498s-65.667 42.167 -125 63.5c-68 24.667 -116.333 53 -145 85c-28 32.667 -42 76.334 -42 131.001c0 54 19 97.5 57 130.5s92.667 52.5 164 58.5c40.667 1.33301 65.667 1.66602 75 0.999023
c54 -3.33301 99.333 -10.666 136 -21.999v-168h-2c-22 76.667 -74.667 115 -158 115c-48.667 0 -85.5 -7.66699 -110.5 -23s-37.5 -36.333 -37.5 -63c0 -24.667 10.167 -45.834 30.5 -63.501s57.833 -36.5 112.5 -56.5c80 -31.333 137 -64.666 171 -99.999s51 -78 51 -128
c0 -68.667 -25.167 -122.167 -75.5 -160.5s-119.166 -57.5 -206.499 -57.5c-36 0 -73.333 3.66699 -112 11c-35.333 6.66699 -59 13.334 -71 20.001v75c54 -19.333 113 -29 177 -29c44 0 79.5 9.66699 106.5 29s40.5 45 40.5 77zM361.999 -103.002
c0 -20.667 -10.001 -38.6689 -30.001 -54.002s-40 -25.333 -60 -30l-31 -7l-13 23c1.33301 0.666992 6.33301 3 15 7c8.66699 4.66699 17.834 12.834 27.501 24.501s14.5 23.834 14.5 36.501c0 28.667 -9 53.667 -27 75h69c23.333 -21.333 35 -46.333 35 -75z" />
    <glyph glyph-name="scommaaccent" unicode="&#x219;" horiz-adv-x="485" 
d="M313 117c0 17.333 -7.83496 32.1689 -23.502 44.502s-44.167 25.166 -85.5 38.499c-57.333 17.333 -98.5 39.666 -123.5 66.999s-37.5 62 -37.5 104c0 46 18.5 82.833 55.5 110.5s86.167 41.5 147.5 41.5c36.667 0 80.667 -4 132 -12l23 -4v-162h-2
c-15.333 71.333 -62.333 107 -141 107c-27.333 0 -49 -4.83301 -65 -14.5s-24 -22.5 -24 -38.5c0 -14.667 6.33301 -27.167 19 -37.5s37.334 -21.166 74.001 -32.499c76 -24 126.333 -50 151 -78c25.333 -28.667 38 -63.334 38 -104.001c0 -46 -18.333 -84.333 -55 -115
c-35.333 -30.667 -95 -46 -179 -46c-60.667 0 -115 11.667 -163 35v74c48.667 -26 100 -39 154 -39c32.667 0 58.334 5.33301 77.001 16s28 25.667 28 45zM303.998 -102.997c0 -20.667 -10.001 -38.6689 -30.001 -54.002s-40 -25.333 -60 -30l-31 -7l-13 23
c1.33301 0.666992 6.33301 3 15 7c8.66699 4.66699 17.834 12.834 27.501 24.501s14.5 23.834 14.5 36.501c0 28.667 -9 53.667 -27 75h69c23.333 -21.333 35 -46.333 35 -75z" />
    <glyph glyph-name="uni021A" unicode="&#x21a;" horiz-adv-x="636" 
d="M451 626h-59v-626h-145v626h-59c-77.333 0 -123 -31.333 -137 -94h-1v168h539v-168h-1c-14 62.667 -59.667 94 -137 94zM372 -103c0 -20.667 -10.001 -38.6689 -30.001 -54.002s-40 -25.333 -60 -30l-31 -7l-13 23c1.33301 0.666992 6.33301 3 15 7
c8.66699 4.66699 17.834 12.834 27.501 24.501s14.5 23.834 14.5 36.501c0 28.667 -9 53.667 -27 75h69c23.333 -21.333 35 -46.333 35 -75z" />
    <glyph glyph-name="uni021B" unicode="&#x21b;" horiz-adv-x="372" 
d="M237 662l-0.000976562 -152.002h113v-75h-113v-256c0 -39.333 6.33301 -68.166 19 -86.499s33.334 -27.5 62.001 -27.5h33v-65h-48c-74 0 -127.667 15.833 -161 47.5s-50 80.834 -50 147.501v240h-73v75h73v111zM252.999 -103.002
c0 -21.333 -10.334 -39.335 -31.001 -54.002c-20 -15.333 -40 -25.333 -60 -30l-30 -7l-13 23c1.33301 0.666992 6.33301 3 15 7c8.66699 4.66699 17.834 12.834 27.501 24.501s14.5 23.834 14.5 36.501c0 28.667 -9 53.667 -27 75h69c23.333 -21.333 35 -46.333 35 -75z
" />
    <glyph glyph-name="circumflex" unicode="&#x2c6;" horiz-adv-x="381" 
d="M108 575h-80l105 143h114l104 -143h-80l-81 84z" />
    <glyph glyph-name="caron" unicode="&#x2c7;" horiz-adv-x="379" 
d="M247 575h-114l-105 143h80l82 -84l81 84h80z" />
    <glyph glyph-name="breve" unicode="&#x2d8;" horiz-adv-x="342" 
d="M39 698h54.002c3.33301 -17.333 12.166 -31.666 26.499 -42.999s30.833 -17 49.5 -17s35.167 5.66699 49.5 17s23.166 25.666 26.499 42.999h55c-2 -34 -15.667 -63.333 -41 -88c-25.333 -23.333 -55.333 -35 -90 -35s-64.667 11.667 -90 35
c-26 24.667 -39.333 54 -40 88z" />
    <glyph glyph-name="dotaccent" unicode="&#x2d9;" horiz-adv-x="219" 
d="M110 705c18.667 0 34.667 -6.33301 48 -19s20 -28.334 20 -47.001s-6.66699 -34.334 -20 -47.001s-29.333 -19 -48 -19c-18 0 -33.5 6.33301 -46.5 19s-19.5 28.334 -19.5 47.001s6.5 34.334 19.5 47.001s28.5 19 46.5 19z" />
    <glyph glyph-name="ring" unicode="&#x2da;" horiz-adv-x="295" 
d="M110 647c0 -10.667 3.83301 -20 11.5 -28s16.834 -12 27.501 -12c11.333 0 20.833 3.83301 28.5 11.5s11.5 17.167 11.5 28.5c0 10 -4 19 -12 27s-17.333 12 -28 12s-19.834 -4 -27.501 -12s-11.5 -17 -11.5 -27zM54 647c0 26 9.33301 48.167 28 66.5s41 27.5 67 27.5
c26.667 0 49 -9.16699 67 -27.5s27 -40.5 27 -66.5c0 -26.667 -9 -49.334 -27 -68.001s-40.333 -28 -67 -28c-26 0 -48.333 9.33301 -67 28s-28 41.334 -28 68.001z" />
    <glyph glyph-name="ogonek" unicode="&#x2db;" horiz-adv-x="183" 
d="M26 -103c0 16.667 6.16699 33.833 18.5 51.5s25.5 31.5 39.5 41.5l20 14h53l-16 -14c-6 -5.33301 -14.667 -17.666 -26 -36.999c-10.667 -18.667 -16 -37.334 -16 -56.001c0 -13.333 4.16699 -26 12.5 -38s17.833 -20.333 28.5 -25l13 -8l-12 -21
c-8 1.33301 -21.333 5 -40 11c-50 17.333 -75 44.333 -75 81z" />
    <glyph glyph-name="tilde" unicode="&#x2dc;" horiz-adv-x="465" 
d="M207 598c-36.667 21.333 -65.334 32 -86.001 32c-22 0 -51.667 -11 -89 -33c-1.33301 24 -1.33301 36.667 0 38c42.667 33.333 72.334 53 89.001 59c15.333 6.66699 31.333 10 48 10c26.667 0 55.334 -8.66699 86.001 -26c35.333 -20.667 64 -31 86 -31
c19.333 0 49.666 11 90.999 33v-38l-45 -36c-32 -22 -63 -33 -93 -33c-30.667 0 -59.667 8.33301 -87 25z" />
    <glyph glyph-name="hungarumlaut" unicode="&#x2dd;" horiz-adv-x="456" 
d="M118 575h-81l93 143h109zM292 575h-82l93 143h110z" />
    <glyph glyph-name="uni0374" unicode="&#x374;" horiz-adv-x="284" 
d="M112 493h-65l93 225h93z" />
    <glyph glyph-name="uni0375" unicode="&#x375;" horiz-adv-x="284" 
d="M157 225h65l-93 -225h-93z" />
    <glyph glyph-name="uni037E" unicode="&#x37e;" horiz-adv-x="239" 
d="M59 59c0 18.667 6.16797 33.999 18.501 45.999s28.166 18 47.499 18s35.5 -7.5 48.5 -22.5s19.5 -35.833 19.5 -62.5c0 -33.333 -9.33301 -65.333 -28 -96s-37.667 -55 -57 -73l-10 -9l-17 19c29.333 25.333 44 53.333 44 84c0 12.667 -11 27.334 -33 44.001
s-33 34 -33 52zM59.001 468.999c0 18 6.33301 33.499 19 46.499s28.334 19.5 47.001 19.5c18 0 33.667 -6.5 47 -19.5s20 -28.5 20 -46.5s-6.66699 -33.5 -20 -46.5s-29 -19.5 -47 -19.5c-18.667 0 -34.334 6.33301 -47.001 19s-19 28.334 -19 47.001z" />
    <glyph glyph-name="tonos" unicode="&#x384;" horiz-adv-x="283" 
d="M119 575h-81l93 143h109z" />
    <glyph glyph-name="dieresistonos" unicode="&#x385;" horiz-adv-x="558" 
d="M260 575h-81l93 143h109zM39 640c0 18 6.33301 33.5 19 46.5s28.334 19.5 47.001 19.5s34.5 -6.5 47.5 -19.5s19.5 -28.5 19.5 -46.5c0 -18.667 -6.5 -34.334 -19.5 -47.001s-28.833 -19 -47.5 -19s-34.334 6.33301 -47.001 19s-19 28.334 -19 47.001zM382 640
c0 18 6.5 33.5 19.5 46.5s28.5 19.5 46.5 19.5c18.667 0 34.667 -6.5 48 -19.5s20 -28.5 20 -46.5c0 -18.667 -6.66699 -34.334 -20 -47.001s-29.333 -19 -48 -19c-18 0 -33.5 6.33301 -46.5 19s-19.5 28.334 -19.5 47.001z" />
    <glyph glyph-name="Alphatonos" unicode="&#x386;" horiz-adv-x="682" 
d="M178 700l211 0.000976562l270 -700h-162l-73 199h-228l-68 -199h-101l198 546c10.667 30 16 54.333 16 73c0 35.333 -21 61.666 -63 78.999v2zM307 538.001l-21.999 -65c-3.33301 -11.333 -9 -29.333 -17 -54l-17 -52l-30 -93h175
c-52.667 153.333 -82.334 241.333 -89.001 264zM61.001 700.001h109l-121 -143h-81z" />
    <glyph glyph-name="anoteleia" unicode="&#x387;" horiz-adv-x="199" 
d="M52 235c-12 12.667 -18 28 -18 46s6 33 18 45c12.667 12.667 28 19 46 19s33.333 -6.33301 46 -19c13.333 -12 20 -27 20 -45s-6.66699 -33.333 -20 -46c-12.667 -12 -28 -18 -46 -18s-33.333 6 -46 18z" />
    <glyph glyph-name="Epsilontonos" unicode="&#x388;" horiz-adv-x="695" 
d="M15 557h-81l93 143h109zM381 409l213 -0.000976562v-75h-213v-260h133c48.667 0 84.334 6 107.001 18s38 33.333 46 64h1v-156h-432v510c0 60.667 -6.33301 103.667 -19 129c-13.333 26.667 -36.666 46.334 -69.999 59.001v2h505v-168h-2
c-8.66699 34 -23.334 58.167 -44.001 72.5s-51.334 21.5 -92.001 21.5h-133v-217z" />
    <glyph glyph-name="Etatonos" unicode="&#x389;" horiz-adv-x="826" 
d="M746 0l-145.001 -0.000976562v332h-248v-332h-145v510c0 60.667 -6.33301 103.667 -19 129c-13.333 26.667 -36.666 46.334 -69.999 59.001v2h234v-292h248v292h145v-700zM8.99902 699.999h109l-121 -143h-81z" />
    <glyph glyph-name="Iotatonos" unicode="&#x38a;" horiz-adv-x="506" 
d="M418 0l-145.001 -0.000976562v510c0 60.667 -6.33301 103.667 -19 129c-13.333 26.667 -36.666 46.334 -69.999 59.001v2h234v-700zM68.999 699.999h109l-121 -143h-81z" />
    <glyph glyph-name="Omicrontonos" unicode="&#x38c;" horiz-adv-x="828" 
d="M78 557h-81l93 143h109zM116 376c0 60.667 11.002 116.001 33.002 166.001c23.333 52 60.166 93.667 110.499 125s109.166 47 176.499 47c70 0 129.333 -16.333 178 -49c94.667 -60.667 142 -157 142 -289c0 -54 -6.16699 -103.833 -18.5 -149.5
s-30.833 -86.834 -55.5 -123.501s-58 -65.5 -100 -86.5s-90.667 -31.5 -146 -31.5s-104 10.5 -146 31.5s-75.333 49.833 -100 86.5s-43.167 78 -55.5 124s-18.5 95.667 -18.5 149zM597.002 371.001c0 84.667 -14.332 150.168 -42.999 196.501s-68 69.5 -118 69.5
c-50.667 0 -90.334 -23 -119.001 -69s-43 -111.667 -43 -197c0 -92.667 14 -167.334 42 -224.001c28.667 -56.667 68.667 -85 120 -85s91 28.333 119 85c28 57.333 42 132 42 224z" />
    <glyph glyph-name="Upsilontonos" unicode="&#x38e;" horiz-adv-x="864" 
d="M78 557h-81l93 143h109zM637 0l-145 0.000976562v315l-160 264c-26.667 42.667 -48.667 71 -66 85c-16.667 15.333 -37.667 26.666 -63 33.999v2h228l155 -281l142 281h103l-194 -351v-349z" />
    <glyph glyph-name="Omegatonos" unicode="&#x38f;" horiz-adv-x="816" 
d="M744 0h-237.999v181c26.667 16.667 49 43.834 67 81.501s27 79.5 27 125.5c0 79.333 -14.333 140.666 -43 183.999s-67.667 65 -117 65s-88.333 -21.667 -117 -65s-43 -104.666 -43 -183.999c0 -46 9 -87.833 27 -125.5s40.333 -64.834 67 -81.501v-181h-238l-1 162h2
c9.33301 -30 24 -50.333 44 -61c21.333 -10 55.666 -15 102.999 -15h26v33c-58 20.667 -104 55.167 -138 103.5s-51 105.166 -51 170.499c0 42.667 6.5 82.834 19.5 120.501s32 71.667 57 102s58.333 54.333 100 72s89.167 26.5 142.5 26.5s100.833 -8.83301 142.5 -26.5
s75 -41.667 100 -72s44 -64.333 57 -102s19.5 -77.834 19.5 -120.501c0 -65.333 -17 -122.166 -51 -170.499s-80 -82.833 -138 -103.5v-33h26c48 0 82.333 5 103 15c20 10.667 34.667 31 44 61h2zM78.001 557h-81l93 143h109z" />
    <glyph glyph-name="iotadieresistonos" unicode="&#x390;" horiz-adv-x="550" 
d="M260 575h-81l93 143h109zM39 640c0 18 6.33301 33.5 19 46.5s28.334 19.5 47.001 19.5s34.5 -6.5 47.5 -19.5s19.5 -28.5 19.5 -46.5c0 -18.667 -6.5 -34.334 -19.5 -47.001s-28.833 -19 -47.5 -19s-34.334 6.33301 -47.001 19s-19 28.334 -19 47.001zM382 640
c0 18 6.5 33.5 19.5 46.5s28.5 19.5 46.5 19.5c18.667 0 34.667 -6.5 48 -19.5s20 -28.5 20 -46.5c0 -18.667 -6.66699 -34.334 -20 -47.001s-29.333 -19 -48 -19c-18 0 -33.5 6.33301 -46.5 19s-19.5 28.334 -19.5 47.001zM191 175l-0.000976562 189
c0 46 -5.33301 78.667 -16 98c-10 20 -28.333 35.333 -55 46v2h216v-351c0 -33.333 5.33301 -57.333 16 -72s27.334 -22 50.001 -22h18v-65h-33c-69.333 -0 -119.333 14.333 -150 43s-46 72.667 -46 132z" />
    <glyph glyph-name="Alpha" unicode="&#x391;" horiz-adv-x="668" 
d="M164 700l211 0.000976562l270 -700h-162l-73 199h-228l-68 -199h-101l198 546c10.667 30 16 54.333 16 73c0 35.333 -21 61.666 -63 78.999v2zM293 538.001l-21.999 -65c-3.33301 -11.333 -9 -29.333 -17 -54l-17 -52l-30 -93h175
c-52.667 153.333 -82.334 241.333 -89.001 264z" />
    <glyph glyph-name="Beta" unicode="&#x392;" horiz-adv-x="635" 
d="M294 0l-196.001 0.000976562v510c0 60.667 -6 104 -18 130c-10.667 25.333 -33 44.666 -67 57.999v2h280c87.333 0 153.666 -15 198.999 -45s68 -73 68 -129s-28.333 -98 -85 -126c-12 -5.33301 -24.333 -8.66602 -37 -9.99902c14.667 0 27.334 -2 38.001 -6
c86 -26 129 -80.667 129 -164c0 -68.667 -23.333 -121.334 -70 -158.001c-47.333 -36 -107.666 -56 -180.999 -60c-33.333 -1.33301 -53.333 -2 -60 -2zM323.999 77.001c42 0 75 12.499 99 37.499s36 59.5 36 103.5c0 40.667 -14.167 72.334 -42.5 95.001
s-68.5 34 -120.5 34h-54v-260h1c19.333 -6.66699 46.333 -10 81 -10zM241.999 623l0.000976562 -210.001l17 -1c11.333 -1.33301 19.666 -2 24.999 -2c40.667 0 72.667 9.33301 96 28s35 45.334 35 80.001c0 74.667 -40.333 112 -121 112c-22.667 0 -40 -2.33301 -52 -7z
" />
    <glyph glyph-name="Gamma" unicode="&#x393;" horiz-adv-x="545" 
d="M369 626l-126.001 -0.000976562v-626h-145v510c0 60.667 -6.33301 103.667 -19 129c-13.333 26.667 -36.666 46.334 -69.999 59.001v2h498v-168h-2c-14 62.667 -59.333 94 -136 94z" />
    <glyph glyph-name="increment" unicode="&#x394;" horiz-adv-x="686" 
d="M294 493l-141 -407h310l-144 407c-3.33301 8.66699 -7 23 -11 43l-2 7l-1 -1c-2 -14.667 -5.66699 -31 -11 -49zM177 698v2h212l267 -700h-632l201 546c10.667 28 16 52.333 16 73c0 36.667 -21.333 63 -64 79z" />
    <glyph glyph-name="Epsilon" unicode="&#x395;" horiz-adv-x="629" 
d="M243 409l213 -0.000976562v-75h-213v-260h133c48.667 0 84.334 6 107.001 18s38 33.333 46 64h1v-156h-432v510c0 60.667 -6.33301 103.667 -19 129c-13.333 26.667 -36.666 46.334 -69.999 59.001v2h505v-168h-2c-8.66699 34 -23.334 58.167 -44.001 72.5
s-51.334 21.5 -92.001 21.5h-133v-217z" />
    <glyph glyph-name="Zeta" unicode="&#x396;" horiz-adv-x="610" 
d="M79 532l-0.00195312 168h510l-354 -626h191c46.667 0 81.834 6.33301 105.501 19s39.167 33.667 46.5 63h2v-156h-553l352 626h-162c-39.333 0 -69.666 -7.33301 -90.999 -22s-36.333 -38.667 -45 -72h-2z" />
    <glyph glyph-name="Eta" unicode="&#x397;" horiz-adv-x="717" 
d="M636 0l-145.001 -0.000976562v332h-248v-332h-145v510c0 60.667 -6.33301 103.667 -19 129c-13.333 26.667 -36.666 46.334 -69.999 59.001v2h234v-292h248v292h145v-700z" />
    <glyph glyph-name="Theta" unicode="&#x398;" horiz-adv-x="745" 
d="M56 376c0 60.667 11.002 116.001 33.002 166.001c23.333 52 60.166 93.667 110.499 125s109.166 47 176.499 47c70 0 129.333 -16.333 178 -49c94.667 -60.667 142 -157 142 -289c0 -54 -6.16699 -103.833 -18.5 -149.5s-30.833 -86.834 -55.5 -123.501
s-58 -65.5 -100 -86.5s-90.667 -31.5 -146 -31.5s-104 10.5 -146 31.5s-75.333 49.833 -100 86.5s-43.167 78 -55.5 124s-18.5 95.667 -18.5 149zM537.002 371.001c0 84.667 -14.332 150.168 -42.999 196.501s-68 69.5 -118 69.5c-50.667 0 -90.334 -23 -119.001 -69
s-43 -111.667 -43 -197c0 -92.667 14 -167.334 42 -224.001c28.667 -56.667 68.667 -85 120 -85s91 28.333 119 85c28 57.333 42 132 42 224zM484.003 328.002h-221v84h221v-84z" />
    <glyph glyph-name="Iota" unicode="&#x399;" horiz-adv-x="335" 
d="M243 0l-145.001 -0.000976562v510c0 60.667 -6.33301 103.667 -19 129c-13.333 26.667 -36.666 46.334 -69.999 59.001v2h234v-700z" />
    <glyph glyph-name="Kappa" unicode="&#x39a;" horiz-adv-x="698" 
d="M243 0l-145.001 -0.000976562v510c0 60.667 -6.33301 103.667 -19 129c-13.333 26.667 -36.666 46.334 -69.999 59.001v2h234v-325l266 325h112l-219 -261l272 -439h-179l-191 336l-61 -79v-257z" />
    <glyph glyph-name="Lambda" unicode="&#x39b;" horiz-adv-x="668" 
d="M645 0l-162 0.000976562l-165 457c-4.66699 12.667 -9.33398 28 -14.001 46c-3.33301 12.667 -6.66602 24 -9.99902 34c-2 -2.66699 -4 -8 -6 -16s-4.83301 -18.167 -8.5 -30.5s-7.16699 -23.5 -10.5 -33.5l-155 -457h-101l198 546c10.667 30 16 54.333 16 73
c0 35.333 -21 61.666 -63 78.999v2h211z" />
    <glyph glyph-name="Mu" unicode="&#x39c;" horiz-adv-x="935" 
d="M685 529l-6.99902 -19.999l-193 -509h-99l-206 542c0 -1.33301 -0.333008 -5.83301 -1 -13.5s-1.5 -18 -2.5 -31s-2.16699 -24.833 -3.5 -35.5l-46 -462h-95l67 546c4 33.333 6 57.666 6 72.999c0 38.667 -20 65 -60 79v2h227l169 -456l12 -39l12 -34
c1.33301 2 3.16602 6.5 5.49902 13.5s5.33301 16.5 9 28.5s7.16699 22.667 10.5 32l117 303c11.333 30.667 17 55.334 17 74.001c0 20.667 -3.33301 36.5 -10 47.5s-18.667 20.5 -36 28.5v2h229l83 -700h-150c-24 252 -40.667 432.667 -50 542l-1 1
c0 -0.666992 -0.333008 -1.66699 -1 -3c-0.666992 -0.666992 -1.66699 -4.33398 -3 -11.001z" />
    <glyph glyph-name="Nu" unicode="&#x39d;" horiz-adv-x="732" 
d="M178 0l-80.001 -0.000976562v510c0 58.667 -6.66699 101.334 -20 128.001s-36.333 46.667 -69 60v2h225l284 -423c6 -9.33301 15.333 -25.333 28 -48c10 -18.667 18 -32 24 -40c0 2 -0.166992 4.66699 -0.5 8s-0.666016 8.5 -0.999023 15.5s-0.5 13.5 -0.5 19.5
c-0.666992 15.333 -1 34 -1 56v412h80v-700h-117l-304 453c-10.667 15.333 -20.334 31.333 -29.001 48c-11.333 21.333 -18.666 33.666 -21.999 36.999c0 -14 0.333008 -28.667 1 -44c1.33301 -29.333 2 -46.666 2 -51.999v-442z" />
    <glyph glyph-name="Xi" unicode="&#x39e;" horiz-adv-x="577" 
d="M195 86l153.001 0.000976562h54c38 1.33301 63.667 4.33301 77 9c15.333 6.66699 27.333 14.5 36 23.5s15.334 22.167 20.001 39.5h1v-158h-494c0 29.333 -0.333008 55.666 -1 78.999v79h2c7.33301 -30 21.666 -49.667 42.999 -59
c21.333 -8.66699 57.666 -13 108.999 -13zM371.001 614.001h-167c-42.667 0 -74.167 -6 -94.5 -18s-34.5 -34 -42.5 -66h-1v170h443v-170h-1c-8 32 -22.167 54 -42.5 66s-51.833 18 -94.5 18zM437.001 409.001v-78h-301v78h301z" />
    <glyph glyph-name="Omicron" unicode="&#x39f;" horiz-adv-x="752" 
d="M56 376c0 60.667 11.002 116.001 33.002 166.001c23.333 52 60.166 93.667 110.499 125s109.166 47 176.499 47c70 0 129.333 -16.333 178 -49c94.667 -60.667 142 -157 142 -289c0 -54 -6.16699 -103.833 -18.5 -149.5s-30.833 -86.834 -55.5 -123.501
s-58 -65.5 -100 -86.5s-90.667 -31.5 -146 -31.5s-104 10.5 -146 31.5s-75.333 49.833 -100 86.5s-43.167 78 -55.5 124s-18.5 95.667 -18.5 149zM537.002 371.001c0 84.667 -14.332 150.168 -42.999 196.501s-68 69.5 -118 69.5c-50.667 0 -90.334 -23 -119.001 -69
s-43 -111.667 -43 -197c0 -92.667 14 -167.334 42 -224.001c28.667 -56.667 68.667 -85 120 -85s91 28.333 119 85c28 57.333 42 132 42 224z" />
    <glyph glyph-name="Pi" unicode="&#x3a0;" horiz-adv-x="712" 
d="M625 0l-145.001 -0.000976562v625h-237v-625h-145v510c0 60.667 -6.33301 103.667 -19 129c-13.333 26.667 -36.666 46.334 -69.999 59.001v2h616v-700z" />
    <glyph glyph-name="Rho" unicode="&#x3a1;" horiz-adv-x="628" 
d="M243 0l-145 -0.000976562v510c0 60.667 -6.33301 103.667 -19 129c-13.333 26.667 -36.666 46.334 -69.999 59.001v2h283c192 0 288 -68.333 288 -205c0 -70.667 -26 -128 -78 -172c-52.667 -43.333 -124.334 -65 -215.001 -65h-44v-258zM243 618.999l0.000976562 -278
c18 -5.33301 35 -8 51 -8c42.667 0 76.667 13.333 102 40s38 63.667 38 111c0 93.333 -46 140 -138 140c-20.667 0 -38.334 -1.66699 -53.001 -5z" />
    <glyph glyph-name="Sigma" unicode="&#x3a3;" horiz-adv-x="586" 
d="M255 349l-216.999 350.999h490v-156h-1c-8 32.667 -23.833 56.334 -47.5 71.001s-58.834 22 -105.501 22h-130l153 -249l-202 -302h217c42 0 73.167 6 93.5 18s34.833 34 43.5 66h1v-170h-528z" />
    <glyph glyph-name="Tau" unicode="&#x3a4;" horiz-adv-x="636" 
d="M451 626h-59v-626h-145v626h-59c-77.333 0 -123 -31.333 -137 -94h-1v168h539v-168h-1c-14 62.667 -59.667 94 -137 94z" />
    <glyph glyph-name="Upsilon" unicode="&#x3a5;" horiz-adv-x="662" 
d="M438 0l-145 0.000976562v315l-160 264c-26.667 42.667 -48.667 71 -66 85c-16.667 15.333 -37.667 26.666 -63 33.999v2h228l155 -281l142 281h103l-194 -351v-349z" />
    <glyph glyph-name="Phi" unicode="&#x3a6;" horiz-adv-x="848" 
d="M494 0l-145.002 -0.00195312v55c-101.333 2 -178.166 28.833 -230.499 80.5s-78.5 125.167 -78.5 220.5c0 72 26.667 132.667 80 182c52.667 48.667 127.334 74.667 224.001 78c-5.33301 20.667 -14 36.834 -26 48.501s-30 22.834 -54 33.501v2h230v-83
c97.333 -2 173.333 -27.667 228 -77c54.667 -48.667 82 -110 82 -184c0 -95.333 -26 -168.833 -78 -220.5s-129.333 -78.5 -232 -80.5v-55zM651.998 355.998c0 58.667 -13.5 104.67 -40.5 138.003s-66.167 50.666 -117.5 51.999v-420c53.333 1.33301 93 20.666 119 57.999
s39 94.666 39 171.999zM348.998 126.001v419.998c-51.333 -1.33301 -90.333 -18.333 -117 -51s-40 -79 -40 -139c0 -77.333 13 -134.666 39 -171.999s65.333 -56.666 118 -57.999z" />
    <glyph glyph-name="Chi" unicode="&#x3a7;" horiz-adv-x="677" 
d="M523 700l105 0.000976562l-196 -309l245 -391h-178l-166 289l-171 -289h-116l232 365l-140 214c-26 42 -48 70.333 -66 85c-18.667 15.333 -40.667 26.666 -66 33.999v2h233l142 -239z" />
    <glyph glyph-name="Psi" unicode="&#x3a8;" horiz-adv-x="847" 
d="M515 0h-145.001v227c-185.333 10 -278 96.333 -278 259v31c0 57.333 -6.33301 98.333 -19 123c-13.333 26 -36.666 45.333 -69.999 58v2h234v-225c0 -106 44.333 -163 133 -171v396h145v-396c87.333 7.33301 131 64.333 131 171v225h145v-214
c0 -84 -26.333 -147 -79 -189c-52 -42 -117.667 -65 -197 -69v-228z" />
    <glyph glyph-name="Omega" unicode="&#x3a9;" horiz-adv-x="726" 
d="M667 0h-237.998v181c26.667 16.667 49 43.834 67 81.501s27 79.5 27 125.5c0 79.333 -14.333 140.666 -43 183.999s-67.667 65 -117 65s-88.333 -21.667 -117 -65s-43 -104.666 -43 -183.999c0 -46 9 -87.833 27 -125.5s40.333 -64.834 67 -81.501v-181h-238l-1 162h2
c9.33301 -30 24 -50.333 44 -61c21.333 -10 55.666 -15 102.999 -15h26v33c-58 20.667 -104 55.167 -138 103.5s-51 105.166 -51 170.499c0 42.667 6.5 82.834 19.5 120.501s32 71.667 57 102s58.333 54.333 100 72s89.167 26.5 142.5 26.5s100.833 -8.83301 142.5 -26.5
s75 -41.667 100 -72s44 -64.333 57 -102s19.5 -77.834 19.5 -120.501c0 -65.333 -17 -122.166 -51 -170.499s-80 -82.833 -138 -103.5v-33h26c47.333 0 81.666 5 102.999 15c20 10.667 34.667 31 44 61h2z" />
    <glyph glyph-name="Iotadieresis" unicode="&#x3aa;" horiz-adv-x="335" 
d="M243 0l-145.001 -0.000976562v510c0 60.667 -6.33301 103.667 -19 129c-13.333 26.667 -36.666 46.334 -69.999 59.001v2h234v-700zM-3.00098 829.999c0 18 6.33301 33.5 19 46.5s28.334 19.5 47.001 19.5s34.5 -6.5 47.5 -19.5s19.5 -28.5 19.5 -46.5
c0 -18.667 -6.5 -34.334 -19.5 -47.001s-28.833 -19 -47.5 -19s-34.334 6.33301 -47.001 19s-19 28.334 -19 47.001zM175.999 829.999c0 18 6.33301 33.499 19 46.499s28.334 19.5 47.001 19.5c18 0 33.667 -6.5 47 -19.5s20 -28.5 20 -46.5s-6.66699 -33.5 -20 -46.5
s-29 -19.5 -47 -19.5c-18.667 0 -34.334 6.33301 -47.001 19s-19 28.334 -19 47.001z" />
    <glyph glyph-name="Upsilondieresis" unicode="&#x3ab;" horiz-adv-x="662" 
d="M438 0l-145 0.000976562v315l-160 264c-26.667 42.667 -48.667 71 -66 85c-16.667 15.333 -37.667 26.666 -63 33.999v2h228l155 -281l142 281h103l-194 -351v-349zM217 830.001c0 18 6.33301 33.5 19 46.5s28.334 19.5 47.001 19.5s34.5 -6.5 47.5 -19.5
s19.5 -28.5 19.5 -46.5c0 -18.667 -6.5 -34.334 -19.5 -47.001s-28.833 -19 -47.5 -19s-34.334 6.33301 -47.001 19s-19 28.334 -19 47.001zM396 830.001c0 18 6.33301 33.499 19 46.499s28.334 19.5 47.001 19.5c18 0 33.667 -6.5 47 -19.5s20 -28.5 20 -46.5
s-6.66699 -33.5 -20 -46.5s-29 -19.5 -47 -19.5c-18.667 0 -34.334 6.33301 -47.001 19s-19 28.334 -19 47.001z" />
    <glyph glyph-name="alphatonos" unicode="&#x3ac;" horiz-adv-x="661" 
d="M645 65l-0.000976562 -65h-67c-33.333 -0 -62 7.33301 -86 22s-40.667 34.334 -50 59.001c-42 -61.333 -104.333 -92 -187 -92c-63.333 0 -115.666 24.667 -156.999 74c-40.667 48.667 -61 108 -61 178c0 85.333 22.667 153.666 68 204.999c46 51.333 110 77 192 77
c68 0 117.667 -24.667 149 -74c5.33301 22.667 14 40.667 26 54l5 7h123c-36 -46.667 -54 -116.667 -54 -210v-74c0 -59.333 6.5 -101 19.5 -125s37.167 -36 72.5 -36h7zM402.999 278c0 53.333 -9.33301 95.667 -28 127s-43 47 -73 47c-34.667 0 -62.334 -18 -83.001 -54
s-31 -88 -31 -156c0 -56.667 9.33301 -101.5 28 -134.5s42 -49.5 70 -49.5c36.667 0 65.334 18.5 86.001 55.5s31 91.833 31 164.5zM306.999 575.001h-81l93 143h109z" />
    <glyph glyph-name="epsilontonos" unicode="&#x3ad;" horiz-adv-x="496" 
d="M204 153c0 -29.333 10.334 -52.833 31.001 -70.5s47.334 -26.5 80.001 -26.5c54.667 0 105.667 16.667 153 50v-87c-49.333 -22 -104 -33 -164 -33c-80.667 0 -143.334 14.333 -188.001 43s-67 66.667 -67 114c0 33.333 10.667 61 32 83s51.666 36 90.999 42
c-30.667 6 -55.167 19.833 -73.5 41.5s-27.5 45.834 -27.5 72.501c0 44 19.333 78.5 58 103.5s92 37.5 160 37.5c43.333 0 89.666 -6.33301 138.999 -19l24 -6v-153h-2c-15.333 71.333 -58.666 107 -129.999 107c-28 0 -51.5 -6.33301 -70.5 -19
s-28.5 -28.334 -28.5 -47.001c0 -47.333 43 -71 129 -71v-70c-97.333 0 -146 -30.667 -146 -92zM262.001 575h-81l93 143h109z" />
    <glyph glyph-name="etatonos" unicode="&#x3ae;" horiz-adv-x="631" 
d="M231 368l-0.000976562 -368.001h-145v364c0 44 -5.16699 76.333 -15.5 97s-28.5 36.334 -54.5 47.001v2h215v-43c46.667 37.333 95.334 56 146.001 56c65.333 0 112.333 -14.167 141 -42.5s43 -76.5 43 -144.5v-526h-145v521c0 40.667 -6 69.5 -18 86.5
s-30.667 25.5 -56 25.5c-44 0 -81 -25 -111 -75zM288.999 574.999h-81l93 143h109z" />
    <glyph glyph-name="iotatonos" unicode="&#x3af;" horiz-adv-x="330" 
d="M90 175l-0.000976562 189c0 46 -5.33301 78.667 -16 98c-10 20 -28.333 35.333 -55 46v2h216v-351c0 -33.333 5.33301 -57.333 16 -72s27.334 -22 50.001 -22h18v-65h-33c-69.333 -0 -119.333 14.333 -150 43s-46 72.667 -46 132zM129.999 575h-81l93 143h109z" />
    <glyph glyph-name="upsilondieresistonos" unicode="&#x3b0;" horiz-adv-x="600" 
d="M16 510l214.001 0.00195312v-323c0 -46.667 6.5 -79.834 19.5 -99.501s33.167 -29.5 60.5 -29.5c42 0 75.167 18.833 99.5 56.5s36.5 90.5 36.5 158.5c0 79.333 -22.667 158.333 -68 237h148c22 -64.667 33 -137 33 -217c0 -37.333 -4.83301 -73.333 -14.5 -108
s-24.667 -67.334 -45 -98.001s-48.333 -55.167 -84 -73.5s-77.167 -27.5 -124.5 -27.5c-73.333 0 -126.333 15.667 -159 47s-48.334 81.666 -47.001 150.999v180c0.666992 44.667 -4.33301 77 -15 97c-11.333 20.667 -29.333 36.334 -54 47.001v2zM279.001 575.002h-81
l93 143h109zM58.001 640.002c0 18 6.33301 33.5 19 46.5s28.334 19.5 47.001 19.5s34.5 -6.5 47.5 -19.5s19.5 -28.5 19.5 -46.5c0 -18.667 -6.5 -34.334 -19.5 -47.001s-28.833 -19 -47.5 -19s-34.334 6.33301 -47.001 19s-19 28.334 -19 47.001zM401.001 640.002
c0 18 6.5 33.5 19.5 46.5s28.5 19.5 46.5 19.5c18.667 0 34.667 -6.5 48 -19.5s20 -28.5 20 -46.5c0 -18.667 -6.66699 -34.334 -20 -47.001s-29.333 -19 -48 -19c-18 0 -33.5 6.33301 -46.5 19s-19.5 28.334 -19.5 47.001z" />
    <glyph glyph-name="alpha" unicode="&#x3b1;" horiz-adv-x="661" 
d="M645 65l-0.000976562 -65h-67c-33.333 -0 -62 7.33301 -86 22s-40.667 34.334 -50 59.001c-42 -61.333 -104.333 -92 -187 -92c-63.333 0 -115.666 24.667 -156.999 74c-40.667 48.667 -61 108 -61 178c0 85.333 22.667 153.666 68 204.999c46 51.333 110 77 192 77
c68 0 117.667 -24.667 149 -74c5.33301 22.667 14 40.667 26 54l5 7h123c-36 -46.667 -54 -116.667 -54 -210v-74c0 -59.333 6.5 -101 19.5 -125s37.167 -36 72.5 -36h7zM402.999 278c0 53.333 -9.33301 95.667 -28 127s-43 47 -73 47c-34.667 0 -62.334 -18 -83.001 -54
s-31 -88 -31 -156c0 -56.667 9.33301 -101.5 28 -134.5s42 -49.5 70 -49.5c36.667 0 65.334 18.5 86.001 55.5s31 91.833 31 164.5z" />
    <glyph glyph-name="beta" unicode="&#x3b2;" horiz-adv-x="579" 
d="M268 0l-55.002 -0.00292969v-120h-145v616c0 66.667 20.667 122.334 62 167.001c42 44 97.667 66 167 66c62.667 0 111.334 -14.833 146.001 -44.5s52 -68.167 52 -115.5c0 -41.333 -10.167 -74.833 -30.5 -100.5s-51.166 -47.167 -92.499 -64.5
c46.667 -4 83.667 -16 111 -36c35.333 -23.333 53 -68.666 53 -135.999c0 -65.333 -24.667 -120.666 -74 -165.999c-49.333 -44 -114 -66 -194 -66zM389.998 219.997c0 44.667 -11 77.666 -33 98.999s-52 32 -90 32h-22v64c39.333 5.33301 67.833 19 85.5 41
s26.5 57 26.5 105c0 32.667 -5.66699 58.334 -17 77.001s-27.333 28 -48 28c-52.667 0 -79 -46 -79 -138v-452c17.333 -5.33301 36 -8 56 -8c36 0 65.167 12.833 87.5 38.5s33.5 63.5 33.5 113.5z" />
    <glyph glyph-name="gamma" unicode="&#x3b3;" horiz-adv-x="610" 
d="M183 230l-104 216.999c-17.333 36 -44.666 56.333 -81.999 61v2h214l92 -216c28.667 -62.667 46.667 -115.667 54 -159h2c7.33301 44 23 93.667 47 149l59 152c8.66699 24.667 13.667 46 15 64l2 10h113l-120 -266c-24 -59.333 -40.333 -109.333 -49 -150
c-8.66699 -41.333 -13 -96.333 -13 -165v-119h-144v131c0 36.667 -4 71 -12 103s-16 57.333 -24 76c-4.66699 12.667 -21.334 49.334 -50.001 110.001z" />
    <glyph glyph-name="delta" unicode="&#x3b4;" horiz-adv-x="589" 
d="M293 -14c-85.333 0 -149.833 24.666 -193.5 73.999s-65.5 109.333 -65.5 180c0 52.667 17.5 97 52.5 133s89.167 65.667 162.5 89l-82 47c-32.667 18.667 -55.334 36.667 -68.001 54s-19 37.333 -19 60c0 30 19 55.167 57 75.5s92.333 30.5 163 30.5
c62.667 0 116 -5.66699 160 -17l22 -5v-101c-19.333 13.333 -45.666 24.333 -78.999 33c-35.333 9.33301 -68 14 -98 14c-70.667 0 -106 -10 -106 -30c0 -7.33301 3 -13.5 9 -18.5s21.333 -15.167 46 -30.5l115 -70c62.667 -39.333 109.5 -79.666 140.5 -120.999
s46.5 -89 46.5 -143c0 -69.333 -22.667 -129.333 -68 -180c-45.333 -49.333 -110.333 -74 -195 -74zM405 239.999c0 38 -8.66797 71.832 -26.001 101.499s-45.666 58.5 -84.999 86.5c-73.333 -37.333 -110 -100 -110 -188c0 -55.333 9.66699 -99.666 29 -132.999
s46 -50 80 -50c36 0 63.667 16.5 83 49.5s29 77.5 29 133.5z" />
    <glyph glyph-name="epsilon" unicode="&#x3b5;" horiz-adv-x="496" 
d="M204 153c0 -29.333 10.334 -52.833 31.001 -70.5s47.334 -26.5 80.001 -26.5c54.667 0 105.667 16.667 153 50v-87c-49.333 -22 -104 -33 -164 -33c-80.667 0 -143.334 14.333 -188.001 43s-67 66.667 -67 114c0 33.333 10.667 61 32 83s51.666 36 90.999 42
c-30.667 6 -55.167 19.833 -73.5 41.5s-27.5 45.834 -27.5 72.501c0 44 19.333 78.5 58 103.5s92 37.5 160 37.5c43.333 0 89.666 -6.33301 138.999 -19l24 -6v-153h-2c-15.333 71.333 -58.666 107 -129.999 107c-28 0 -51.5 -6.33301 -70.5 -19
s-28.5 -28.334 -28.5 -47.001c0 -47.333 43 -71 129 -71v-70c-97.333 0 -146 -30.667 -146 -92z" />
    <glyph glyph-name="zeta" unicode="&#x3b6;" horiz-adv-x="495" 
d="M298 -14c-80 0 -144.666 21 -193.999 63c-48 43.333 -72 97 -72 161c0 63.333 17.667 123.666 53 180.999c34.667 56 105 136.667 211 242h-113c-39.333 0 -69.5 -7.66699 -90.5 -23s-34.833 -40.333 -41.5 -75h-2v165h435c-114.667 -113.333 -194.667 -206 -240 -278
c-44 -70.667 -66 -138.667 -66 -204c0 -110 48 -165 144 -165c26.667 0 58.667 2.33301 96 7l17 3c7.33301 -20 11 -41 11 -63c0 -49.333 -23 -89.333 -69 -120h-56c25.333 28.667 38 60.334 38 95.001l-2 18c-22.667 -4.66699 -42.334 -7 -59.001 -7z" />
    <glyph glyph-name="eta" unicode="&#x3b7;" horiz-adv-x="631" 
d="M231 368l-0.000976562 -368.001h-145v364c0 44 -5.16699 76.333 -15.5 97s-28.5 36.334 -54.5 47.001v2h215v-43c46.667 37.333 95.334 56 146.001 56c65.333 0 112.333 -14.167 141 -42.5s43 -76.5 43 -144.5v-526h-145v521c0 40.667 -6 69.5 -18 86.5
s-30.667 25.5 -56 25.5c-44 0 -81 -25 -111 -75z" />
    <glyph glyph-name="theta" unicode="&#x3b8;" horiz-adv-x="607" 
d="M306 -15c-100 0 -171.667 40.333 -215 121c-38.667 74.667 -58 167 -58 277c0 107.333 23 190.833 69 250.5s114 89.5 204 89.5c89.333 0 157 -30 203 -90s69 -143.333 69 -250c0 -110.667 -19.667 -203 -59 -277c-42.667 -80.667 -113.667 -121 -213 -121zM305 56
c78 0 118.667 95.667 122 287h-244c0.666992 -80 9 -146.333 25 -199c18 -58.667 50.333 -88 97 -88zM305 647c-37.333 0 -66.333 -20.333 -87 -61s-32.334 -98 -35.001 -172h243c-7.33301 155.333 -47.666 233 -120.999 233z" />
    <glyph glyph-name="iota" unicode="&#x3b9;" horiz-adv-x="330" 
d="M90 175l-0.000976562 189c0 46 -5.33301 78.667 -16 98c-10 20 -28.333 35.333 -55 46v2h216v-351c0 -33.333 5.33301 -57.333 16 -72s27.334 -22 50.001 -22h18v-65h-33c-69.333 -0 -119.333 14.333 -150 43s-46 72.667 -46 132z" />
    <glyph glyph-name="kappa" unicode="&#x3ba;" horiz-adv-x="596" 
d="M24 509l-0.000976562 1h213v-195h30c40.667 0 72 19.667 94 59l75 136h109l-96 -153c-18.667 -30 -43.667 -50.667 -75 -62c58.667 -6 101.334 -40.333 128.001 -103l82 -192h-161l-67 168c-21.333 54 -53.333 81 -96 81h-23v-249h-145v374
c0 41.333 -5.16699 71.5 -15.5 90.5s-27.833 33.833 -52.5 44.5z" />
    <glyph glyph-name="lambda" unicode="&#x3bb;" horiz-adv-x="572" 
d="M29 0l187.001 485l-49 136c-14.667 42 -45.334 67.667 -92.001 77v2h213l263 -700h-157l-117 327l-15 45h-1c-4 -16 -8.66699 -31 -14 -45l-121 -327h-97z" />
    <glyph glyph-name="mu" unicode="&#x3bc;" horiz-adv-x="680" 
d="M605 0l-145.002 -0.000976562v68c-29.333 -51.333 -71.666 -77 -126.999 -77c-42 0 -77 11 -105 33v-214h-145v546c0 45.333 -5.33301 79.333 -16 102s-28.667 39.334 -54 50.001v2h215v-263c0 -61.333 10.167 -108 30.5 -140s49.5 -48 87.5 -48
c28 0 51.833 12.5 71.5 37.5s33.834 59.5 42.501 103.5v310h145v-510z" />
    <glyph glyph-name="nu" unicode="&#x3bd;" horiz-adv-x="580" 
d="M-2 508v2h223l119 -326l8 -24h1c0.666992 3.33301 3 11.333 7 24l45 106c30 68.667 43 142 39 220h116c-6 -62 -28 -140 -66 -234l-112 -280h-110l-188 452c-12.667 32.667 -40 52.667 -82 60z" />
    <glyph glyph-name="xi" unicode="&#x3be;" horiz-adv-x="460" 
d="M308 636c-31.333 0 -55.668 -9.66699 -73.001 -29s-26 -45 -26 -77c0 -33.333 10.333 -60.5 31 -81.5s50.667 -31.5 90 -31.5v-67c-42 0 -76.5 -13.167 -103.5 -39.5s-40.5 -59.5 -40.5 -99.5c0 -48 13.5 -86.333 40.5 -115s61.833 -43 104.5 -43
c28.667 0 58.667 2.33301 90 7l15 3c7.33301 -20 11 -41 11 -63c0 -49.333 -23.333 -89.333 -70 -120h-56c25.333 28.667 38 60.334 38 95.001l-2 18c-25.333 -4.66699 -46.333 -7 -63 -7c-78 0 -140.333 21 -187 63c-46 43.333 -69 96 -69 158c0 46 13.333 84.167 40 114.5
s64.334 50.166 113.001 59.499v1c-36 6.66699 -65.333 23.5 -88 50.5s-34 58.5 -34 94.5c0 56.667 20 102 60 136s96.333 51 169 51c35.333 0 76.333 -4 123 -12l22 -4v-166h-2c-8.66699 37.333 -23 64 -43 80s-50 24 -90 24z" />
    <glyph glyph-name="omicron" unicode="&#x3bf;" horiz-adv-x="590" 
d="M37 269c0 75.333 22.333 136.334 67 183.001c45.333 47.333 110 71 194 71c83.333 0 147.666 -23.667 192.999 -71s68 -108.333 68 -183c0 -80.667 -21.667 -148.334 -65 -203.001c-43.333 -53.333 -108.666 -80 -195.999 -80c-88 0 -153.667 26.667 -197 80
c-42.667 53.333 -64 121 -64 203zM406 265.001c0 60.667 -9.49902 107 -28.499 139s-45.5 48 -79.5 48s-60.667 -16 -80 -48s-29 -78.333 -29 -139c0 -66 9.33301 -117.167 28 -153.5s45.667 -54.5 81 -54.5s62.166 18.167 80.499 54.5s27.5 87.5 27.5 153.5z" />
    <glyph glyph-name="pi" unicode="&#x3c0;" horiz-adv-x="633" 
d="M231 0l-145 -0.000976562v356c0 45.333 -5.33301 79.333 -16 102s-28.667 39.334 -54 50.001v2h540v-510h-145v438h-180v-438z" />
    <glyph glyph-name="rho" unicode="&#x3c1;" horiz-adv-x="597" 
d="M313 -14c-52.667 0 -90.6689 11.333 -114.002 34v-210h-145v456c0 80 20.833 142.833 62.5 188.5s101.834 68.5 180.501 68.5c84.667 0 148.334 -23.333 191.001 -70c44 -46 66 -106.667 66 -182c0 -82 -20 -150 -60 -204c-38.667 -54 -99 -81 -181 -81zM401.998 266
c0 60.667 -9 106.999 -27 138.999s-43.333 48 -76 48c-30.667 0 -55.167 -17.167 -73.5 -51.5s-27.5 -79.5 -27.5 -135.5c0 -140 32.333 -210 97 -210c35.333 0 62 18.333 80 55s27 88.334 27 155.001z" />
    <glyph glyph-name="sigma1" unicode="&#x3c2;" horiz-adv-x="476" 
d="M332 61c27.333 0 58.998 2.33301 94.998 7l17 3c6.66699 -22 10 -45.667 10 -71c0 -49.333 -23 -89.333 -69 -120h-56c25.333 28.667 38 60.334 38 95.001l-2 18c-22.667 -4.66699 -42 -7 -58 -7c-88.667 0 -156 26.333 -202 79c-45.333 53.333 -68 120.333 -68 201
c0 81.333 23.333 144.5 70 189.5s110.334 67.5 191.001 67.5c42.667 0 83.334 -4 122.001 -12l18 -4v-162h-1c-20 68 -59.667 102 -119 102c-40 0 -71.833 -15.667 -95.5 -47s-35.5 -76.333 -35.5 -135c0 -66.667 12.833 -117.334 38.5 -152.001s61.167 -52 106.5 -52z" />
    <glyph glyph-name="sigma" unicode="&#x3c3;" horiz-adv-x="601" 
d="M290 -14c-88.667 0 -153.333 26.3359 -194 79.0029c-41.333 53.333 -62 120.666 -62 201.999c0 71.333 23.667 129.666 71 174.999s111.333 68 192 68h273v-76h-67c24.667 -38.667 37 -94.334 37 -167.001c0 -187.333 -83.333 -281 -250 -281zM391.001 266.003
c0 73.333 -8 129.333 -24 168h-64c-36 0 -64.833 -14.5 -86.5 -43.5s-32.5 -70.5 -32.5 -124.5c0 -68.667 9.33301 -120.667 28 -156s44.667 -53 78 -53c34.667 0 60.167 16.833 76.5 50.5s24.5 86.5 24.5 158.5z" />
    <glyph glyph-name="tau" unicode="&#x3c4;" horiz-adv-x="473" 
d="M24 436l-0.000976562 74h423v-74h-166v-277c0 -34 5.33301 -58.167 16 -72.5s27.334 -21.5 50.001 -21.5h18v-65h-33c-69.333 -0 -119.333 14.333 -150 43s-46 72.667 -46 132v261h-112z" />
    <glyph glyph-name="upsilon" unicode="&#x3c5;" horiz-adv-x="600" 
d="M16 510l214.001 0.00195312v-323c0 -46.667 6.5 -79.834 19.5 -99.501s33.167 -29.5 60.5 -29.5c42 0 75.167 18.833 99.5 56.5s36.5 90.5 36.5 158.5c0 79.333 -22.667 158.333 -68 237h148c22 -64.667 33 -137 33 -217c0 -37.333 -4.83301 -73.333 -14.5 -108
s-24.667 -67.334 -45 -98.001s-48.333 -55.167 -84 -73.5s-77.167 -27.5 -124.5 -27.5c-73.333 0 -126.333 15.667 -159 47s-48.334 81.666 -47.001 150.999v180c0.666992 44.667 -4.33301 77 -15 97c-11.333 20.667 -29.333 36.334 -54 47.001v2z" />
    <glyph glyph-name="phi" unicode="&#x3c6;" horiz-adv-x="845" 
d="M493 348v-293c45.333 0 83 12.667 113 38c34 30 51 87.333 51 172c0 50.667 -8.33301 94 -25 130c-16 36.667 -41.333 55 -76 55c-42 0 -63 -34 -63 -102zM348 55l0.000976562 298c0 50.667 18.667 91.667 56 123s83.666 47 138.999 47c74 0 136.667 -22.667 188 -68
s77 -107.333 77 -186c0 -88 -28 -157 -84 -207s-133 -75 -231 -75v-177h-145v177c-96 0 -172.667 25.667 -230 77c-56.667 50.667 -85 119 -85 205c0 74 24.333 133.333 73 178c50 46 118.333 70.333 205 73v-48c-87.333 -18 -131 -87 -131 -207
c0 -42 4.66699 -77.667 14 -107s22.5 -51 39.5 -65s34.5 -23.833 52.5 -29.5s38.667 -8.5 62 -8.5z" />
    <glyph glyph-name="chi" unicode="&#x3c7;" horiz-adv-x="588" 
d="M9 -190l217 364.001l-150 267c-20.667 37.333 -48.667 59.666 -84 66.999v2h213l126 -237l120 237h101l-169 -314l215 -386h-175l-149 282l-148 -282h-117z" />
    <glyph glyph-name="psi" unicode="&#x3c8;" horiz-adv-x="829" 
d="M15 510h215.002v-242c0 -66.667 13.167 -118.834 39.5 -156.501s60.166 -56.5 101.499 -56.5v645h144v-645c48 0 86.833 19.333 116.5 58s44.5 92 44.5 160c0 79.333 -22.667 158.333 -68 237h148c22 -64.667 33 -137 33 -217c0 -72 -20.667 -139.667 -62 -203
c-20.667 -31.333 -49.667 -56.5 -87 -75.5s-79 -28.5 -125 -28.5v-176h-144v176c-91.333 0 -162.333 26.333 -213 79c-50.667 52 -75.334 121.667 -74.001 209l1 90c0 44 -5.16699 76.333 -15.5 97s-28.5 36.334 -54.5 47.001v2z" />
    <glyph glyph-name="omega" unicode="&#x3c9;" horiz-adv-x="844" 
d="M424 95c-38 -72.667 -90.667 -109 -158 -109c-74 0 -131.667 28.5 -173 85.5s-61 124.5 -59 202.5c0 101.333 38 180 114 236h110c-50 -53.333 -75 -132.333 -75 -237c0 -70 7.33301 -123.5 22 -160.5s35 -55.5 61 -55.5c60.667 0 91 95.333 91 286h133
c0 -190.667 30.333 -286 91 -286c26 0 46.333 18.5 61 55.5s22 90.5 22 160.5c0 104 -25 183 -75 237h110c76 -57.333 114 -136 114 -236c2 -78 -17.667 -145.5 -59 -202.5s-99 -85.5 -173 -85.5c-68 0 -120.333 36.333 -157 109z" />
    <glyph glyph-name="iotadieresis" unicode="&#x3ca;" horiz-adv-x="330" 
d="M90 175l-0.000976562 189c0 46 -5.33301 78.667 -16 98c-10 20 -28.333 35.333 -55 46v2h216v-351c0 -33.333 5.33301 -57.333 16 -72s27.334 -22 50.001 -22h18v-65h-33c-69.333 -0 -119.333 14.333 -150 43s-46 72.667 -46 132zM-1.00098 640
c0 18 6.33301 33.5 19 46.5s28.334 19.5 47.001 19.5s34.5 -6.5 47.5 -19.5s19.5 -28.5 19.5 -46.5c0 -18.667 -6.5 -34.334 -19.5 -47.001s-28.833 -19 -47.5 -19s-34.334 6.33301 -47.001 19s-19 28.334 -19 47.001zM177.999 640c0 18 6.33301 33.499 19 46.499
s28.334 19.5 47.001 19.5c18 0 33.667 -6.5 47 -19.5s20 -28.5 20 -46.5s-6.66699 -33.5 -20 -46.5s-29 -19.5 -47 -19.5c-18.667 0 -34.334 6.33301 -47.001 19s-19 28.334 -19 47.001z" />
    <glyph glyph-name="upsilondieresis" unicode="&#x3cb;" horiz-adv-x="600" 
d="M16 510l214.001 0.00195312v-323c0 -46.667 6.5 -79.834 19.5 -99.501s33.167 -29.5 60.5 -29.5c42 0 75.167 18.833 99.5 56.5s36.5 90.5 36.5 158.5c0 79.333 -22.667 158.333 -68 237h148c22 -64.667 33 -137 33 -217c0 -37.333 -4.83301 -73.333 -14.5 -108
s-24.667 -67.334 -45 -98.001s-48.333 -55.167 -84 -73.5s-77.167 -27.5 -124.5 -27.5c-73.333 0 -126.333 15.667 -159 47s-48.334 81.666 -47.001 150.999v180c0.666992 44.667 -4.33301 77 -15 97c-11.333 20.667 -29.333 36.334 -54 47.001v2zM137.001 640.002
c0 18 6.33301 33.5 19 46.5s28.334 19.5 47.001 19.5s34.5 -6.5 47.5 -19.5s19.5 -28.5 19.5 -46.5c0 -18.667 -6.5 -34.334 -19.5 -47.001s-28.833 -19 -47.5 -19s-34.334 6.33301 -47.001 19s-19 28.334 -19 47.001zM316.001 640.002c0 18 6.33301 33.499 19 46.499
s28.334 19.5 47.001 19.5c18 0 33.667 -6.5 47 -19.5s20 -28.5 20 -46.5s-6.66699 -33.5 -20 -46.5s-29 -19.5 -47 -19.5c-18.667 0 -34.334 6.33301 -47.001 19s-19 28.334 -19 47.001z" />
    <glyph glyph-name="omicrontonos" unicode="&#x3cc;" horiz-adv-x="590" 
d="M37 269c0 75.333 22.333 136.334 67 183.001c45.333 47.333 110 71 194 71c83.333 0 147.666 -23.667 192.999 -71s68 -108.333 68 -183c0 -80.667 -21.667 -148.334 -65 -203.001c-43.333 -53.333 -108.666 -80 -195.999 -80c-88 0 -153.667 26.667 -197 80
c-42.667 53.333 -64 121 -64 203zM406 265.001c0 60.667 -9.49902 107 -28.499 139s-45.5 48 -79.5 48s-60.667 -16 -80 -48s-29 -78.333 -29 -139c0 -66 9.33301 -117.167 28 -153.5s45.667 -54.5 81 -54.5s62.166 18.167 80.499 54.5s27.5 87.5 27.5 153.5z
M281.001 575.001h-81l93 143h109z" />
    <glyph glyph-name="upsilontonos" unicode="&#x3cd;" horiz-adv-x="600" 
d="M16 510l214.001 0.00195312v-323c0 -46.667 6.5 -79.834 19.5 -99.501s33.167 -29.5 60.5 -29.5c42 0 75.167 18.833 99.5 56.5s36.5 90.5 36.5 158.5c0 79.333 -22.667 158.333 -68 237h148c22 -64.667 33 -137 33 -217c0 -37.333 -4.83301 -73.333 -14.5 -108
s-24.667 -67.334 -45 -98.001s-48.333 -55.167 -84 -73.5s-77.167 -27.5 -124.5 -27.5c-73.333 0 -126.333 15.667 -159 47s-48.334 81.666 -47.001 150.999v180c0.666992 44.667 -4.33301 77 -15 97c-11.333 20.667 -29.333 36.334 -54 47.001v2zM302.001 575.002h-81
l93 143h109z" />
    <glyph glyph-name="omegatonos" unicode="&#x3ce;" horiz-adv-x="844" 
d="M424 95c-38 -72.667 -90.667 -109 -158 -109c-74 0 -131.667 28.5 -173 85.5s-61 124.5 -59 202.5c0 101.333 38 180 114 236h110c-50 -53.333 -75 -132.333 -75 -237c0 -70 7.33301 -123.5 22 -160.5s35 -55.5 61 -55.5c60.667 0 91 95.333 91 286h133
c0 -190.667 30.333 -286 91 -286c26 0 46.333 18.5 61 55.5s22 90.5 22 160.5c0 104 -25 183 -75 237h110c76 -57.333 114 -136 114 -236c2 -78 -17.667 -145.5 -59 -202.5s-99 -85.5 -173 -85.5c-68 0 -120.333 36.333 -157 109zM417 575h-81l93 143h109z" />
    <glyph glyph-name="afii10022_acute" unicode="&#x400;" horiz-adv-x="569" 
d="M243 409l213 -0.000976562v-75h-213v-260h133c48.667 0 84.334 6 107.001 18s38 33.333 46 64h1v-156h-432v510c0 60.667 -6.33301 103.667 -19 129c-13.333 26.667 -36.666 46.334 -69.999 59.001v2h505v-168h-2c-8.66699 34 -23.334 58.167 -44.001 72.5
s-51.334 21.5 -92.001 21.5h-133v-217zM278 764.999h-81l93 143h109z" />
    <glyph glyph-name="afii10023" unicode="&#x401;" horiz-adv-x="569" 
d="M243 409l213 -0.000976562v-75h-213v-260h133c48.667 0 84.334 6 107.001 18s38 33.333 46 64h1v-156h-432v510c0 60.667 -6.33301 103.667 -19 129c-13.333 26.667 -36.666 46.334 -69.999 59.001v2h505v-168h-2c-8.66699 34 -23.334 58.167 -44.001 72.5
s-51.334 21.5 -92.001 21.5h-133v-217zM128 829.999c0 18 6.33301 33.5 19 46.5s28.334 19.5 47.001 19.5s34.5 -6.5 47.5 -19.5s19.5 -28.5 19.5 -46.5c0 -18.667 -6.5 -34.334 -19.5 -47.001s-28.833 -19 -47.5 -19s-34.334 6.33301 -47.001 19s-19 28.334 -19 47.001z
M307 829.999c0 18 6.33301 33.499 19 46.499s28.334 19.5 47.001 19.5c18 0 33.667 -6.5 47 -19.5s20 -28.5 20 -46.5s-6.66699 -33.5 -20 -46.5s-29 -19.5 -47 -19.5c-18.667 0 -34.334 6.33301 -47.001 19s-19 28.334 -19 47.001z" />
    <glyph glyph-name="afii10051" unicode="&#x402;" horiz-adv-x="788" 
d="M577 86l-0.000976562 224.999c0 64.667 -17.667 100.667 -53 108c-14.667 3.33301 -31 1.66602 -49 -5.00098c-32 -7.33301 -59.667 -29 -83 -65v-349h-145v626h-59c-77.333 0 -123 -31.333 -137 -94h-1v168h539v-168h-1c-14 62.667 -59.667 94 -137 94h-59v-179
c46.667 37.333 95.667 56 147 56c64.667 0 111.334 -14.167 140.001 -42.5s43 -76.5 43 -144.5v-173c0 -75.333 -15.667 -137.666 -47 -186.999c-31.333 -50 -92 -102.333 -182 -157l-16 27c38 32.667 64 68.334 78 107.001c14.667 37.333 22 88.333 22 153z" />
    <glyph glyph-name="afii10052" unicode="&#x403;" horiz-adv-x="545" 
d="M369 626l-126.001 -0.000976562v-626h-145v510c0 60.667 -6.33301 103.667 -19 129c-13.333 26.667 -36.666 46.334 -69.999 59.001v2h498v-168h-2c-14 62.667 -59.333 94 -136 94zM254.999 764.999h-81l93 143h109z" />
    <glyph glyph-name="afii10053" unicode="&#x404;" horiz-adv-x="616" 
d="M426 62c54.667 0 103.001 7.00195 145.001 21.002v-69c-50 -19.333 -103.333 -29 -160 -29c-115.333 0 -203.333 36 -264 108c-60.667 72.667 -91 168 -91 286c0 90 25 165.667 75 227c51.333 61.333 123 96 215 104c34 2 61.333 2.66699 82 2
c49.333 -0.666992 94 -9.33398 134 -26.001v-164h-1c-22 76.667 -76.333 115 -163 115c-53.333 0 -95.833 -19.333 -127.5 -58s-49.834 -95.334 -54.501 -170.001h249v-75h-249c4.66699 -90 25.5 -157.833 62.5 -203.5s86.167 -68.5 147.5 -68.5z" />
    <glyph glyph-name="afii10054" unicode="&#x405;" horiz-adv-x="589" 
d="M399 168c0 26.667 -11.999 50.502 -35.999 71.502s-65.667 42.5 -125 64.5c-64.667 23.333 -112 50 -142 80c-28 30 -43 70.667 -45 122c0 13.333 1 26.333 3 39c6 46 27.833 83.667 65.5 113s88.167 46.666 151.5 51.999c30 2 55.333 2.66699 76 2
c40.667 -2 86 -10.667 136 -26v-164h-2c-18.667 67.333 -64.667 104.666 -138 111.999c-20.667 2.66699 -39.334 3 -56.001 1c-34.667 -2.66699 -62 -11.834 -82 -27.501s-30 -34.834 -30 -57.501c0 -24.667 10 -46 30 -64c21.333 -18 59 -37.333 113 -58
c79.333 -30 136.166 -62.667 170.499 -98s51.5 -77.666 51.5 -126.999c0 -69.333 -24.667 -123 -74 -161s-118.666 -57 -207.999 -57c-36 0 -73.333 3.66699 -112 11c-35.333 6.66699 -59 13.334 -71 20.001v81c43.333 -23.333 102.333 -35 177 -35c46 0 82 9.33301 108 28
s39 44.667 39 78z" />
    <glyph glyph-name="uni0406" unicode="&#x406;" horiz-adv-x="314" 
d="M233 0h-144.999v541c0 51.333 -5.33301 87.333 -16 108c-10.667 22 -30.334 38.333 -59.001 49v2h220v-700z" />
    <glyph glyph-name="afii10056" unicode="&#x407;" horiz-adv-x="326" 
d="M243 0l-145.001 -0.000976562v510c0 60.667 -6.33301 103.667 -19 129c-13.333 26.667 -36.666 46.334 -69.999 59.001v2h234v-700zM2.99902 829.999c0 18 6.33301 33.5 19 46.5s28.334 19.5 47.001 19.5s34.5 -6.5 47.5 -19.5s19.5 -28.5 19.5 -46.5
c0 -18.667 -6.5 -34.334 -19.5 -47.001s-28.833 -19 -47.5 -19s-34.334 6.33301 -47.001 19s-19 28.334 -19 47.001zM181.999 829.999c0 18 6.33301 33.499 19 46.499s28.334 19.5 47.001 19.5c18 0 33.667 -6.5 47 -19.5s20 -28.5 20 -46.5s-6.66699 -33.5 -20 -46.5
s-29 -19.5 -47 -19.5c-18.667 0 -34.334 6.33301 -47.001 19s-19 28.334 -19 47.001z" />
    <glyph glyph-name="afii10057" unicode="&#x408;" horiz-adv-x="326" 
d="M5 700h233.999v-618c0 -54.667 -14.333 -102.667 -43 -144c-28.667 -43.333 -80 -90 -154 -140l-23 29c29.333 31.333 49 62 59 92c10.667 29.333 16 71.666 16 126.999v464c0 60.667 -6.33301 103.667 -19 129c-13.333 26.667 -36.666 46.334 -69.999 59.001v2z" />
    <glyph glyph-name="afii10058" unicode="&#x409;" horiz-adv-x="968" 
d="M930 216c0 -68 -24.167 -121.002 -72.5 -159.002s-115.5 -57 -201.5 -57h-212v626h-184v-232c0 -115.333 -18.667 -205.833 -56 -271.5s-98.333 -112.167 -183 -139.5v37c28 16 49 35 63 57c29.333 44.667 44 141.334 44 290.001v27v139c0 50 -5.5 87.333 -16.5 112
s-30.5 42.334 -58.5 53.001v2h536v-292h72c81.333 0 146.333 -16.333 195 -49c49.333 -33.333 74 -81 74 -143zM662 74.998c36.667 0 65.833 12.667 87.5 38s32.5 60 32.5 104c0 37.333 -13 66.666 -39 87.999s-59.667 32 -101 32c-3.33301 0 -7.5 -0.166992 -12.5 -0.5
s-9.66699 -0.666016 -14 -0.999023l-12.5 -1c-4 -0.333008 -7.33301 -0.5 -10 -0.5l-4 -1v-247c22 -7.33301 46.333 -11 73 -11z" />
    <glyph glyph-name="afii10059" unicode="&#x40a;" horiz-adv-x="1009" 
d="M977 216c0 -68 -24.168 -121.002 -72.501 -159.002s-115.5 -57 -201.5 -57h-212v332h-248v-332h-145v510c0 60.667 -6.33301 103.667 -19 129c-13.333 26.667 -36.666 46.334 -69.999 59.001v2h234v-292h248v292h145v-292h73c82.667 0 148 -16.667 196 -50
s72 -80.666 72 -141.999zM708.999 74.998c36.667 0 65.834 12.6689 87.501 38.002s32.5 60 32.5 104c0 37.333 -13 66.666 -39 87.999s-59.667 32 -101 32c-4.66699 0 -11.334 -0.333008 -20.001 -1s-16.167 -1.33398 -22.5 -2.00098s-9.83301 -1 -10.5 -1v-247
c22 -7.33301 46.333 -11 73 -11z" />
    <glyph glyph-name="afii10060" unicode="&#x40b;" horiz-adv-x="788" 
d="M722 316l-0.000976562 -315.999h-145v289v22c0 64.667 -17.667 100.667 -53 108c-14.667 3.33301 -31 1.66602 -49 -5.00098c-32 -7.33301 -59.667 -29 -83 -65v-349h-145v626h-59c-77.333 0 -123 -31.333 -137 -94h-1v168h539v-168h-1c-14 62.667 -59.667 94 -137 94
h-59v-179c46.667 37.333 95.667 56 147 56c64.667 0 111.334 -14.167 140.001 -42.5s43 -76.5 43 -144.5z" />
    <glyph glyph-name="afii10061" unicode="&#x40c;" horiz-adv-x="702" 
d="M243 0l-145.001 -0.000976562v510c0 60.667 -6.33301 103.667 -19 129c-13.333 26.667 -36.666 46.334 -69.999 59.001v2h234v-325l266 325h112l-219 -261l272 -439h-179l-191 336l-61 -79v-257zM334.999 764.999h-81l93 143h109z" />
    <glyph glyph-name="afii10026_acute" unicode="&#x40d;" horiz-adv-x="751" 
d="M665 0l-145.001 -0.000976562v526h-1l-260 -526h-161v510c0 60.667 -6.33301 103.667 -19 129c-13.333 26.667 -36.666 46.334 -69.999 59.001v2h234v-535h1l263 535h158v-700zM363.999 764.999h-81l93 143h109z" />
    <glyph glyph-name="afii10062" unicode="&#x40e;" horiz-adv-x="638" 
d="M179 0l114 236l-189 343c-23.333 40.667 -44 69 -62 85s-39 27.333 -63 34v2h229l162 -318l132 318h106l-323 -700h-106zM205 888h54.002c3.33301 -17.333 12.166 -31.666 26.499 -42.999s30.833 -17 49.5 -17s35.167 5.66699 49.5 17s23.166 25.666 26.499 42.999h55
c-2 -34 -15.667 -63.333 -41 -88c-25.333 -23.333 -55.333 -35 -90 -35s-64.667 11.667 -90 35c-26 24.667 -39.333 54 -40 88z" />
    <glyph glyph-name="afii10145" unicode="&#x40f;" horiz-adv-x="716" 
d="M630 700l-0.00195312 -700.001h-140c-65.333 -0.666992 -105.666 -30.667 -120.999 -90h-3c-14.667 58.667 -57.667 88.667 -129 90h-139v510c0 60.667 -6.33301 103.667 -19 129c-13.333 26.667 -36.666 46.334 -69.999 59.001v2h237v-608c24 -11.333 52 -17 84 -17h152
v625h148z" />
    <glyph glyph-name="afii10017" unicode="&#x410;" horiz-adv-x="668" 
d="M164 700l211 0.000976562l270 -700h-162l-73 199h-228l-68 -199h-101l198 546c10.667 30 16 54.333 16 73c0 35.333 -21 61.666 -63 78.999v2zM382 274.001l-89 260h-1l-85 -260h175z" />
    <glyph glyph-name="afii10018" unicode="&#x411;" horiz-adv-x="659" 
d="M322 77c43.333 0 77.667 14.832 103 44.499s38 72.834 38 129.501c0 46 -12.667 81.333 -38 106s-62 37 -110 37c-30 0 -54 -3 -72 -9v-298c26 -6.66699 52.333 -10 79 -10zM610.001 252.999c0 -80 -26.668 -142.167 -80.001 -186.5s-128.666 -66.5 -225.999 -66.5h-206
v531c0 50 -6.66699 87.167 -20 111.5s-36.333 42.833 -69 55.5v2h520v-168h-2c-14 62.667 -59.333 94 -136 94h-148v-155h69c98.667 0 173 -18.5 223 -55.5s75 -91.167 75 -162.5z" />
    <glyph glyph-name="afii10019" unicode="&#x412;" horiz-adv-x="637" 
d="M286 0l-188.001 -0.000976562v510c0 60.667 -6 104 -18 130c-10.667 25.333 -33 44.666 -67 57.999v2h280c178 0 267 -56.667 267 -170c0 -33.333 -12 -62.333 -36 -87s-55.333 -40.667 -94 -48c48.667 -3.33301 89.667 -20.666 123 -51.999
c34.667 -30.667 52 -71.667 52 -123c0 -68 -23 -120.333 -69 -157c-45.333 -35.333 -104.666 -55.666 -177.999 -60.999c-41.333 -1.33301 -65.333 -2 -72 -2zM323.999 76.999c42 0 75 12.499 99 37.499s36 59.5 36 103.5c0 40.667 -14.167 72.334 -42.5 95.001
s-68.5 34 -120.5 34h-54v-260h1c19.333 -6.66699 46.333 -10 81 -10zM241.999 622.998v-213.001h42c40.667 0 72.667 9.33301 96 28s35 45.334 35 80.001c0 74.667 -40.333 112 -121 112c-22.667 0 -40 -2.33301 -52 -7z" />
    <glyph glyph-name="afii10020" unicode="&#x413;" horiz-adv-x="545" 
d="M369 626l-126.001 -0.000976562v-626h-145v510c0 60.667 -6.33301 103.667 -19 129c-13.333 26.667 -36.666 46.334 -69.999 59.001v2h498v-168h-2c-14 62.667 -59.333 94 -136 94z" />
    <glyph glyph-name="afii10021" unicode="&#x414;" horiz-adv-x="730" 
d="M484 74v552h-184v-232c0 -147.333 -34.333 -254 -103 -320h287zM585 0h-431.002c-73.333 -0 -118.666 -29.667 -135.999 -89h-2v163h89c22.667 28 38.834 64.167 48.501 108.5s14.5 105.833 14.5 184.5v166c0 51.333 -5.5 89 -16.5 113s-30.5 41.333 -58.5 52v2h536v-626
h89v-163h-1c-18.667 58 -62.667 87.667 -132 89z" />
    <glyph glyph-name="afii10022" unicode="&#x415;" horiz-adv-x="569" 
d="M243 409l213 -0.000976562v-75h-213v-260h133c48.667 0 84.334 6 107.001 18s38 33.333 46 64h1v-156h-432v510c0 60.667 -6.33301 103.667 -19 129c-13.333 26.667 -36.666 46.334 -69.999 59.001v2h505v-168h-2c-8.66699 34 -23.334 58.167 -44.001 72.5
s-51.334 21.5 -92.001 21.5h-133v-217z" />
    <glyph glyph-name="afii10024" unicode="&#x416;" horiz-adv-x="1042" 
d="M182 700l265.999 -325.001v135c0 60.667 -6.33301 103.667 -19 129c-13.333 26.667 -36.666 46.334 -69.999 59.001v2h234v-325l266 325h112l-219 -261l272 -439h-179l-191 336l-61 -79v-257h-145v257l-61 79l-191 -336h-179l272 439l-219 261h112z" />
    <glyph glyph-name="afii10025" unicode="&#x417;" horiz-adv-x="595" 
d="M242 62c49.333 0 88.1689 13.334 116.502 40.001s42.5 63.334 42.5 110.001c0 40.667 -15.167 71.667 -45.5 93s-72.833 32 -127.5 32h-39v72h34c36 0 68.333 9.66699 97 29c28.667 20 43 47.667 43 83s-10.667 63.5 -32 84.5s-49.333 31.5 -84 31.5
c-86.667 0 -140.334 -38.333 -161.001 -115h-2v164c14.667 6 41.334 12 80.001 18c37.333 6.66699 74.666 10 111.999 10c77.333 0 136 -14.833 176 -44.5s60 -72.5 60 -128.5c0 -40.667 -16.333 -74.334 -49 -101.001c-31.333 -26 -69 -41.667 -113 -47
c56.667 0 104 -16 142 -48c38.667 -32 58 -74.333 58 -127c0 -70.667 -27.333 -127.334 -82 -170.001c-54.667 -42 -128.334 -63 -221.001 -63c-37.333 0 -73.166 3.33301 -107.499 10s-57.5 13.667 -69.5 21v72c53.333 -17.333 110.666 -26 171.999 -26z" />
    <glyph glyph-name="afii10026" unicode="&#x418;" horiz-adv-x="751" 
d="M665 0l-145.001 -0.000976562v526h-1l-260 -526h-161v510c0 60.667 -6.33301 103.667 -19 129c-13.333 26.667 -36.666 46.334 -69.999 59.001v2h234v-535h1l263 535h158v-700z" />
    <glyph glyph-name="afii10027" unicode="&#x419;" horiz-adv-x="751" 
d="M210 806l-3.99902 3.00098v26c55.333 -15.333 111.333 -23 168 -23c51.333 0 95 6 131 18l18 5v-26c-2 -3.33301 -7.33301 -9.33301 -16 -18c-6 -6 -22.667 -15.333 -50 -28c-26 -11.333 -53.667 -17 -83 -17c-39.333 0 -74.333 7.16699 -105 21.5
s-50.334 27.166 -59.001 38.499zM665.001 0.000976562l-145.001 -0.000976562v526h-1l-260 -526h-161v510c0 60.667 -6.33301 103.667 -19 129c-13.333 26.667 -36.666 46.334 -69.999 59.001v2h234v-535h1l263 535h158v-700z" />
    <glyph glyph-name="afii10028" unicode="&#x41a;" horiz-adv-x="698" 
d="M243 0l-145.001 -0.000976562v510c0 60.667 -6.33301 103.667 -19 129c-13.333 26.667 -36.666 46.334 -69.999 59.001v2h234v-325l266 325h112l-219 -261l272 -439h-179l-191 336l-61 -79v-257z" />
    <glyph glyph-name="afii10029" unicode="&#x41b;" horiz-adv-x="684" 
d="M136 367v165.999c0 51.333 -5.5 89 -16.5 113s-30.5 41.333 -58.5 52v2h536v-700h-145v626h-184v-265c0 -202 -79.667 -328 -239 -378v37c28 16 49 35 63 57c29.333 44.667 44 141.334 44 290.001z" />
    <glyph glyph-name="afii10030" unicode="&#x41c;" horiz-adv-x="935" 
d="M696 540l-1 0.000976562l-209 -540h-98l-208 540h-1l-52 -540h-95l63 546c4 33.333 6 57.666 6 72.999c0 38.667 -20 65 -60 79v2h227l200 -529h1l145 377c12 32 18 56.667 18 74c0 20.667 -3.33301 36.5 -10 47.5s-19 20.5 -37 28.5v2h230l75 -700h-150z" />
    <glyph glyph-name="afii10031" unicode="&#x41d;" horiz-adv-x="717" 
d="M636 0l-145.001 -0.000976562v334h-248v-334h-145v510c0 60.667 -6.33301 103.667 -19 129c-13.333 26.667 -36.666 46.334 -69.999 59.001v2h234v-291h248v291h145v-700z" />
    <glyph glyph-name="afii10032" unicode="&#x41e;" horiz-adv-x="752" 
d="M376 -15c-108 0 -189.667 38.999 -245 116.999c-50 74.667 -75 165 -75 271c0 94.667 27.667 175.167 83 241.5s134.333 99.5 237 99.5s181.667 -33.167 237 -99.5s83 -146.833 83 -241.5c0 -71.333 -11 -135.666 -33 -192.999c-20.667 -55.333 -56 -102 -106 -140
c-48.667 -36.667 -109 -55 -181 -55zM537 370.999c0 84.667 -14.332 150.168 -42.999 196.501s-68 69.5 -118 69.5c-50.667 0 -90.334 -23 -119.001 -69s-43 -111.667 -43 -197c0 -92.667 14 -167.334 42 -224.001c28.667 -56.667 68.667 -85 120 -85s91 28.333 119 85
c28 57.333 42 132 42 224z" />
    <glyph glyph-name="afii10033" unicode="&#x41f;" horiz-adv-x="712" 
d="M625 0l-145.001 -0.000976562v625h-237v-625h-145v510c0 60.667 -6.33301 103.667 -19 129c-13.333 26.667 -36.666 46.334 -69.999 59.001v2h616v-700z" />
    <glyph glyph-name="afii10034" unicode="&#x420;" horiz-adv-x="628" 
d="M243 0l-145 -0.000976562v510c0 60.667 -6.33301 103.667 -19 129c-13.333 26.667 -36.666 46.334 -69.999 59.001v2h283c192 0 288 -68.333 288 -205c0 -70.667 -26 -128 -78 -172c-52.667 -43.333 -124.334 -65 -215.001 -65h-44v-258zM296 623.999l-53 -5v-278
c18 -5.33301 35 -8 51 -8c42.667 0 76.667 13.333 102 40s38 63.667 38 111c0 93.333 -46 140 -138 140z" />
    <glyph glyph-name="afii10035" unicode="&#x421;" horiz-adv-x="615" 
d="M426 62c54.667 0 103 7.00293 145 21.0029v-69c-38 -16.667 -86.333 -26 -145 -28c-4.66699 -0.666992 -18.667 -0.333984 -42 0.999023c-106.667 4 -188 42 -244 114s-84 164.667 -84 278c0 90 25 165.667 75 227c51.333 61.333 123 96 215 104
c34 2 61.333 2.66699 82 2c49.333 -0.666992 94 -9.33398 134 -26.001v-164h-1c-22 76.667 -76.333 115 -163 115c-58.667 0 -104 -22.333 -136 -67s-48 -110.334 -48 -197.001c0 -102 19 -179.333 57 -232s89.667 -79 155 -79z" />
    <glyph glyph-name="afii10036" unicode="&#x422;" horiz-adv-x="636" 
d="M451 626h-59v-626h-145v626h-59c-77.333 0 -123 -31.333 -137 -94h-1v168h539v-168h-1c-14 62.667 -59.667 94 -137 94z" />
    <glyph glyph-name="afii10037" unicode="&#x423;" horiz-adv-x="638" 
d="M179 0l114 236l-189 343c-23.333 40.667 -44 69 -62 85s-39 27.333 -63 34v2h229l162 -318l132 318h106l-323 -700h-106z" />
    <glyph glyph-name="afii10038" unicode="&#x424;" horiz-adv-x="987" 
d="M418 708c-4.66699 34.667 -33 63.334 -85 86.001v2h230v-88c112 -2.66699 202.333 -34 271 -94c68.667 -58.667 103 -138.667 103 -240c0 -110 -33.667 -200.333 -101 -271c-66.667 -69.333 -157.667 -106.666 -273 -111.999v-106h-145v106
c-116 5.33301 -207.333 42.666 -274 111.999s-100 159.666 -100 270.999c0 101.333 34 181.333 102 240c70 60 160.667 91.333 272 94zM780 373c0 85.333 -18.833 150.833 -56.5 196.5s-91.167 71.5 -160.5 77.5v-591c66 2.66699 118.667 32 158 88
c39.333 56.667 59 133 59 229zM201 373c0 -96 19.667 -172.333 59 -229c39.333 -56 92 -85.333 158 -88v591c-69.333 -6 -122.833 -31.833 -160.5 -77.5s-56.5 -111.167 -56.5 -196.5z" />
    <glyph glyph-name="afii10039" unicode="&#x425;" horiz-adv-x="677" 
d="M523 700l104.999 0.000976562l-196 -309l245 -391h-178l-166 289l-171 -289h-116l232 365l-140 214c-27.333 42.667 -49.666 71 -66.999 85c-17.333 15.333 -39 26.666 -65 33.999v2h233l142 -239z" />
    <glyph glyph-name="afii10040" unicode="&#x426;" horiz-adv-x="731" 
d="M484 700l144.999 -0.000976562v-625h71v-165h-1c-15.333 60 -59 90 -131 90h-470v510c0 60.667 -6.33301 103.667 -19 129c-13.333 26.667 -36.666 46.334 -69.999 59.001v2h234v-608c24 -11.333 52.333 -17 85 -17h156v625z" />
    <glyph glyph-name="afii10041" unicode="&#x427;" horiz-adv-x="709" 
d="M630 0l-145.001 -0.000976562v307c-60 -26.667 -116.333 -40 -169 -40c-74 0 -128.833 16.333 -164.5 49s-53.5 84 -53.5 154v40c0 60.667 -6.33301 103.667 -19 129c-13.333 26.667 -36.666 46.334 -69.999 59.001v2h233v-214c0 -50.667 10 -87.167 30 -109.5
s53 -33.5 99 -33.5c36.667 0 74.667 11 114 33v324h145v-700z" />
    <glyph glyph-name="afii10042" unicode="&#x428;" horiz-adv-x="1052" 
d="M820 700l144.999 -0.000976562v-700h-867v510c0 60.667 -6.33301 103.667 -19 129c-13.333 26.667 -36.666 46.334 -69.999 59.001v2h234v-608c24 -11.333 52.333 -17 85 -17h132v625h145v-625h215v625z" />
    <glyph glyph-name="afii10043" unicode="&#x429;" horiz-adv-x="1067" 
d="M820 700l144.999 -0.000976562v-625h72v-165h-2c-15.333 60 -58.333 90 -129 90h-808v510c0 60.667 -6.33301 103.667 -19 129c-13.333 26.667 -36.666 46.334 -69.999 59.001v2h234v-608c24 -11.333 52.333 -17 85 -17h132v625h145v-625h215v625z" />
    <glyph glyph-name="afii10044" unicode="&#x42a;" horiz-adv-x="737" 
d="M415 77c43.333 0 77.667 14.832 103 44.499s38 72.834 38 129.501c0 46 -12.667 81.333 -38 106s-62 37 -110 37c-30 0 -54 -3 -72 -9v-298c26 -6.66699 52.333 -10 79 -10zM703.001 252.999c0 -80 -26.668 -142.167 -80.001 -186.5s-128.666 -66.5 -225.999 -66.5h-206
v626h-24c-76.667 0 -122 -31.333 -136 -94h-2v168h307v-229h69c98.667 0 173 -18.5 223 -55.5s75 -91.167 75 -162.5z" />
    <glyph glyph-name="afii10045" unicode="&#x42b;" horiz-adv-x="919" 
d="M322 77c43.333 0 77.667 14.832 103 44.499s38 72.834 38 129.501c0 46 -12.667 81.333 -38 106s-62 37 -110 37c-30 0 -54 -3 -72 -9v-298c26 -6.66699 52.333 -10 79 -10zM674.001 154.999c-2.66699 -49.333 -22.168 -87.5 -58.501 -114.5
s-86.166 -40.5 -149.499 -40.5h-157v532c0 54.667 -6.66699 93.667 -20 117c-12.667 22.667 -36.667 39 -72 49v2h235v-187l35 -38c124.667 -62 187 -168.667 187 -320zM479 -0.000976562l-0.000976562 510c0 60.667 -6.33301 103.667 -19 129
c-13.333 26.667 -36.666 46.334 -69.999 59.001v2h123v-98h145c74 -78 111 -186 111 -324c0 -126.667 -38 -219.334 -114 -278.001h-176z" />
    <glyph glyph-name="afii10046" unicode="&#x42c;" horiz-adv-x="647" 
d="M322 77c43.333 0 77.667 14.832 103 44.499s38 72.834 38 129.501c0 46 -12.667 81.333 -38 106s-62 37 -110 37c-30 0 -54 -3 -72 -9v-298c26 -6.66699 52.333 -10 79 -10zM610.001 252.999c0 -80 -26.668 -142.167 -80.001 -186.5s-128.666 -66.5 -225.999 -66.5h-206
v532c0 54.667 -6.66699 93.667 -20 117c-12.667 22.667 -36.667 39 -72 49v2h237v-229h69c98.667 0 173 -18.5 223 -55.5s75 -91.167 75 -162.5z" />
    </font>
</defs>
</svg>
