<svg width="190" height="40" viewBox="0 0 190 40" fill="none" xmlns="http://www.w3.org/2000/svg">
<g clip-path="url(#clip0)">
<path d="M133.215 16.1765H130.848V16.5091C130.848 17.2575 130.634 17.8728 130.223 18.3718C129.812 18.8707 129.171 19.1202 128.299 19.1202C127.445 19.1202 126.787 18.8541 126.294 18.3219C125.817 17.7897 125.57 17.0745 125.57 16.1765V13.0166C125.57 12.1185 125.817 11.3867 126.294 10.8711C126.771 10.3389 127.445 10.0728 128.299 10.0728C129.154 10.0728 129.796 10.3223 130.223 10.8046C130.634 11.2869 130.848 11.9189 130.848 12.6839V12.8669H133.215V12.7505C133.215 11.237 132.788 10.0562 131.933 9.19139C131.078 8.32657 129.878 7.89417 128.316 7.89417C126.738 7.89417 125.488 8.34321 124.568 9.22466C123.647 10.1061 123.187 11.3867 123.187 13.0332V16.1266C123.187 17.7731 123.647 19.0537 124.568 19.9351C125.488 20.8166 126.738 21.2656 128.316 21.2656C129.878 21.2656 131.094 20.8332 131.933 19.9684C132.771 19.1035 133.215 17.9227 133.215 16.4093V16.1765Z" fill="white"/>
<path d="M137.325 18.2055H141.863L142.553 21.0327H145.019L141.682 8.17688H137.506L134.152 21.0327H136.618L137.325 18.2055ZM139.43 9.69031H139.758L141.304 15.9602H137.884L139.43 9.69031Z" fill="white"/>
<path d="M151.267 7.91077C149.688 7.91077 148.439 8.35981 147.518 9.24126C146.598 10.1227 146.137 11.4033 146.137 13.0498V16.1432C146.137 17.7897 146.598 19.0703 147.518 19.9517C148.439 20.8332 149.688 21.2822 151.267 21.2822C152.828 21.2822 154.045 20.8498 154.883 19.985C155.722 19.1201 156.166 17.9393 156.166 16.4259V16.1764H153.798V16.5091C153.798 17.2575 153.585 17.8728 153.174 18.3717C152.763 18.8707 152.121 19.1201 151.25 19.1201C150.395 19.1201 149.738 18.854 149.244 18.3219C148.768 17.7897 148.521 17.0745 148.521 16.1764V13.0165C148.521 12.1184 148.768 11.3867 149.244 10.8711C149.721 10.3389 150.395 10.0728 151.25 10.0728C152.105 10.0728 152.746 10.3223 153.174 10.8046C153.585 11.2869 153.798 11.9189 153.798 12.6839V12.8668H156.166V12.7504C156.166 11.237 155.738 10.0562 154.883 9.19136C154.029 8.32654 152.828 7.91077 151.267 7.91077Z" fill="white"/>
<path d="M157.119 10.3722H160.818V21.0327H163.218V10.3722H166.934V8.17688H157.119V10.3722Z" fill="white"/>
<path d="M178.442 8.17688H176.042V16.5922C176.042 17.3739 175.828 17.9892 175.384 18.4549C174.941 18.904 174.299 19.1368 173.461 19.1368C172.622 19.1368 171.981 18.904 171.537 18.4549C171.093 18.0059 170.88 17.3905 170.88 16.5922V8.17688H168.479V16.5257C168.479 17.5069 168.677 18.3551 169.071 19.0703C169.466 19.7854 170.041 20.3342 170.781 20.7167C171.521 21.0993 172.425 21.2988 173.461 21.2988C174.497 21.2988 175.401 21.0993 176.141 20.7167C176.88 20.3342 177.456 19.7854 177.85 19.0703C178.245 18.3551 178.442 17.5069 178.442 16.5257V8.17688Z" fill="white"/>
<path d="M189.424 15.3948C189.046 14.8958 188.52 14.4967 187.846 14.1807C187.172 13.8813 186.383 13.6152 185.479 13.4323L185.068 13.3325C184.558 13.2161 184.147 13.0997 183.818 12.95C183.49 12.8003 183.243 12.6174 183.079 12.4012C182.914 12.185 182.832 11.9189 182.832 11.5862C182.832 11.1039 183.013 10.7381 183.342 10.4553C183.687 10.1726 184.229 10.0396 184.953 10.0396C185.429 10.0396 185.857 10.1061 186.202 10.2558C186.547 10.3888 186.827 10.6216 187.008 10.921C187.189 11.2204 187.287 11.6195 187.287 12.1018V12.6506H189.655V12.1018C189.655 11.1705 189.457 10.3888 189.046 9.77345C188.635 9.1581 188.076 8.69243 187.369 8.37644C186.662 8.06045 185.857 7.91077 184.953 7.91077C184.049 7.91077 183.259 8.06045 182.585 8.35981C181.911 8.65917 181.385 9.09158 181.024 9.6404C180.662 10.2059 180.465 10.8711 180.465 11.6528C180.465 12.4344 180.629 13.0664 180.958 13.5654C181.287 14.0477 181.763 14.4468 182.388 14.7462C183.013 15.0455 183.753 15.295 184.624 15.4946L185.035 15.5943C185.577 15.7108 186.038 15.8438 186.432 15.9935C186.81 16.1265 187.106 16.3095 187.304 16.5423C187.501 16.7585 187.6 17.0579 187.6 17.4071C187.6 17.9227 187.402 18.3385 186.991 18.6711C186.58 19.0037 185.972 19.17 185.15 19.17C184.344 19.17 183.703 18.9705 183.226 18.5879C182.75 18.2054 182.52 17.6233 182.52 16.8583V16.3261H180.185V16.8417C180.185 17.773 180.399 18.5713 180.826 19.2366C181.254 19.9018 181.829 20.4007 182.585 20.7666C183.342 21.1159 184.196 21.2988 185.183 21.2988C186.169 21.2988 187.008 21.1325 187.731 20.7999C188.454 20.4673 189.013 20.0016 189.408 19.4029C189.803 18.8042 190 18.1223 190 17.3406C190 16.5423 189.803 15.8937 189.424 15.3948Z" fill="white"/>
<path d="M88.4482 29.8805C88.4482 35.3023 92.8049 39.7095 98.1644 39.7095H101.518C106.878 39.7095 111.234 35.3023 111.234 29.8805V24.2925H88.4482V29.8805ZM90.7499 26.6042H108.933V29.8805C108.933 34.0217 105.612 37.3812 101.518 37.3812H98.1644C94.0708 37.3812 90.7499 34.0217 90.7499 29.8805V26.6042Z" fill="white"/>
<path d="M108.933 12.9999L108.456 12.9001V12.5509C108.456 10.921 108.012 9.39095 107.24 8.09372L107.568 7.74447L109.081 6.09799L109.525 5.59905L108.917 4.75087L108.308 5.0336L106.27 5.96494L105.711 6.21441C104.445 5.01697 102.817 4.18541 101.025 3.93594L100.91 3.37048L100.499 1.35812L100.351 0.692871H99.3319L99.1839 1.35812L98.7565 3.35385L98.6414 3.91931C96.833 4.18541 95.2054 5.01696 93.9231 6.23104L93.1504 5.89842L91.2926 5.10012L90.6843 4.83402L90.0925 5.66558L90.5364 6.16451L91.8845 7.69458L92.3777 8.2434C91.6543 9.524 91.2433 10.9875 91.2433 12.5509V12.8835L90.7172 12.9833L88.5307 13.4323L87.873 13.5654V14.6131L88.5307 14.7462L90.7172 15.1952L91.2433 15.295V20.4008H93.5285V12.5509C93.5285 9.02507 96.3727 6.14788 99.858 6.14788C103.343 6.14788 106.187 9.02507 106.187 12.5509V20.4008H108.473V15.295L108.949 15.1952L111.136 14.7462L111.794 14.6131V13.5654L111.136 13.4323L108.933 12.9999Z" fill="white"/>
<path d="M136.585 31.4106H136.487L135.402 27.5355H134.53L133.462 31.4106H133.347L132.525 27.5355H131.999L132.936 31.7598H133.84L134.925 27.8848H135.024L136.092 31.7598H136.996L137.95 27.5355H137.407L136.585 31.4106Z" fill="white"/>
<path d="M141.994 27.6685C141.698 27.5022 141.353 27.4191 140.959 27.4191C140.564 27.4191 140.202 27.5022 139.89 27.6852C139.578 27.8681 139.331 28.1176 139.15 28.4502C138.969 28.7828 138.887 29.1653 138.887 29.5977V29.6975C138.887 30.1299 138.969 30.5125 139.15 30.8451C139.331 31.1777 139.578 31.4272 139.89 31.6101C140.202 31.7931 140.581 31.8762 141.008 31.8762C141.386 31.8762 141.682 31.8097 141.929 31.6933C142.175 31.5769 142.373 31.4272 142.521 31.2442C142.668 31.0613 142.784 30.8783 142.882 30.6788L142.422 30.4626C142.307 30.7287 142.142 30.9449 141.929 31.1278C141.715 31.3108 141.419 31.3939 141.024 31.3939C140.564 31.3939 140.186 31.2442 139.89 30.9615C139.594 30.6788 139.43 30.263 139.413 29.7308H142.981V29.4481C142.981 29.0157 142.899 28.6498 142.718 28.3338C142.537 28.0178 142.29 27.8348 141.994 27.6685ZM139.413 29.315C139.479 28.8493 139.643 28.5001 139.923 28.2506C140.202 28.0012 140.548 27.8847 140.959 27.8847C141.386 27.8847 141.731 28.0012 141.994 28.2506C142.257 28.5001 142.405 28.8493 142.438 29.315H139.413Z" fill="white"/>
<path d="M147.502 27.6852C147.19 27.5023 146.861 27.4191 146.483 27.4191C146.187 27.4191 145.924 27.469 145.71 27.5522C145.496 27.6353 145.315 27.7517 145.184 27.8682C145.052 28.0012 144.937 28.1343 144.871 28.2839H144.773V25.6729H144.263V31.7598H144.756V30.9782H144.855C144.97 31.211 145.167 31.4106 145.414 31.5935C145.677 31.7765 146.022 31.8596 146.483 31.8596C146.861 31.8596 147.19 31.7765 147.502 31.5935C147.798 31.4106 148.044 31.1611 148.225 30.8285C148.406 30.4959 148.488 30.1134 148.488 29.6643V29.5645C148.488 29.1155 148.406 28.733 148.225 28.4004C148.044 28.101 147.798 27.8515 147.502 27.6852ZM147.946 29.681C147.946 30.2132 147.798 30.6456 147.502 30.9449C147.206 31.2443 146.828 31.4106 146.351 31.4106C145.874 31.4106 145.496 31.2609 145.2 30.9449C144.904 30.6456 144.756 30.2132 144.756 29.681V29.6144C144.756 29.0822 144.904 28.6498 145.2 28.3505C145.496 28.0511 145.891 27.8848 146.351 27.8848C146.828 27.8848 147.206 28.0345 147.502 28.3505C147.798 28.6665 147.946 29.0822 147.946 29.6144V29.681Z" fill="white"/>
<path d="M155.327 31.0447V28.9824C155.327 28.4835 155.179 28.101 154.9 27.8182C154.604 27.5355 154.209 27.4025 153.667 27.4025C153.322 27.4025 153.026 27.469 152.779 27.5854C152.532 27.7018 152.335 27.8681 152.187 28.0677C152.039 28.2673 151.924 28.5001 151.858 28.7496L152.352 28.8993C152.434 28.5999 152.565 28.3504 152.779 28.1675C152.993 27.9846 153.289 27.9014 153.65 27.9014C154.029 27.9014 154.308 28.0012 154.505 28.1841C154.703 28.3837 154.801 28.6498 154.801 28.9824V29.315H153.272C152.993 29.315 152.73 29.3649 152.483 29.4481C152.253 29.5479 152.056 29.6809 151.924 29.8639C151.793 30.0468 151.71 30.2796 151.71 30.5624C151.71 30.8451 151.776 31.0779 151.924 31.2775C152.056 31.4771 152.253 31.6268 152.483 31.7266C152.713 31.8263 152.993 31.8762 153.272 31.8762C153.552 31.8762 153.798 31.843 153.979 31.7598C154.177 31.6767 154.324 31.5935 154.44 31.4605C154.555 31.344 154.653 31.211 154.735 31.0779H154.818V31.1445C154.818 31.3274 154.867 31.4771 154.966 31.5769C155.064 31.6767 155.212 31.7432 155.393 31.7432H155.936V31.2941H155.525C155.41 31.3108 155.327 31.2276 155.327 31.0447ZM154.818 29.8639C154.818 30.3628 154.686 30.7453 154.407 31.0114C154.127 31.2775 153.782 31.4106 153.338 31.4106C153.026 31.4106 152.763 31.344 152.565 31.1944C152.368 31.0447 152.253 30.8285 152.253 30.5624C152.253 30.2963 152.352 30.0801 152.549 29.9637C152.746 29.8306 152.993 29.7641 153.289 29.7641H154.818V29.8639Z" fill="white"/>
<path d="M160.375 28.3172H160.276C160.161 28.0844 159.964 27.8848 159.717 27.7019C159.454 27.5189 159.109 27.4358 158.648 27.4358C158.27 27.4358 157.941 27.5189 157.629 27.7019C157.333 27.8682 157.086 28.1177 156.906 28.4337C156.725 28.7496 156.643 29.1322 156.643 29.5812V29.681C156.643 30.13 156.725 30.4959 156.906 30.8285C157.086 31.1445 157.333 31.394 157.629 31.5769C157.941 31.7432 158.27 31.843 158.648 31.843C158.961 31.843 159.224 31.7931 159.437 31.71C159.651 31.6268 159.816 31.5104 159.964 31.3774C160.095 31.2443 160.21 31.1113 160.276 30.9616H160.375V32.7744C160.375 32.9407 160.292 33.0405 160.111 33.0405H157.333V33.5061H160.194C160.424 33.5061 160.588 33.4563 160.687 33.3398C160.802 33.2234 160.851 33.0571 160.851 32.8575V27.5522H160.375V28.3172ZM160.358 29.6477C160.358 30.1799 160.21 30.5957 159.914 30.8951C159.618 31.1944 159.24 31.3441 158.763 31.3441C158.287 31.3441 157.908 31.1944 157.613 30.8951C157.317 30.5957 157.169 30.1799 157.169 29.6477V29.5812C157.169 29.049 157.317 28.6332 157.613 28.3339C157.908 28.0345 158.303 27.8848 158.763 27.8848C159.24 27.8848 159.618 28.0345 159.914 28.3339C160.21 28.6332 160.358 29.049 160.358 29.5812V29.6477Z" fill="white"/>
<path d="M165.274 27.6685C164.978 27.5022 164.633 27.4191 164.238 27.4191C163.843 27.4191 163.482 27.5022 163.169 27.6852C162.857 27.8681 162.61 28.1176 162.43 28.4502C162.249 28.7828 162.167 29.1653 162.167 29.5977V29.6975C162.167 30.1299 162.249 30.5125 162.43 30.8451C162.61 31.1777 162.857 31.4272 163.169 31.6101C163.482 31.7931 163.86 31.8762 164.287 31.8762C164.665 31.8762 164.961 31.8097 165.208 31.6933C165.455 31.5769 165.652 31.4272 165.8 31.2442C165.948 31.0613 166.063 30.8783 166.161 30.6788L165.701 30.4626C165.586 30.7287 165.422 30.9449 165.208 31.1278C164.994 31.3108 164.698 31.3939 164.304 31.3939C163.843 31.3939 163.465 31.2442 163.169 30.9615C162.873 30.6788 162.709 30.263 162.693 29.7308H166.26V29.4481C166.26 29.0157 166.178 28.6498 165.997 28.3338C165.816 28.0178 165.57 27.8348 165.274 27.6685ZM162.693 29.315C162.758 28.8493 162.923 28.5001 163.202 28.2506C163.482 28.0012 163.827 27.8847 164.238 27.8847C164.665 27.8847 165.011 28.0012 165.274 28.2506C165.537 28.5001 165.685 28.8493 165.718 29.315H162.693Z" fill="white"/>
<path d="M170.485 27.6354C170.239 27.5023 169.959 27.4358 169.647 27.4358C169.203 27.4358 168.858 27.5189 168.627 27.7019C168.397 27.8848 168.216 28.0844 168.118 28.3006H168.019V27.5189H167.526V31.7433H168.036V29.6311C168.036 29.049 168.183 28.6166 168.463 28.3339C168.742 28.0511 169.104 27.9015 169.532 27.9015C169.91 27.9015 170.222 28.0012 170.452 28.2008C170.682 28.4004 170.798 28.733 170.798 29.1987V31.7433H171.307V29.1654C171.307 28.7829 171.225 28.4503 171.077 28.2008C170.929 27.968 170.732 27.7684 170.485 27.6354Z" fill="white"/>
<path d="M175.746 31.0613C175.5 31.2941 175.154 31.4272 174.694 31.4272C174.398 31.4272 174.119 31.3606 173.872 31.211C173.625 31.0613 173.445 30.8617 173.297 30.6122C173.149 30.3461 173.083 30.0468 173.083 29.6975V29.631C173.083 29.2818 173.149 28.9658 173.297 28.7163C173.445 28.4502 173.625 28.2506 173.872 28.1176C174.119 27.9679 174.382 27.9014 174.694 27.9014C175.006 27.9014 175.253 27.9513 175.467 28.0677C175.68 28.1841 175.828 28.3338 175.944 28.5167C176.059 28.6997 176.124 28.9159 176.157 29.1321L176.667 29.0323C176.634 28.7662 176.535 28.5001 176.371 28.2506C176.207 28.0012 175.993 27.8016 175.713 27.6519C175.434 27.5022 175.089 27.4191 174.694 27.4191C174.283 27.4191 173.921 27.5022 173.609 27.6852C173.297 27.8681 173.034 28.1176 172.853 28.4502C172.672 28.7828 172.573 29.1653 172.573 29.6144V29.6975C172.573 30.1466 172.672 30.5291 172.853 30.8617C173.034 31.1943 173.28 31.4438 173.609 31.6267C173.921 31.8097 174.283 31.8928 174.694 31.8928C175.089 31.8928 175.434 31.8097 175.713 31.66C175.993 31.5103 176.207 31.3108 176.371 31.0613C176.535 30.8118 176.634 30.5624 176.7 30.2796L176.19 30.1798C176.124 30.5291 175.976 30.8118 175.746 31.0613Z" fill="white"/>
<path d="M181.188 29.6643C181.188 30.2464 181.04 30.6788 180.761 30.9615C180.481 31.2442 180.119 31.3939 179.692 31.3939C179.314 31.3939 179.002 31.2941 178.771 31.0946C178.541 30.895 178.426 30.5624 178.426 30.0967V27.5521H177.917V30.1299C177.917 30.5125 177.999 30.8451 178.147 31.0946C178.295 31.344 178.508 31.5436 178.755 31.6766C179.018 31.8097 179.281 31.8762 179.593 31.8762C179.906 31.8762 180.136 31.843 180.333 31.7598C180.53 31.6766 180.695 31.5769 180.81 31.4604C180.941 31.3274 181.024 31.211 181.106 31.0613H181.205V32.8076C181.205 32.9739 181.122 33.0737 180.941 33.0737H178.492V33.5393H181.04C181.27 33.5393 181.435 33.4894 181.55 33.373C181.665 33.2566 181.714 33.0903 181.714 32.8907V27.5854H181.205V29.6643H181.188Z" fill="white"/>
<path d="M123.943 29.8139L128.201 30.0634V28.7994L123.943 29.0489V29.8139Z" fill="white"/>
<path d="M185.084 30.0634L189.342 29.8139V29.0489L185.084 28.7994V30.0634Z" fill="white"/>
<path d="M6.03373 10.921V5.66553H7.48047V15.9935H6.03373V13.9146C5.82001 14.5964 5.45832 15.1286 4.96511 15.5278C4.47191 15.9269 3.8965 16.1265 3.23889 16.1265C2.33467 16.1265 1.57842 15.7773 0.970132 15.0621C0.361843 14.3636 0.065918 13.4822 0.065918 12.4178C0.065918 11.37 0.361843 10.4886 0.970132 9.77342C1.57842 9.05828 2.33467 8.70903 3.23889 8.70903C3.8965 8.70903 4.47191 8.9086 4.96511 9.30775C5.45832 9.70689 5.82001 10.2391 6.03373 10.921ZM3.71565 14.7628C4.38971 14.7628 4.94867 14.5466 5.37612 14.0975C5.82001 13.6485 6.03373 13.0996 6.03373 12.4178C6.03373 11.7359 5.82001 11.1704 5.37612 10.738C4.93223 10.289 4.38971 10.0728 3.71565 10.0728C3.10737 10.0728 2.59772 10.3056 2.17027 10.7547C1.74282 11.2037 1.5291 11.7692 1.5291 12.4344C1.5291 13.0996 1.74282 13.6485 2.17027 14.0975C2.59772 14.5466 3.10737 14.7628 3.71565 14.7628Z" fill="white"/>
<path d="M12.9222 8.70898C14.0566 8.70898 14.9772 9.12476 15.6842 9.93969C16.3911 10.7546 16.687 11.7525 16.5555 12.9167H10.7192C10.8178 13.4987 11.0809 13.9644 11.5083 14.3137C11.9358 14.6796 12.4454 14.8459 13.0373 14.8459C13.4976 14.8459 13.9086 14.7295 14.2703 14.4966C14.632 14.2638 14.9115 13.9644 15.1252 13.5653L16.3418 14.1141C16.0294 14.7128 15.5855 15.1951 15.0101 15.561C14.4347 15.9269 13.7607 16.1098 13.0044 16.1098C11.9522 16.1098 11.0644 15.7606 10.3411 15.0454C9.61771 14.3469 9.27246 13.4655 9.27246 12.4011C9.27246 11.3533 9.61771 10.4719 10.3246 9.75675C11.0151 9.07487 11.8865 8.70898 12.9222 8.70898ZM12.9222 9.98958C12.3961 9.98958 11.9193 10.1559 11.5412 10.4885C11.1466 10.8211 10.8836 11.2535 10.7685 11.7857H15.0923C14.9772 11.2535 14.7142 10.8211 14.3196 10.4885C13.9251 10.1559 13.4647 9.98958 12.9222 9.98958Z" fill="white"/>
<path d="M17.9365 14.0976L19.3833 13.7982C19.5148 14.5632 20.0244 14.9458 20.9287 14.9458C21.389 14.9458 21.7507 14.8626 22.0466 14.6797C22.3261 14.4967 22.474 14.2639 22.474 13.9811C22.474 13.6818 22.3261 13.4656 22.0301 13.2993C21.7342 13.1496 21.3725 13.0332 20.9615 12.9666C20.5341 12.9001 20.1066 12.817 19.6792 12.7005C19.2517 12.6008 18.8901 12.4012 18.5941 12.1018C18.2982 11.8025 18.1502 11.3867 18.1502 10.8878C18.1502 10.2724 18.4133 9.75684 18.9394 9.34106C19.4655 8.92528 20.1395 8.72571 20.9287 8.72571C21.7342 8.72571 22.3754 8.90865 22.9015 9.27454C23.4111 9.64042 23.7235 10.1227 23.8221 10.7547L22.3754 11.0541C22.2603 10.289 21.7835 9.90652 20.9451 9.90652C20.567 9.90652 20.2382 9.98967 19.9916 10.156C19.745 10.3223 19.6134 10.5385 19.6134 10.8046C19.6134 11.0541 19.7121 11.237 19.9258 11.3867C20.1395 11.5364 20.4026 11.6362 20.7314 11.686C21.0602 11.7359 21.4054 11.8025 21.7671 11.9023C22.1452 12.002 22.4905 12.1018 22.8028 12.2182C23.1316 12.3347 23.3947 12.5342 23.6084 12.8336C23.8221 13.133 23.9208 13.4988 23.9208 13.9479C23.9208 14.5632 23.6413 15.0954 23.0659 15.5112C22.4905 15.927 21.7835 16.1266 20.9287 16.1266C20.0902 16.1266 19.4161 15.9436 18.8901 15.5777C18.364 15.2118 18.0516 14.7295 17.9365 14.0976Z" fill="white"/>
<path d="M25.6468 7.44504C25.466 7.2621 25.3838 7.06252 25.3838 6.79643C25.3838 6.54696 25.466 6.33075 25.6468 6.14781C25.8277 5.96487 26.0414 5.88171 26.288 5.88171C26.5346 5.88171 26.7483 5.96487 26.9292 6.14781C27.11 6.33075 27.1922 6.53033 27.1922 6.79643C27.1922 7.04589 27.11 7.2621 26.9292 7.44504C26.7483 7.62798 26.551 7.71114 26.288 7.71114C26.025 7.71114 25.8112 7.62798 25.6468 7.44504ZM26.9949 15.9768H25.5482V8.85869H26.9949V15.9768Z" fill="white"/>
<path d="M34.7385 10.871V8.85866H36.1852V15.2118C36.1852 16.2595 35.8235 17.141 35.1166 17.8561C34.3932 18.5546 33.5055 18.9205 32.4533 18.9205C31.7135 18.9205 31.0394 18.7376 30.464 18.3717C29.8722 18.0058 29.4447 17.5235 29.1488 16.9081L30.464 16.2595C30.6613 16.6753 30.9243 16.9913 31.2696 17.2241C31.6148 17.457 32.0094 17.5734 32.4697 17.5734C33.1109 17.5734 33.6534 17.3405 34.0973 16.8915C34.5412 16.4425 34.7549 15.877 34.7549 15.2118V13.8147C34.5248 14.4634 34.1631 14.9789 33.6699 15.3781C33.1767 15.7606 32.6012 15.9602 31.9601 15.9602C31.0559 15.9602 30.2996 15.6109 29.6913 14.929C29.083 14.2305 28.7871 13.3657 28.7871 12.3346C28.7871 11.3034 29.083 10.4386 29.6913 9.74011C30.2996 9.04161 31.0559 8.70898 31.9601 8.70898C32.6177 8.70898 33.1931 8.90856 33.6863 9.29107C34.1631 9.69022 34.5248 10.2224 34.7385 10.871ZM32.4697 14.6297C33.1273 14.6297 33.6699 14.4135 34.0973 13.9811C34.5248 13.5486 34.7385 12.9998 34.7385 12.3512C34.7385 11.7026 34.5248 11.1538 34.0973 10.7214C33.6699 10.2889 33.1273 10.0727 32.4697 10.0727C31.845 10.0727 31.3189 10.2889 30.8915 10.7214C30.464 11.1538 30.2503 11.7026 30.2503 12.3346C30.2503 12.9832 30.464 13.532 30.8915 13.9644C31.3189 14.4135 31.845 14.6297 32.4697 14.6297Z" fill="white"/>
<path d="M42.2022 8.70898C43.0077 8.70898 43.6489 8.99171 44.1586 9.55717C44.6682 10.1226 44.9148 10.8378 44.9148 11.7192V15.9768H43.4681V11.9521C43.4681 11.4032 43.2872 10.9542 42.942 10.5883C42.5967 10.2224 42.1528 10.0561 41.6432 10.0561C41.0678 10.0561 40.591 10.239 40.2293 10.5883C39.8677 10.9542 39.6704 11.4032 39.6704 11.9521V15.9768H38.2236V8.85866H39.6704V10.7047C39.8677 10.0894 40.18 9.60707 40.6239 9.25781C41.0842 8.89193 41.6103 8.70898 42.2022 8.70898Z" fill="white"/>
<path d="M55.4529 8.70898C56.2914 8.70898 56.9819 8.92519 57.5244 9.37423C58.0505 9.82327 58.33 10.4553 58.33 11.3034V15.9768H56.8832V14.0808C56.4558 15.4446 55.5845 16.1098 54.2692 16.1098C53.6609 16.1098 53.1513 15.9269 52.7567 15.561C52.3457 15.1951 52.1484 14.7128 52.1484 14.1141C52.1484 13.4156 52.395 12.9 52.8718 12.5508C53.365 12.2015 53.9733 11.9853 54.7296 11.9022L56.0941 11.7691C56.6037 11.7192 56.8668 11.4864 56.8668 11.0706C56.8668 10.7214 56.7353 10.4553 56.4722 10.2557C56.2092 10.0561 55.8639 9.95632 55.4529 9.95632C55.0255 9.95632 54.6474 10.0727 54.3514 10.2889C54.0555 10.5051 53.8582 10.8378 53.776 11.2702L52.3457 10.9209C52.4772 10.2557 52.8225 9.72348 53.3815 9.32434C53.9569 8.90856 54.6474 8.70898 55.4529 8.70898ZM54.746 14.929C55.3378 14.929 55.8475 14.7295 56.2585 14.3303C56.6695 13.9312 56.8832 13.4489 56.8832 12.9167V12.5341C56.7681 12.7171 56.5051 12.8335 56.0777 12.8834L54.746 13.0497C54.4008 13.0996 54.1213 13.1994 53.9075 13.3657C53.6938 13.532 53.5952 13.7482 53.5952 14.0309C53.5952 14.3137 53.6938 14.5299 53.9075 14.6962C54.1213 14.8625 54.3843 14.929 54.746 14.929Z" fill="white"/>
<path d="M64.2652 8.70898C65.0707 8.70898 65.7119 8.99171 66.2215 9.55717C66.7312 10.1226 66.9778 10.8378 66.9778 11.7192V15.9768H65.5311V11.9521C65.5311 11.4032 65.3502 10.9542 65.005 10.5883C64.6597 10.2224 64.2158 10.0561 63.7062 10.0561C63.1308 10.0561 62.654 10.239 62.2923 10.5883C61.9306 10.9542 61.7334 11.4032 61.7334 11.9521V15.9768H60.2866V8.85866H61.7334V10.7047C61.9306 10.0894 62.243 9.60707 62.6869 9.25781C63.1472 8.89193 63.6733 8.70898 64.2652 8.70898Z" fill="white"/>
<path d="M74.688 10.921V5.66553H76.1348V15.9935H74.688V13.9146C74.4743 14.5964 74.1126 15.1286 73.6194 15.5278C73.1262 15.9269 72.5508 16.1265 71.8932 16.1265C70.989 16.1265 70.2327 15.7773 69.6244 15.0621C69.0161 14.3636 68.7202 13.4822 68.7202 12.4178C68.7202 11.37 69.0161 10.4886 69.6244 9.77342C70.2327 9.05828 70.989 8.70903 71.8932 8.70903C72.5508 8.70903 73.1262 8.9086 73.6194 9.30775C74.0962 9.70689 74.4579 10.2391 74.688 10.921ZM72.37 14.7628C73.044 14.7628 73.603 14.5466 74.0304 14.0975C74.4743 13.6485 74.688 13.0996 74.688 12.4178C74.688 11.7359 74.4743 11.1704 74.0304 10.738C73.5865 10.289 73.044 10.0728 72.37 10.0728C71.7617 10.0728 71.252 10.3056 70.8246 10.7547C70.3971 11.2037 70.1834 11.7692 70.1834 12.4344C70.1834 13.0996 70.3971 13.6485 70.8246 14.0975C71.2356 14.5466 71.7617 14.7628 72.37 14.7628Z" fill="white"/>
<path d="M5.39224 26.5043V21.7644H6.69102V31.0778H5.39224V29.2152C5.19496 29.8305 4.86615 30.3128 4.42227 30.6621C3.97838 31.0113 3.45229 31.1943 2.86044 31.1943C2.03843 31.1943 1.34794 30.8783 0.805411 30.2463C0.262883 29.6143 -0.0166016 28.816 -0.0166016 27.868C-0.0166016 26.9201 0.262883 26.1218 0.805411 25.4898C1.34794 24.8412 2.03843 24.5252 2.86044 24.5252C3.45229 24.5252 3.97838 24.7081 4.42227 25.0574C4.88259 25.4066 5.19496 25.8889 5.39224 26.5043ZM3.30433 29.9802C3.91262 29.9802 4.40583 29.7806 4.80039 29.3815C5.19496 28.9823 5.39224 28.4834 5.39224 27.868C5.39224 27.2527 5.19496 26.7537 4.80039 26.338C4.40583 25.9388 3.91262 25.7392 3.30433 25.7392C2.7618 25.7392 2.28503 25.9388 1.90691 26.3546C1.52878 26.7537 1.3315 27.2693 1.3315 27.868C1.3315 28.4668 1.52878 28.9657 1.90691 29.3648C2.30147 29.7806 2.7618 29.9802 3.30433 29.9802Z" fill="white"/>
<path d="M11.0971 24.5253C12.1164 24.5253 12.9384 24.8912 13.5796 25.6396C14.2208 26.3713 14.4838 27.2694 14.3687 28.3172H9.10786C9.2065 28.8327 9.43667 29.2651 9.81479 29.5811C10.1929 29.8971 10.6532 30.0634 11.1958 30.0634C11.6068 30.0634 11.9849 29.9636 12.3137 29.7474C12.6425 29.5479 12.8891 29.2651 13.0864 28.9159L14.1879 29.3982C13.9084 29.947 13.4974 30.3794 12.9878 30.712C12.4617 31.0447 11.8698 31.1943 11.1793 31.1943C10.2258 31.1943 9.42023 30.8784 8.77906 30.2464C8.13789 29.6144 7.80908 28.8161 7.80908 27.8681C7.80908 26.9201 8.12145 26.1219 8.76262 25.4899C9.38735 24.8413 10.16 24.5253 11.0971 24.5253ZM11.0971 25.6728C10.6204 25.6728 10.1929 25.8225 9.84767 26.1219C9.50243 26.4212 9.25582 26.8037 9.14074 27.286H13.0371C12.922 26.8037 12.6918 26.4212 12.3466 26.1219C12.0178 25.8225 11.5903 25.6728 11.0971 25.6728Z" fill="white"/>
<path d="M17.7719 30.6787L19.7283 24.6582H21.06L18.8406 31.0779H16.6047L14.3853 24.6416H15.7991L17.7719 30.6787Z" fill="white"/>
<path d="M24.3315 24.5253C25.3508 24.5253 26.1728 24.8912 26.814 25.6396C27.4552 26.3713 27.7182 27.2694 27.6031 28.3172H22.3422C22.4409 28.8327 22.671 29.2651 23.0492 29.5811C23.4273 29.8971 23.8876 30.0634 24.4301 30.0634C24.8412 30.0634 25.2193 29.9636 25.5481 29.7474C25.8769 29.5479 26.1235 29.2651 26.3208 28.9159L27.4223 29.3982C27.1428 29.947 26.7318 30.3794 26.2221 30.712C25.696 31.0447 25.1042 31.1943 24.4137 31.1943C23.4602 31.1943 22.6546 30.8784 22.0134 30.2464C21.3723 29.6144 21.0435 28.8161 21.0435 27.8681C21.0435 26.9201 21.3558 26.1219 21.997 25.4899C22.6053 24.8413 23.3944 24.5253 24.3315 24.5253ZM24.3315 25.6728C23.8547 25.6728 23.4273 25.8225 23.082 26.1219C22.7368 26.4212 22.4902 26.8037 22.3751 27.286H26.2715C26.1564 26.8037 25.9262 26.4212 25.581 26.1219C25.2357 25.8225 24.8247 25.6728 24.3315 25.6728Z" fill="white"/>
<path d="M30.0366 31.0778H28.7378V21.7644H30.0366V31.0778Z" fill="white"/>
<path d="M32.1082 30.2464C31.467 29.6144 31.1382 28.8161 31.1382 27.8681C31.1382 26.9201 31.467 26.1219 32.1082 25.4899C32.7493 24.8413 33.5549 24.5253 34.5084 24.5253C35.462 24.5253 36.2675 24.8413 36.9087 25.4899C37.5499 26.1385 37.8787 26.9201 37.8787 27.8681C37.8787 28.8161 37.5499 29.6144 36.9087 30.2464C36.2675 30.8784 35.462 31.1943 34.5084 31.1943C33.5549 31.1943 32.7493 30.8784 32.1082 30.2464ZM33.0617 26.3547C32.6671 26.7538 32.4698 27.2694 32.4698 27.8681C32.4698 28.4668 32.6671 28.9824 33.0617 29.3816C33.4563 29.7807 33.933 29.9803 34.5084 29.9803C35.0838 29.9803 35.577 29.7807 35.9552 29.3816C36.3333 28.9824 36.5306 28.4835 36.5306 27.8681C36.5306 27.2528 36.3333 26.7538 35.9552 26.3381C35.577 25.9389 35.0838 25.7393 34.5084 25.7393C33.933 25.7393 33.4563 25.9389 33.0617 26.3547Z" fill="white"/>
<path d="M42.794 24.5253C43.616 24.5253 44.3065 24.8413 44.849 25.4899C45.3915 26.1385 45.671 26.9202 45.671 27.8681C45.671 28.8161 45.3915 29.6144 44.849 30.2464C44.3065 30.8784 43.616 31.1944 42.794 31.1944C42.2021 31.1944 41.676 31.0114 41.2321 30.6622C40.7882 30.3129 40.4594 29.814 40.2622 29.2152V33.5892H38.9634V24.6417H40.2622V26.5044C40.4594 25.889 40.7882 25.4067 41.2321 25.0575C41.676 24.7082 42.2021 24.5253 42.794 24.5253ZM42.3665 29.9803C42.909 29.9803 43.3694 29.7807 43.7475 29.3649C44.1256 28.9658 44.3065 28.4502 44.3065 27.8681C44.3065 27.2694 44.1256 26.7538 43.7475 26.3547C43.3694 25.9555 42.909 25.7393 42.3665 25.7393C41.7582 25.7393 41.265 25.9389 40.8705 26.3381C40.4759 26.7372 40.2786 27.2528 40.2786 27.8681C40.2786 28.4668 40.4759 28.9824 40.8705 29.3816C41.2486 29.7807 41.7582 29.9803 42.3665 29.9803Z" fill="white"/>
<path d="M54.3021 24.5253C54.9597 24.5253 55.4858 24.7747 55.9132 25.2903C56.3242 25.8059 56.538 26.4545 56.538 27.2361V31.0779H55.2392V27.4357C55.2392 26.9368 55.1077 26.5376 54.8282 26.205C54.5651 25.889 54.2199 25.7227 53.8253 25.7227C53.3814 25.7227 53.0033 25.889 52.7238 26.205C52.4443 26.521 52.2964 26.9368 52.2964 27.4357V31.0779H50.9976V27.4357C50.9976 26.9368 50.8661 26.5376 50.603 26.205C50.34 25.889 50.0112 25.7227 49.6002 25.7227C49.1563 25.7227 48.7782 25.889 48.4987 26.205C48.2192 26.521 48.0712 26.9368 48.0712 27.4357V31.0779H46.7725V24.6417H48.0712V26.2216C48.2521 25.6894 48.5151 25.2737 48.8604 24.9743C49.2056 24.6749 49.6331 24.5253 50.0934 24.5253C50.603 24.5253 51.0305 24.6916 51.4086 25.0076C51.7703 25.3236 52.0333 25.7726 52.1813 26.3048C52.3293 25.756 52.5923 25.3236 52.9704 25.0076C53.3486 24.6916 53.7924 24.5253 54.3021 24.5253Z" fill="white"/>
<path d="M60.8784 24.5253C61.8977 24.5253 62.7197 24.8912 63.3609 25.6396C64.002 26.3713 64.2651 27.2694 64.15 28.3172H58.8891C58.9878 28.8327 59.2179 29.2651 59.596 29.5811C59.9742 29.8971 60.4345 30.0634 60.977 30.0634C61.388 30.0634 61.7662 29.9636 62.095 29.7474C62.4238 29.5479 62.6704 29.2651 62.8676 28.9159L63.9691 29.3982C63.6897 29.947 63.2787 30.3794 62.769 30.712C62.2429 31.0447 61.6511 31.1943 60.9606 31.1943C60.007 31.1943 59.2015 30.8784 58.5603 30.2464C57.9191 29.6144 57.5903 28.8161 57.5903 27.8681C57.5903 26.9201 57.9027 26.1219 58.5439 25.4899C59.1522 24.8413 59.9413 24.5253 60.8784 24.5253ZM60.8784 25.6728C60.4016 25.6728 59.9742 25.8225 59.6289 26.1219C59.2837 26.4212 59.0371 26.8037 58.922 27.286H62.8183C62.7032 26.8037 62.4731 26.4212 62.1278 26.1219C61.7826 25.8225 61.3551 25.6728 60.8784 25.6728Z" fill="white"/>
<path d="M68.852 24.5253C69.5754 24.5253 70.1673 24.7747 70.6112 25.2903C71.0715 25.8059 71.3017 26.4545 71.3017 27.2361V31.0779H70.0029V27.4357C70.0029 26.9368 69.8385 26.5376 69.5261 26.205C69.2137 25.889 68.8192 25.7227 68.3588 25.7227C67.8327 25.7227 67.4053 25.889 67.0765 26.205C66.7477 26.521 66.5833 26.9368 66.5833 27.4357V31.0779H65.2681V24.6417H66.5668V26.3048C66.7477 25.756 67.0272 25.3236 67.4382 24.9909C67.8492 24.6749 68.3095 24.5253 68.852 24.5253Z" fill="white"/>
<path d="M73.143 25.8225H71.7949V24.6583H73.143V22.5628L74.4418 22.147V24.6416H76.2338V25.8058H74.4418V28.7662C74.4418 29.1653 74.524 29.448 74.7048 29.6143C74.8857 29.7973 75.1487 29.8804 75.5433 29.8804H76.2338V31.0446H75.5433C74.7213 31.0446 74.113 30.8451 73.7349 30.4625C73.3403 30.08 73.143 29.4813 73.143 28.683V25.8225Z" fill="white"/>
</g>
<defs>
<clipPath id="clip0">
<rect width="190" height="39" fill="white" transform="translate(0 0.692871)"/>
</clipPath>
</defs>
</svg>
