<svg width="120" height="118" viewBox="0 0 120 118" fill="none" xmlns="http://www.w3.org/2000/svg">
<mask id="path-1-outside-1" maskUnits="userSpaceOnUse" x="0" y="0.775391" width="121" height="117" fill="black">
<rect fill="white" y="0.775391" width="121" height="117"/>
<path d="M109.589 36.7166C109.557 36.6951 109.526 36.6738 109.494 36.653L97.256 28.4963H97.6144V15.9503C97.6144 14.9605 96.8119 14.158 95.8221 14.158H86.8607C85.8709 14.158 85.0684 14.9605 85.0684 15.9503V20.3682L68.1402 9.07683C67.538 8.67491 66.753 8.67491 66.1508 9.07683L24.7973 36.653C22.2433 38.3178 21.5224 41.7379 23.1872 44.2919C24.852 46.846 28.2721 47.5669 30.8261 45.9021C30.8582 45.8812 30.89 45.86 30.9214 45.8385L36.6766 42.0012V76.8881H33.092C33.092 75.8983 32.2895 75.0958 31.2997 75.0958H16.9614C15.9716 75.0958 15.1692 75.8983 15.1692 76.8881H8V80.4726H15.1692V98.3955H8V101.98H15.1692C15.1692 102.97 15.9716 103.772 16.9614 103.772H31.2997C32.2895 103.772 33.092 102.97 33.092 101.98V101.297L46.4733 106.853C53.7685 109.83 61.923 109.92 69.2819 107.104L96.9692 96.5495C98.6089 95.926 99.9283 94.668 100.629 93.0599C101.356 91.4289 101.394 89.5736 100.735 87.9142C100.149 86.4309 99.0384 85.2146 97.6144 84.4963V42.0012L103.369 45.8385C105.889 47.5559 109.323 46.9062 111.04 44.3874C112.758 41.8683 112.108 38.4341 109.589 36.7166ZM29.5075 100.188H18.7537V78.6804H29.5075V100.188ZM88.653 17.7425H94.0298V26.3455L88.653 22.761V17.7425ZM97.351 91.6117C97.0333 92.3423 96.4353 92.9145 95.6913 93.1997L68.004 103.756C61.498 106.248 54.2876 106.17 47.8372 103.538L33.092 97.4134V80.4726H37.6355C43.5785 80.4796 49.439 81.8634 54.7572 84.516C56.5141 85.3907 58.4493 85.847 60.4119 85.8495H74.3147C75.7994 85.8582 76.9962 87.0687 76.9874 88.5536C76.9802 89.7979 76.1199 90.8749 74.9079 91.1565C74.6731 91.178 74.4419 91.2264 74.2035 91.2264H52.8072V94.8109H74.2035C74.2412 94.8109 74.277 94.8109 74.3147 94.8109C74.3505 94.8109 74.3846 94.8002 74.4222 94.8002C75.8444 94.7767 77.2489 94.4798 78.5588 93.9256L93.5441 87.5629C94.2579 87.2582 95.0653 87.2582 95.7791 87.5629C96.5209 87.8782 97.1032 88.4808 97.3922 89.2333C97.6973 89.9998 97.6825 90.8565 97.351 91.6117ZM74.3147 82.2649H60.4119C59.0056 82.2625 57.6188 81.9356 56.3595 81.3096C51.336 78.8065 45.8625 77.3337 40.2612 76.9777V39.6085L67.1455 21.6856L94.0298 39.6085V83.8099C93.3817 83.8648 92.7454 84.0171 92.1426 84.2615L80.5214 89.1975C80.5552 88.9791 80.5774 88.7588 80.5877 88.5379C80.5877 85.0734 77.7792 82.2649 74.3147 82.2649ZM107.347 42.9511V42.9457C106.718 43.2876 105.951 43.2508 105.357 42.8507L68.1402 18.0436C67.538 17.6417 66.753 17.6417 66.1508 18.0436L28.9339 42.8561C28.0432 43.4491 26.8405 43.2076 26.2475 42.3168C26.0358 41.9987 25.9229 41.6252 25.9229 41.243C25.9218 40.5949 26.2455 39.9891 26.785 39.63L67.1455 12.7241L107.506 39.6353C108.046 39.9947 108.369 40.6003 108.368 41.2484C108.374 41.9626 107.979 42.62 107.347 42.9511Z"/>
<path d="M25.9229 93.0186H22.3383V96.6032H25.9229V93.0186Z"/>
<path d="M72.2912 57.701C71.8781 56.3727 70.9398 55.2709 69.6942 54.6512L66.201 52.9037C65.4446 52.526 65.1379 51.6067 65.5157 50.8504C65.7747 50.332 66.3043 50.0042 66.8839 50.0038H67.4072C68.2518 50.0058 68.9358 50.6898 68.9378 51.5344V51.7961H72.5224V51.5344C72.5141 49.3075 71.0637 47.3427 68.9378 46.6791V44.6269H65.3532V46.6791C62.665 47.5152 61.1638 50.3721 61.9999 53.0603C62.413 54.3886 63.3513 55.4904 64.5969 56.1101L68.0901 57.8576C68.8464 58.2353 69.1531 59.1545 68.7754 59.9109C68.5164 60.4293 67.9868 60.757 67.4072 60.7575H66.8839C66.0392 60.7555 65.3553 60.0715 65.3532 59.2269V58.9652H61.7687V59.2269C61.777 61.4538 63.2274 63.4186 65.3532 64.0822V66.1344H68.9378V64.0822C71.626 63.2461 73.1273 60.3892 72.2912 57.701Z"/>
<path d="M67.1455 37.4577C57.2514 37.4685 49.2336 45.4865 49.2226 55.3806C49.2226 65.2792 57.2469 73.3035 67.1455 73.3035C77.0441 73.3035 85.0684 65.2792 85.0684 55.3806C85.0684 45.4822 77.0441 37.4577 67.1455 37.4577ZM67.1455 69.7189C59.2267 69.7189 52.8072 63.2994 52.8072 55.3806C52.8072 47.4618 59.2267 41.0423 67.1455 41.0423C75.0607 41.0512 81.4749 47.4654 81.4838 55.3806C81.4838 63.2996 75.0643 69.7189 67.1455 69.7189Z"/>
<path d="M77.8992 53.5883H74.3147V57.1729H77.8992V53.5883Z"/>
<path d="M59.9764 53.5883H56.3918V57.1729H59.9764V53.5883Z"/>
</mask>
<path d="M109.589 36.7166C109.557 36.6951 109.526 36.6738 109.494 36.653L97.256 28.4963H97.6144V15.9503C97.6144 14.9605 96.8119 14.158 95.8221 14.158H86.8607C85.8709 14.158 85.0684 14.9605 85.0684 15.9503V20.3682L68.1402 9.07683C67.538 8.67491 66.753 8.67491 66.1508 9.07683L24.7973 36.653C22.2433 38.3178 21.5224 41.7379 23.1872 44.2919C24.852 46.846 28.2721 47.5669 30.8261 45.9021C30.8582 45.8812 30.89 45.86 30.9214 45.8385L36.6766 42.0012V76.8881H33.092C33.092 75.8983 32.2895 75.0958 31.2997 75.0958H16.9614C15.9716 75.0958 15.1692 75.8983 15.1692 76.8881H8V80.4726H15.1692V98.3955H8V101.98H15.1692C15.1692 102.97 15.9716 103.772 16.9614 103.772H31.2997C32.2895 103.772 33.092 102.97 33.092 101.98V101.297L46.4733 106.853C53.7685 109.83 61.923 109.92 69.2819 107.104L96.9692 96.5495C98.6089 95.926 99.9283 94.668 100.629 93.0599C101.356 91.4289 101.394 89.5736 100.735 87.9142C100.149 86.4309 99.0384 85.2146 97.6144 84.4963V42.0012L103.369 45.8385C105.889 47.5559 109.323 46.9062 111.04 44.3874C112.758 41.8683 112.108 38.4341 109.589 36.7166ZM29.5075 100.188H18.7537V78.6804H29.5075V100.188ZM88.653 17.7425H94.0298V26.3455L88.653 22.761V17.7425ZM97.351 91.6117C97.0333 92.3423 96.4353 92.9145 95.6913 93.1997L68.004 103.756C61.498 106.248 54.2876 106.17 47.8372 103.538L33.092 97.4134V80.4726H37.6355C43.5785 80.4796 49.439 81.8634 54.7572 84.516C56.5141 85.3907 58.4493 85.847 60.4119 85.8495H74.3147C75.7994 85.8582 76.9962 87.0687 76.9874 88.5536C76.9802 89.7979 76.1199 90.8749 74.9079 91.1565C74.6731 91.178 74.4419 91.2264 74.2035 91.2264H52.8072V94.8109H74.2035C74.2412 94.8109 74.277 94.8109 74.3147 94.8109C74.3505 94.8109 74.3846 94.8002 74.4222 94.8002C75.8444 94.7767 77.2489 94.4798 78.5588 93.9256L93.5441 87.5629C94.2579 87.2582 95.0653 87.2582 95.7791 87.5629C96.5209 87.8782 97.1032 88.4808 97.3922 89.2333C97.6973 89.9998 97.6825 90.8565 97.351 91.6117ZM74.3147 82.2649H60.4119C59.0056 82.2625 57.6188 81.9356 56.3595 81.3096C51.336 78.8065 45.8625 77.3337 40.2612 76.9777V39.6085L67.1455 21.6856L94.0298 39.6085V83.8099C93.3817 83.8648 92.7454 84.0171 92.1426 84.2615L80.5214 89.1975C80.5552 88.9791 80.5774 88.7588 80.5877 88.5379C80.5877 85.0734 77.7792 82.2649 74.3147 82.2649ZM107.347 42.9511V42.9457C106.718 43.2876 105.951 43.2508 105.357 42.8507L68.1402 18.0436C67.538 17.6417 66.753 17.6417 66.1508 18.0436L28.9339 42.8561C28.0432 43.4491 26.8405 43.2076 26.2475 42.3168C26.0358 41.9987 25.9229 41.6252 25.9229 41.243C25.9218 40.5949 26.2455 39.9891 26.785 39.63L67.1455 12.7241L107.506 39.6353C108.046 39.9947 108.369 40.6003 108.368 41.2484C108.374 41.9626 107.979 42.62 107.347 42.9511Z" fill="black"/>
<path d="M25.9229 93.0186H22.3383V96.6032H25.9229V93.0186Z" fill="black"/>
<path d="M72.2912 57.701C71.8781 56.3727 70.9398 55.2709 69.6942 54.6512L66.201 52.9037C65.4446 52.526 65.1379 51.6067 65.5157 50.8504C65.7747 50.332 66.3043 50.0042 66.8839 50.0038H67.4072C68.2518 50.0058 68.9358 50.6898 68.9378 51.5344V51.7961H72.5224V51.5344C72.5141 49.3075 71.0637 47.3427 68.9378 46.6791V44.6269H65.3532V46.6791C62.665 47.5152 61.1638 50.3721 61.9999 53.0603C62.413 54.3886 63.3513 55.4904 64.5969 56.1101L68.0901 57.8576C68.8464 58.2353 69.1531 59.1545 68.7754 59.9109C68.5164 60.4293 67.9868 60.757 67.4072 60.7575H66.8839C66.0392 60.7555 65.3553 60.0715 65.3532 59.2269V58.9652H61.7687V59.2269C61.777 61.4538 63.2274 63.4186 65.3532 64.0822V66.1344H68.9378V64.0822C71.626 63.2461 73.1273 60.3892 72.2912 57.701Z" fill="black"/>
<path d="M67.1455 37.4577C57.2514 37.4685 49.2336 45.4865 49.2226 55.3806C49.2226 65.2792 57.2469 73.3035 67.1455 73.3035C77.0441 73.3035 85.0684 65.2792 85.0684 55.3806C85.0684 45.4822 77.0441 37.4577 67.1455 37.4577ZM67.1455 69.7189C59.2267 69.7189 52.8072 63.2994 52.8072 55.3806C52.8072 47.4618 59.2267 41.0423 67.1455 41.0423C75.0607 41.0512 81.4749 47.4654 81.4838 55.3806C81.4838 63.2996 75.0643 69.7189 67.1455 69.7189Z" fill="black"/>
<path d="M77.8992 53.5883H74.3147V57.1729H77.8992V53.5883Z" fill="black"/>
<path d="M59.9764 53.5883H56.3918V57.1729H59.9764V53.5883Z" fill="black"/>
<path d="M109.589 36.7166C109.557 36.6951 109.526 36.6738 109.494 36.653L97.256 28.4963H97.6144V15.9503C97.6144 14.9605 96.8119 14.158 95.8221 14.158H86.8607C85.8709 14.158 85.0684 14.9605 85.0684 15.9503V20.3682L68.1402 9.07683C67.538 8.67491 66.753 8.67491 66.1508 9.07683L24.7973 36.653C22.2433 38.3178 21.5224 41.7379 23.1872 44.2919C24.852 46.846 28.2721 47.5669 30.8261 45.9021C30.8582 45.8812 30.89 45.86 30.9214 45.8385L36.6766 42.0012V76.8881H33.092C33.092 75.8983 32.2895 75.0958 31.2997 75.0958H16.9614C15.9716 75.0958 15.1692 75.8983 15.1692 76.8881H8V80.4726H15.1692V98.3955H8V101.98H15.1692C15.1692 102.97 15.9716 103.772 16.9614 103.772H31.2997C32.2895 103.772 33.092 102.97 33.092 101.98V101.297L46.4733 106.853C53.7685 109.83 61.923 109.92 69.2819 107.104L96.9692 96.5495C98.6089 95.926 99.9283 94.668 100.629 93.0599C101.356 91.4289 101.394 89.5736 100.735 87.9142C100.149 86.4309 99.0384 85.2146 97.6144 84.4963V42.0012L103.369 45.8385C105.889 47.5559 109.323 46.9062 111.04 44.3874C112.758 41.8683 112.108 38.4341 109.589 36.7166ZM29.5075 100.188H18.7537V78.6804H29.5075V100.188ZM88.653 17.7425H94.0298V26.3455L88.653 22.761V17.7425ZM97.351 91.6117C97.0333 92.3423 96.4353 92.9145 95.6913 93.1997L68.004 103.756C61.498 106.248 54.2876 106.17 47.8372 103.538L33.092 97.4134V80.4726H37.6355C43.5785 80.4796 49.439 81.8634 54.7572 84.516C56.5141 85.3907 58.4493 85.847 60.4119 85.8495H74.3147C75.7994 85.8582 76.9962 87.0687 76.9874 88.5536C76.9802 89.7979 76.1199 90.8749 74.9079 91.1565C74.6731 91.178 74.4419 91.2264 74.2035 91.2264H52.8072V94.8109H74.2035C74.2412 94.8109 74.277 94.8109 74.3147 94.8109C74.3505 94.8109 74.3846 94.8002 74.4222 94.8002C75.8444 94.7767 77.2489 94.4798 78.5588 93.9256L93.5441 87.5629C94.2579 87.2582 95.0653 87.2582 95.7791 87.5629C96.5209 87.8782 97.1032 88.4808 97.3922 89.2333C97.6973 89.9998 97.6825 90.8565 97.351 91.6117ZM74.3147 82.2649H60.4119C59.0056 82.2625 57.6188 81.9356 56.3595 81.3096C51.336 78.8065 45.8625 77.3337 40.2612 76.9777V39.6085L67.1455 21.6856L94.0298 39.6085V83.8099C93.3817 83.8648 92.7454 84.0171 92.1426 84.2615L80.5214 89.1975C80.5552 88.9791 80.5774 88.7588 80.5877 88.5379C80.5877 85.0734 77.7792 82.2649 74.3147 82.2649ZM107.347 42.9511V42.9457C106.718 43.2876 105.951 43.2508 105.357 42.8507L68.1402 18.0436C67.538 17.6417 66.753 17.6417 66.1508 18.0436L28.9339 42.8561C28.0432 43.4491 26.8405 43.2076 26.2475 42.3168C26.0358 41.9987 25.9229 41.6252 25.9229 41.243C25.9218 40.5949 26.2455 39.9891 26.785 39.63L67.1455 12.7241L107.506 39.6353C108.046 39.9947 108.369 40.6003 108.368 41.2484C108.374 41.9626 107.979 42.62 107.347 42.9511Z" stroke="#00D1B8" stroke-width="16" stroke-linejoin="round" mask="url(#path-1-outside-1)"/>
<path d="M25.9229 93.0186H22.3383V96.6032H25.9229V93.0186Z" stroke="#00D1B8" stroke-width="16" stroke-linejoin="round" mask="url(#path-1-outside-1)"/>
<path d="M72.2912 57.701C71.8781 56.3727 70.9398 55.2709 69.6942 54.6512L66.201 52.9037C65.4446 52.526 65.1379 51.6067 65.5157 50.8504C65.7747 50.332 66.3043 50.0042 66.8839 50.0038H67.4072C68.2518 50.0058 68.9358 50.6898 68.9378 51.5344V51.7961H72.5224V51.5344C72.5141 49.3075 71.0637 47.3427 68.9378 46.6791V44.6269H65.3532V46.6791C62.665 47.5152 61.1638 50.3721 61.9999 53.0603C62.413 54.3886 63.3513 55.4904 64.5969 56.1101L68.0901 57.8576C68.8464 58.2353 69.1531 59.1545 68.7754 59.9109C68.5164 60.4293 67.9868 60.757 67.4072 60.7575H66.8839C66.0392 60.7555 65.3553 60.0715 65.3532 59.2269V58.9652H61.7687V59.2269C61.777 61.4538 63.2274 63.4186 65.3532 64.0822V66.1344H68.9378V64.0822C71.626 63.2461 73.1273 60.3892 72.2912 57.701Z" stroke="#00D1B8" stroke-width="16" stroke-linejoin="round" mask="url(#path-1-outside-1)"/>
<path d="M67.1455 37.4577C57.2514 37.4685 49.2336 45.4865 49.2226 55.3806C49.2226 65.2792 57.2469 73.3035 67.1455 73.3035C77.0441 73.3035 85.0684 65.2792 85.0684 55.3806C85.0684 45.4822 77.0441 37.4577 67.1455 37.4577ZM67.1455 69.7189C59.2267 69.7189 52.8072 63.2994 52.8072 55.3806C52.8072 47.4618 59.2267 41.0423 67.1455 41.0423C75.0607 41.0512 81.4749 47.4654 81.4838 55.3806C81.4838 63.2996 75.0643 69.7189 67.1455 69.7189Z" stroke="#00D1B8" stroke-width="16" stroke-linejoin="round" mask="url(#path-1-outside-1)"/>
<path d="M77.8992 53.5883H74.3147V57.1729H77.8992V53.5883Z" stroke="#00D1B8" stroke-width="16" stroke-linejoin="round" mask="url(#path-1-outside-1)"/>
<path d="M59.9764 53.5883H56.3918V57.1729H59.9764V53.5883Z" stroke="#00D1B8" stroke-width="16" stroke-linejoin="round" mask="url(#path-1-outside-1)"/>
</svg>
