<svg width="117" height="119" viewBox="0 0 117 119" fill="none" xmlns="http://www.w3.org/2000/svg">
<mask id="path-1-outside-1" maskUnits="userSpaceOnUse" x="-0.74939" y="0.995605" width="117" height="118" fill="black">
<rect fill="white" x="-0.74939" y="0.995605" width="117" height="118"/>
<path d="M9.16394 36.715C9.12615 36.9204 9.10485 37.1287 9.09797 37.3369V41.6139C9.10347 43.3766 10.1982 44.9523 11.8495 45.5714V51.8647C11.857 53.9716 13.5138 55.7033 15.618 55.8029V92.1599C13.5138 92.2602 11.857 93.9919 11.8495 96.0981V102.373C10.1947 103.008 9.10072 104.596 9.09797 106.367V110.551C9.09797 111.331 9.73156 111.964 10.5115 111.964H105.819C106.599 111.964 107.232 111.331 107.232 110.551V106.367C107.229 104.595 106.135 103.008 104.481 102.373V96.061C104.473 93.9541 102.816 92.2224 100.712 92.1227V55.8029C102.816 55.7033 104.473 53.9716 104.481 51.8647V45.5714C106.131 44.9523 107.226 43.3766 107.232 41.6139V37.3651C107.225 37.1568 107.203 36.9486 107.166 36.7432C107.876 37.0579 108.707 36.7377 109.022 36.0271C109.336 35.3172 109.016 34.4864 108.306 34.171L58.8152 8.15898C58.4022 7.94115 57.9088 7.94115 57.4958 8.15898L8.00535 34.1428C7.31473 34.5077 7.05016 35.3619 7.41368 36.0525C7.74628 36.6834 8.49669 36.9679 9.16394 36.715ZM14.6759 48.0206V45.8442H30.9745V48.002L14.6759 48.0206ZM50.9668 55.8125V92.1599C48.8627 92.2602 47.2058 93.9919 47.1983 96.0981V102.109H33.7817V96.0981C33.7741 93.9919 32.1173 92.2602 30.0132 92.1599V55.8029C32.1173 55.7033 33.7741 53.9716 33.7817 51.8647V45.8442H47.1791V51.8557C47.1825 53.9661 48.8407 55.7019 50.9483 55.8029L50.9668 55.8125ZM50.0247 48.0206V45.8442H66.324V48.002L50.0247 48.0206ZM86.3163 55.8125V92.1599C84.2122 92.2602 82.5547 93.9919 82.5471 96.0981V102.109H69.1312V96.0981C69.1236 93.9919 67.4661 92.2602 65.3627 92.1599V55.8029C67.4661 55.7033 69.1236 53.9716 69.1312 51.8647V45.8442H82.5286V51.8557C82.5313 53.9661 84.1895 55.7019 86.2971 55.8029L86.3163 55.8125ZM85.3742 48.0206V45.8442H101.673V48.002L85.3742 48.0206ZM101.673 99.9519V102.109H85.355V99.9519H101.673ZM66.324 99.9519V102.109H50.0061V99.9519H66.324ZM52.3611 53.0047H51.1366C50.5119 53.0047 50.0061 52.4989 50.0061 51.8743V50.8469H66.3048V51.8743C66.3048 52.4989 65.799 53.0047 65.1744 53.0047H52.3611ZM62.5459 55.8311V92.1413H53.7747V55.8311H62.5459ZM52.3611 94.9677H65.1744C65.799 94.9677 66.3048 95.4735 66.3048 96.0981V97.1255H50.0061V96.0981C50.0061 95.4735 50.5119 94.9677 51.1366 94.9677H52.3611ZM30.956 99.9519V102.109H14.6566V99.9519H30.956ZM14.6566 51.9025V50.8469H30.956V51.8743C30.956 52.4989 30.4502 53.0047 29.8249 53.0047H15.7589C15.1418 52.9896 14.6511 52.4818 14.6566 51.8647V51.9025ZM27.1874 55.8593V92.1413H18.4251V55.8311L27.1874 55.8593ZM14.6566 96.127C14.6566 95.5016 15.1624 94.9959 15.787 94.9959H29.8249C30.4502 94.9959 30.956 95.5016 30.956 96.127V97.1536H14.6566V96.127ZM104.405 106.424V109.194H11.9058V106.424C11.9058 105.618 12.5593 104.963 13.3661 104.963H102.945C103.74 104.963 104.39 105.601 104.405 106.396V106.424ZM101.654 96.127V97.1536H85.355V96.127C85.355 95.5016 85.8607 94.9959 86.4854 94.9959H100.552C101.155 95.011 101.639 95.4955 101.654 96.0981V96.127ZM89.1235 92.1695V55.8311H97.8947V92.1413L89.1235 92.1695ZM101.654 51.9025C101.654 52.5271 101.149 53.0329 100.524 53.0329H86.495C85.8703 53.0329 85.3646 52.5271 85.3646 51.9025V50.8469H101.663L101.654 51.9025ZM58.1555 10.9854L100.241 33.1066H16.0702L58.1555 10.9854ZM11.9058 37.3651C11.9058 36.5851 12.5387 35.9522 13.3187 35.9522H102.992C103.772 35.9522 104.405 36.5851 104.405 37.3651V41.6428C104.405 42.4227 103.772 43.0556 102.992 43.0556H13.3187C12.5387 43.0556 11.9058 42.4227 11.9058 41.6428V37.3651Z"/>
</mask>
<path d="M9.16394 36.715C9.12615 36.9204 9.10485 37.1287 9.09797 37.3369V41.6139C9.10347 43.3766 10.1982 44.9523 11.8495 45.5714V51.8647C11.857 53.9716 13.5138 55.7033 15.618 55.8029V92.1599C13.5138 92.2602 11.857 93.9919 11.8495 96.0981V102.373C10.1947 103.008 9.10072 104.596 9.09797 106.367V110.551C9.09797 111.331 9.73156 111.964 10.5115 111.964H105.819C106.599 111.964 107.232 111.331 107.232 110.551V106.367C107.229 104.595 106.135 103.008 104.481 102.373V96.061C104.473 93.9541 102.816 92.2224 100.712 92.1227V55.8029C102.816 55.7033 104.473 53.9716 104.481 51.8647V45.5714C106.131 44.9523 107.226 43.3766 107.232 41.6139V37.3651C107.225 37.1568 107.203 36.9486 107.166 36.7432C107.876 37.0579 108.707 36.7377 109.022 36.0271C109.336 35.3172 109.016 34.4864 108.306 34.171L58.8152 8.15898C58.4022 7.94115 57.9088 7.94115 57.4958 8.15898L8.00535 34.1428C7.31473 34.5077 7.05016 35.3619 7.41368 36.0525C7.74628 36.6834 8.49669 36.9679 9.16394 36.715ZM14.6759 48.0206V45.8442H30.9745V48.002L14.6759 48.0206ZM50.9668 55.8125V92.1599C48.8627 92.2602 47.2058 93.9919 47.1983 96.0981V102.109H33.7817V96.0981C33.7741 93.9919 32.1173 92.2602 30.0132 92.1599V55.8029C32.1173 55.7033 33.7741 53.9716 33.7817 51.8647V45.8442H47.1791V51.8557C47.1825 53.9661 48.8407 55.7019 50.9483 55.8029L50.9668 55.8125ZM50.0247 48.0206V45.8442H66.324V48.002L50.0247 48.0206ZM86.3163 55.8125V92.1599C84.2122 92.2602 82.5547 93.9919 82.5471 96.0981V102.109H69.1312V96.0981C69.1236 93.9919 67.4661 92.2602 65.3627 92.1599V55.8029C67.4661 55.7033 69.1236 53.9716 69.1312 51.8647V45.8442H82.5286V51.8557C82.5313 53.9661 84.1895 55.7019 86.2971 55.8029L86.3163 55.8125ZM85.3742 48.0206V45.8442H101.673V48.002L85.3742 48.0206ZM101.673 99.9519V102.109H85.355V99.9519H101.673ZM66.324 99.9519V102.109H50.0061V99.9519H66.324ZM52.3611 53.0047H51.1366C50.5119 53.0047 50.0061 52.4989 50.0061 51.8743V50.8469H66.3048V51.8743C66.3048 52.4989 65.799 53.0047 65.1744 53.0047H52.3611ZM62.5459 55.8311V92.1413H53.7747V55.8311H62.5459ZM52.3611 94.9677H65.1744C65.799 94.9677 66.3048 95.4735 66.3048 96.0981V97.1255H50.0061V96.0981C50.0061 95.4735 50.5119 94.9677 51.1366 94.9677H52.3611ZM30.956 99.9519V102.109H14.6566V99.9519H30.956ZM14.6566 51.9025V50.8469H30.956V51.8743C30.956 52.4989 30.4502 53.0047 29.8249 53.0047H15.7589C15.1418 52.9896 14.6511 52.4818 14.6566 51.8647V51.9025ZM27.1874 55.8593V92.1413H18.4251V55.8311L27.1874 55.8593ZM14.6566 96.127C14.6566 95.5016 15.1624 94.9959 15.787 94.9959H29.8249C30.4502 94.9959 30.956 95.5016 30.956 96.127V97.1536H14.6566V96.127ZM104.405 106.424V109.194H11.9058V106.424C11.9058 105.618 12.5593 104.963 13.3661 104.963H102.945C103.74 104.963 104.39 105.601 104.405 106.396V106.424ZM101.654 96.127V97.1536H85.355V96.127C85.355 95.5016 85.8607 94.9959 86.4854 94.9959H100.552C101.155 95.011 101.639 95.4955 101.654 96.0981V96.127ZM89.1235 92.1695V55.8311H97.8947V92.1413L89.1235 92.1695ZM101.654 51.9025C101.654 52.5271 101.149 53.0329 100.524 53.0329H86.495C85.8703 53.0329 85.3646 52.5271 85.3646 51.9025V50.8469H101.663L101.654 51.9025ZM58.1555 10.9854L100.241 33.1066H16.0702L58.1555 10.9854ZM11.9058 37.3651C11.9058 36.5851 12.5387 35.9522 13.3187 35.9522H102.992C103.772 35.9522 104.405 36.5851 104.405 37.3651V41.6428C104.405 42.4227 103.772 43.0556 102.992 43.0556H13.3187C12.5387 43.0556 11.9058 42.4227 11.9058 41.6428V37.3651Z" fill="#1D2128"/>
<path d="M9.16394 36.715C9.12615 36.9204 9.10485 37.1287 9.09797 37.3369V41.6139C9.10347 43.3766 10.1982 44.9523 11.8495 45.5714V51.8647C11.857 53.9716 13.5138 55.7033 15.618 55.8029V92.1599C13.5138 92.2602 11.857 93.9919 11.8495 96.0981V102.373C10.1947 103.008 9.10072 104.596 9.09797 106.367V110.551C9.09797 111.331 9.73156 111.964 10.5115 111.964H105.819C106.599 111.964 107.232 111.331 107.232 110.551V106.367C107.229 104.595 106.135 103.008 104.481 102.373V96.061C104.473 93.9541 102.816 92.2224 100.712 92.1227V55.8029C102.816 55.7033 104.473 53.9716 104.481 51.8647V45.5714C106.131 44.9523 107.226 43.3766 107.232 41.6139V37.3651C107.225 37.1568 107.203 36.9486 107.166 36.7432C107.876 37.0579 108.707 36.7377 109.022 36.0271C109.336 35.3172 109.016 34.4864 108.306 34.171L58.8152 8.15898C58.4022 7.94115 57.9088 7.94115 57.4958 8.15898L8.00535 34.1428C7.31473 34.5077 7.05016 35.3619 7.41368 36.0525C7.74628 36.6834 8.49669 36.9679 9.16394 36.715ZM14.6759 48.0206V45.8442H30.9745V48.002L14.6759 48.0206ZM50.9668 55.8125V92.1599C48.8627 92.2602 47.2058 93.9919 47.1983 96.0981V102.109H33.7817V96.0981C33.7741 93.9919 32.1173 92.2602 30.0132 92.1599V55.8029C32.1173 55.7033 33.7741 53.9716 33.7817 51.8647V45.8442H47.1791V51.8557C47.1825 53.9661 48.8407 55.7019 50.9483 55.8029L50.9668 55.8125ZM50.0247 48.0206V45.8442H66.324V48.002L50.0247 48.0206ZM86.3163 55.8125V92.1599C84.2122 92.2602 82.5547 93.9919 82.5471 96.0981V102.109H69.1312V96.0981C69.1236 93.9919 67.4661 92.2602 65.3627 92.1599V55.8029C67.4661 55.7033 69.1236 53.9716 69.1312 51.8647V45.8442H82.5286V51.8557C82.5313 53.9661 84.1895 55.7019 86.2971 55.8029L86.3163 55.8125ZM85.3742 48.0206V45.8442H101.673V48.002L85.3742 48.0206ZM101.673 99.9519V102.109H85.355V99.9519H101.673ZM66.324 99.9519V102.109H50.0061V99.9519H66.324ZM52.3611 53.0047H51.1366C50.5119 53.0047 50.0061 52.4989 50.0061 51.8743V50.8469H66.3048V51.8743C66.3048 52.4989 65.799 53.0047 65.1744 53.0047H52.3611ZM62.5459 55.8311V92.1413H53.7747V55.8311H62.5459ZM52.3611 94.9677H65.1744C65.799 94.9677 66.3048 95.4735 66.3048 96.0981V97.1255H50.0061V96.0981C50.0061 95.4735 50.5119 94.9677 51.1366 94.9677H52.3611ZM30.956 99.9519V102.109H14.6566V99.9519H30.956ZM14.6566 51.9025V50.8469H30.956V51.8743C30.956 52.4989 30.4502 53.0047 29.8249 53.0047H15.7589C15.1418 52.9896 14.6511 52.4818 14.6566 51.8647V51.9025ZM27.1874 55.8593V92.1413H18.4251V55.8311L27.1874 55.8593ZM14.6566 96.127C14.6566 95.5016 15.1624 94.9959 15.787 94.9959H29.8249C30.4502 94.9959 30.956 95.5016 30.956 96.127V97.1536H14.6566V96.127ZM104.405 106.424V109.194H11.9058V106.424C11.9058 105.618 12.5593 104.963 13.3661 104.963H102.945C103.74 104.963 104.39 105.601 104.405 106.396V106.424ZM101.654 96.127V97.1536H85.355V96.127C85.355 95.5016 85.8607 94.9959 86.4854 94.9959H100.552C101.155 95.011 101.639 95.4955 101.654 96.0981V96.127ZM89.1235 92.1695V55.8311H97.8947V92.1413L89.1235 92.1695ZM101.654 51.9025C101.654 52.5271 101.149 53.0329 100.524 53.0329H86.495C85.8703 53.0329 85.3646 52.5271 85.3646 51.9025V50.8469H101.663L101.654 51.9025ZM58.1555 10.9854L100.241 33.1066H16.0702L58.1555 10.9854ZM11.9058 37.3651C11.9058 36.5851 12.5387 35.9522 13.3187 35.9522H102.992C103.772 35.9522 104.405 36.5851 104.405 37.3651V41.6428C104.405 42.4227 103.772 43.0556 102.992 43.0556H13.3187C12.5387 43.0556 11.9058 42.4227 11.9058 41.6428V37.3651Z" stroke="#00D1B8" stroke-width="14" mask="url(#path-1-outside-1)"/>
</svg>
