<svg width="25" height="26" viewBox="0 0 25 26" fill="none" xmlns="http://www.w3.org/2000/svg">
<path d="M24.344 19.6508L19.2839 16.2763C18.6418 15.8515 17.781 15.9912 17.3063 16.5974L15.8323 18.4926C15.6429 18.7423 15.2985 18.8148 15.0245 18.6626L14.7441 18.508C13.8147 18.0014 12.6582 17.3707 10.3281 15.0398C7.99807 12.7089 7.36608 11.5515 6.85947 10.6238L6.70573 10.3434C6.55141 10.0694 6.62249 9.72361 6.87235 9.53267L8.76621 8.05916C9.37218 7.58438 9.51215 6.72386 9.08785 6.08153L5.71335 1.02144C5.2785 0.367337 4.40607 0.170979 3.73288 0.575655L1.61693 1.84671C0.952089 2.23757 0.46432 2.87058 0.255903 3.61309C-0.506044 6.38934 0.0671615 11.1807 7.12529 18.2397C12.7399 23.8538 16.9197 25.3636 19.7926 25.3636C20.4538 25.3665 21.1124 25.2804 21.7507 25.1079C22.4933 24.8997 23.1264 24.4119 23.5171 23.7468L24.7894 21.6321C25.1946 20.9588 24.9984 20.0858 24.344 19.6508ZM24.0715 21.2047L22.8021 23.3206C22.5216 23.8006 22.0663 24.1535 21.5315 24.3055C18.9685 25.0091 14.4909 24.4263 7.71476 17.6502C0.938664 10.8741 0.355889 6.39686 1.05954 3.83352C1.21167 3.29805 1.56504 2.84212 2.04563 2.5612L4.16157 1.29181C4.45367 1.11605 4.83232 1.20125 5.02102 1.48509L6.85409 4.23717L8.39264 6.54474C8.57689 6.82336 8.51635 7.19679 8.2535 7.40296L6.3592 8.87647C5.78272 9.31728 5.6181 10.1149 5.97302 10.7479L6.12344 11.0212C6.65588 11.9977 7.31784 13.2125 9.73458 15.6288C12.1513 18.0451 13.3657 18.7071 14.3418 19.2395L14.6155 19.3903C15.2485 19.7452 16.0461 19.5806 16.4869 19.0042L17.9604 17.1099C18.1666 16.8472 18.5399 16.7867 18.8186 16.9707L23.8783 20.3452C24.1623 20.5338 24.2475 20.9126 24.0715 21.2047Z" fill="black"/>
</svg>
